<?xml version="1.0" standalone="no"?>
<!DOCTYPE svg PUBLIC "-//W3C//DTD SVG 1.1//EN" "http://www.w3.org/Graphics/SVG/1.1/DTD/svg11.dtd" >
<svg xmlns="http://www.w3.org/2000/svg">
<metadata>
Created by FontForge 20120731 at Fri Mar 25 14:15:05 2016
 By Ads
</metadata>
<defs>
<font id="iconfont" horiz-adv-x="1024" >
  <font-face 
    font-family="iconfont"
    font-weight="500"
    font-stretch="normal"
    units-per-em="1024"
    panose-1="2 0 6 3 0 0 0 0 0 0"
    ascent="896"
    descent="-128"
    x-height="792"
    bbox="-1403 -224 2579 896.336"
    underline-thickness="50"
    underline-position="-100"
    unicode-range="U+0078-E673"
  />
<missing-glyph horiz-adv-x="374" 
d="M34 0v682h272v-682h-272zM68 34h204v614h-204v-614z" />
    <glyph glyph-name=".notdef" horiz-adv-x="374" 
d="M34 0v682h272v-682h-272zM68 34h204v614h-204v-614z" />
    <glyph glyph-name=".null" horiz-adv-x="0" 
 />
    <glyph glyph-name="nonmarkingreturn" horiz-adv-x="341" 
 />
    <glyph glyph-name="x" unicode="x" horiz-adv-x="1001" 
d="M281 543q-27 -1 -53 -1h-83q-18 0 -36.5 -6t-32.5 -18.5t-23 -32t-9 -45.5v-76h912v41q0 16 -0.5 30t-0.5 18q0 13 -5 29t-17 29.5t-31.5 22.5t-49.5 9h-133v-97h-438v97zM955 310v-52q0 -23 0.5 -52t0.5 -58t-10.5 -47.5t-26 -30t-33 -16t-31.5 -4.5q-14 -1 -29.5 -0.5
t-29.5 0.5h-32l-45 128h-439l-44 -128h-29h-34q-20 0 -45 1q-25 0 -41 9.5t-25.5 23t-13.5 29.5t-4 30v167h911zM163 247q-12 0 -21 -8.5t-9 -21.5t9 -21.5t21 -8.5q13 0 22 8.5t9 21.5t-9 21.5t-22 8.5zM316 123q-8 -26 -14 -48q-5 -19 -10.5 -37t-7.5 -25t-3 -15t1 -14.5
t9.5 -10.5t21.5 -4h37h67h81h80h64h36q23 0 34 12t2 38q-5 13 -9.5 30.5t-9.5 34.5q-5 19 -11 39h-368zM336 498v228q0 11 2.5 23t10 21.5t20.5 15.5t34 6h188q31 0 51.5 -14.5t20.5 -52.5v-227h-327z" />
    <glyph glyph-name="uniE600" unicode="&#xe600;" 
d="M192 320h256q53 0 90.5 37.5t37.5 90.5v256q0 53 -37.5 90.5t-90.5 37.5h-256q-53 0 -90.5 -37.5t-37.5 -90.5v-256q0 -53 37.5 -90.5t90.5 -37.5zM730 620q1 -14 2 -20t4.5 -8.5t10 2t18.5 15.5q5 4 10.5 9t10.5 10l8 8q5 5 8 8.5t5.5 6.5t4.5 4l1 2l3 -1q4 -2 9.5 -6
t13 -9.5t16 -15t17 -21t17.5 -28.5t16 -36q19 -44 14 -100t-16.5 -96t-23.5 -62q-5 -5 -8.5 -13t-4 -15t2 -11t11 0t22.5 16q62 62 90 142t7 167q-8 32 -20.5 61t-24.5 48t-24.5 33.5t-20 21.5t-10.5 9l-1 -1v1h1t3 2.5t6 6.5t8.5 9t11.5 13t15 15q18 18 15.5 25t-26.5 10
q-25 3 -80.5 5.5t-98.5 3.5l-43 1q14 -155 20 -212zM832 320v-256q0 -53 -37.5 -90.5t-90.5 -37.5h-256q-53 0 -90.5 37.5t-37.5 90.5v192h64v-192q0 -26 19 -45t45 -19h256q26 0 45 19t19 45v256q0 26 -19 45t-45 19h-76q12 33 12 64h64q53 0 90.5 -37.5t37.5 -90.5z" />
    <glyph glyph-name="uniE601" unicode="&#xe601;" horiz-adv-x="1025" 
d="M342 148q-1 14 -2 20t-4.5 8.5t-10 -2t-18.5 -15.5q-7 -6 -14.5 -13t-13 -13t-10.5 -11t-7 -8l-3 -3q-3 -1 -16.5 8t-36.5 38t-39 71q-11 26 -13.5 58.5t1 62t10.5 58t14.5 48t13.5 31.5q9 9 12 23t-4 17t-31 -18q-62 -61 -90.5 -141t-6.5 -167q8 -32 20.5 -61t24.5 -48
t24.5 -34t20 -21.5t10.5 -8.5l1 1v-1h-1q-1 0 -3 -2.5t-6 -6.5t-8.5 -9.5t-11.5 -13t-15 -14.5q-13 -12 -15.5 -19t4 -10.5t22.5 -5.5q25 -3 81.5 -5.5t96.5 -3.5t44 -1q-14 155 -20 212zM642 768q26 0 45 -19t19 -45v-256q0 -17 -8.5 -32t-23.5 -23.5t-32 -8.5h-256
q-18 0 -32.5 8.5t-23 23.5t-8.5 32v256q0 13 5 25t13.5 20.5t20.5 13.5t25 5h256zM642 832h-256q-53 0 -90.5 -37.5t-37.5 -90.5v-256q0 -53 37.5 -90.5t90.5 -37.5h256q53 0 90.5 37.5t37.5 90.5v256q0 53 -37.5 90.5t-90.5 37.5zM1024 320v-256q0 -53 -37.5 -90.5
t-90.5 -37.5h-256q-53 0 -90.5 37.5t-37.5 90.5v192h130q79 0 135.5 56.5t56.5 135.5h62q53 0 90.5 -37.5t37.5 -90.5z" />
    <glyph glyph-name="uniE602" unicode="&#xe602;" 
d="M498 102l-305 314l79 64l176 -140q32 39 71.5 81t97.5 97t132.5 113t152.5 107l18 -44q-141 -132 -259 -304.5t-163 -287.5v0v0zM883 445q5 -30 5 -61q0 -102 -50.5 -188.5t-137 -137t-188.5 -50.5t-188.5 50.5t-137 137t-50.5 188.5t50.5 188.5t137 137t188.5 50.5
q19 0 37.5 -1.5t36 -5.5t34.5 -9t34 -12v76q-69 23 -142 23q-45 0 -89 -9t-85 -26q-80 -34 -142 -96t-96 -142q-11 -28 -19 -56.5t-12 -58t-4 -59.5q0 -91 35 -174q34 -80 96 -142q15 -15 32 -29t34.5 -26t36.5 -22t39 -19q83 -35 174 -35t174 35q80 34 142 96t96 142
q35 83 35 174q0 31 -4 61h-72zM883 445z" />
    <glyph glyph-name="uniE603" unicode="&#xe603;" 
d="M711 521q12 0 22.5 6t17 16t6.5 22v200q0 19 -13.5 31.5t-32 12.5t-31.5 -12.5t-13 -31.5v-200q0 -18 13 -31t31 -13zM623 699h-222v-67h222v67zM884 699h-83v-67h86q19 0 33 -13.5t14 -32.5v-154h-844v154q0 19 14 32.5t33 13.5h87v67h-83q-32 0 -58.5 -16t-42.5 -43
t-16 -58v-677q0 -48 33.5 -82.5t81.5 -34.5h745q48 0 82.5 34.5t34.5 82.5v677q0 24 -9.5 45.5t-25 37t-37 25t-45.5 9.5zM934 -98q0 -19 -14 -33t-33 -14h-750q-19 0 -33 14t-14 33v464h844v-464zM267 166q18 0 33.5 9t24.5 24.5t9 33.5q0 13 -5.5 25.5t-14.5 21.5
t-21 14.5t-26 5.5q-28 0 -47.5 -20t-19.5 -47q0 -11 3.5 -21.5t9.5 -18.5t14.5 -14t18.5 -9.5t21 -3.5zM511.5 166q27.5 0 47 19.5t19.5 47.5q0 13 -5 25.5t-14 21.5t-21.5 14.5t-25.5 5.5q-28 0 -47.5 -20t-19.5 -47.5t19.5 -47t47 -19.5zM266 -79q28 0 47.5 19.5
t19.5 47.5t-19.5 47.5t-47.5 19.5t-47.5 -19.5t-19.5 -47.5q0 -41 36 -59q15 -7 31 -8zM511.5 -79q27.5 0 47 19.5t19.5 47.5q0 14 -5 26.5t-14 21t-21.5 14t-25.5 5.5q-28 0 -47.5 -19.5t-19.5 -47.5t19.5 -47.5t47 -19.5zM755.5 166q27.5 0 47 19.5t19.5 47t-19.5 47.5
t-47 20t-47 -20t-19.5 -47.5t19.5 -47t47 -19.5zM312 521q12 0 22.5 6t16.5 16t6 22v200q0 19 -13.5 31.5t-31.5 12.5q-9 0 -17.5 -3t-14 -9t-9 -14.5t-3.5 -17.5v-200q0 -18 12.5 -31t31.5 -13z" />
    <glyph glyph-name="uniE604" unicode="&#xe604;" 
d="M820 -72h-616q-38 0 -70 17.5t-51 47.5t-19 65v486q0 54 41.5 92t98.5 38h168q56 0 103.5 -22t62.5 -55q8 -18 33 -31t62 -13h187q57 0 98 -38.5t41 -92.5v-364q1 -54 -40.5 -92t-98.5 -38zM204 622q-22 0 -41.5 -10.5t-31 -28.5t-11.5 -39v-486q0 -32 25 -55t59 -23h616
q34 0 59 23t25 55v364q0 33 -25 55.5t-59 22.5h-187q-54 0 -92.5 21.5t-54.5 55.5q-7 17 -41 31t-73 14h-168zM857 602h-242q-12 0 -20 7.5t-8 18.5t8 18.5t20 7.5h242q8 0 14 -3.5t10 -9.5t4 -13q0 -11 -8 -18.5t-20 -7.5zM857 602z" />
    <glyph glyph-name="uniE605" unicode="&#xe605;" 
d="M282 128h256v51h-256v-51zM282 307h460v51h-460v-51zM589 895h-154v-51h154v51zM282 486h460v51h-460v-51zM896 895h-154l-4 1q-4 0 -11 -1t-15 -2.5t-16.5 -5t-15 -9t-11 -14.5t-4.5 -20q0 -43 -41 -51h-216q-49 6 -49 51q0 18 -8 29.5t-19.5 15.5t-22.5 6t-19 1l-8 -1
h-154q-21 0 -36 -15t-15 -36v-921q0 -21 15 -36t36 -15h512h51h26l230 230v26v51v665q0 14 -7 25.5t-18.5 18.5t-25.5 7zM691 -77v179q0 11 7.5 18.5t18.5 7.5h179zM896 179h-205q-21 0 -36 -15t-15 -36v-205h-486q-11 0 -18.5 7.5t-7.5 18.5v869q0 6 2 10.5t5.5 8t8.5 5.5
t10 2h123q30 -10 30 -51q1 -25 20 -38t38 -13h19h256h8q5 0 18.5 3.5t23.5 9t18.5 17.5t8.5 28q0 20 10.5 30.5t27.5 13.5h115q11 0 18.5 -7.5t7.5 -18.5v-639z" />
    <glyph glyph-name="uniE606" unicode="&#xe606;" 
d="M71 336v1l-1 6q0 7 -0.5 13.5t-1 13.5t-0.5 14q0 90 35.5 172t95 141.5t141.5 95t172 35.5q72 0 140 -23t123 -64t95 -97h-149h-2h-3q-9 0 -17 -4.5t-12.5 -12.5t-4.5 -17q0 -14 10 -24.5t24 -10.5q2 0 4 1h1h191v-1l74 1h1q-4 10 -9 21t-9.5 20t-10 18.5t-10 17t-9.5 14
t-8.5 11.5t-6.5 8.5t-4 5.5l-2 2q-35 46 -79.5 83.5t-96 63.5t-110.5 40.5t-120 14.5q-69 0 -135.5 -18.5t-122.5 -51.5t-103.5 -80.5t-80.5 -103.5t-51.5 -122t-18.5 -136q0 -22 2 -45v-3q0 -9 4.5 -17t12.5 -12.5t18 -4.5q14 0 24 10t10 24zM1023 403h-1q0 14 -10 23.5
t-24 9.5t-24 -10t-10 -24l1 -11q1 -3 1 -7q0 -90 -35.5 -172t-95 -141.5t-141.5 -95t-172 -35.5q-102 0 -191 43.5t-152 119.5h145h4h4h2v1q12 2 20 11.5t8 22.5q0 6 -2 12t-6 10t-9 7.5t-11 4.5h-2h-4h-2h-2h-195h-69q1 -5 4.5 -14t20.5 -39t44 -61q48 -57 108.5 -98.5
t133.5 -64.5t151 -23q104 0 199 40.5t163.5 109t109 163.5t40.5 199v6q0 4 -0.5 7.5t-0.5 5.5z" />
    <glyph glyph-name="uniE607" unicode="&#xe607;" 
d="M303 396q-17 0 -32.5 6.5t-26.5 18t-18 27t-7 32.5q0 14 4.5 26.5t12 23t18 18.5t23.5 12t26 4q17 0 32.5 -6.5t27 -18t18 -27t6.5 -32.5q0 -23 -11 -42.5t-30.5 -30.5t-42.5 -11zM303 522q-17 0 -29.5 -12t-12.5 -30q0 -5 1 -9.5t3 -9t5 -8t7 -6.5t8 -5t8.5 -3t9.5 -1
q18 0 30 12.5t12 30t-12 29.5t-30 12zM511 396q-23 0 -42.5 11t-30.5 30.5t-11 42.5t11 42.5t30.5 30.5t42.5 11q35 0 59.5 -24.5t24.5 -59.5t-24.5 -59.5t-59.5 -24.5zM511 522q-12 0 -21.5 -5.5t-15 -15t-5.5 -21t5.5 -21.5t15 -15.5t21.5 -5.5q8 0 16 3t13.5 9t9 13.5
t3.5 16.5q0 5 -1 10t-3 9t-5 7.5t-6.5 6.5t-8 5t-9 3t-9.5 1zM720 396q-23 0 -42.5 11t-30.5 30.5t-11 42.5q0 9 1.5 17t5 15.5t8 14.5t10 12.5t12.5 10t14.5 8t15.5 5t17 1.5q34 0 59 -24.5t25 -59.5t-25 -59.5t-59 -24.5zM720 522q-7 0 -13.5 -2t-11.5 -6t-9 -9t-6 -11.5
t-2 -13.5q0 -17 12 -29.5t30 -12.5q11 0 21 5.5t15.5 15.5t5.5 21.5t-5.5 21t-15.5 15t-21 5.5zM1013 -98l-227 230h-677q-41 0 -69.5 28.5t-28.5 69.5v537q0 41 28.5 70t69.5 29h806q16 0 31 -5t27 -14t21 -21.5t14 -27.5t5 -31v-865zM915 824h-806q-11 0 -21.5 -4.5
t-18 -12t-12 -18t-4.5 -22.5v-537q0 -23 16.5 -39.5t39.5 -16.5h694l168 -170v763q0 24 -16.5 40.5t-39.5 16.5z" />
    <glyph glyph-name="uniE608" unicode="&#xe608;" 
d="M537 195q-37 -6 -73 4.5t-63.5 32.5t-47 55t-24.5 71q-10 79 36.5 142t122 73.5t136 -37.5t71 -126.5t-36 -141.5t-121.5 -73v0zM672 407q-9 68 -62.5 110t-119.5 32.5t-106.5 -64.5t-31.5 -123.5t62.5 -110.5t119.5 -32.5t106.5 64.5t31.5 124v0zM526 313l2 -17
q-1 -5 -5 -7q-6 -1 -6 5l-3 17q-33 -3 -50 21q-1 3 -1 4q-1 8 6 9q4 -1 6 -3q16 -20 42 -16q38 5 34 35q-2 14 -16 20.5t-30 7.5t-30.5 10t-16.5 27q-1 10 2 18.5t11.5 15.5t21.5 10l-2 18q-1 6 5 6q5 0 7 -5l2 -17q28 2 45 -17v-2l2 -3q1 -7 -7 -8q-3 0 -6 2q-16 16 -38 13
q-16 -2 -23 -10t-5 -19q1 -10 10.5 -15.5t22.5 -8t25.5 -5.5t22.5 -12t12 -24q2 -13 -2.5 -23.5t-14 -17t-23.5 -9.5v0zM863 685l67 10l39 -297zM911 667l-16 -2l24 -65zM93 73l-38 297l106 -287zM113 101l16 2l-24 65zM472 127l507 202l16 -128zM959 296l-292 -117l302 42z
M45 439l-16 128l523 74zM65 472l292 117l-302 -42zM174 -18l-40 107l22 8l31 -84l378 151l8 -23zM90 273l-21 -8l-68 182l50 20l8 -23l-28 -11zM973 301l-8 23l28 11l-59 160l21 8l68 -182zM868 671l-31 84l-378 -151l-8 22l399 160l40 -107zM934 495l-66 176l22 8l65 -176z
M573 141l-8 23l400 160l8 -23zM134 89l-65 176l21 8l66 -176zM59 444l-8 23l400 159l8 -22z" />
    <glyph glyph-name="uniE609" unicode="&#xe609;" 
d="M704 557h63v63v192h-63v-192h-384v192h-63v-192v-63h63h384zM471 87l169 151v63h-160l118 106l-45 45l-169 -151v0v-63h160l-118 -106zM831 620v-63q53 0 90.5 -37.5t37.5 -90.5v-191l-17 -38q-64 -119 -208 -176q-110 -44 -254 -44q-275 0 -375 151q-37 56 -40 107v191
q0 53 37.5 90.5t90.5 37.5v63q-31 0 -60.5 -9.5t-53 -27t-41 -41t-27.5 -53t-10 -60.5v-191q0 -28 7 -56.5t23.5 -60.5t41 -61t63 -55t87 -45.5t115.5 -31t144 -11.5h12q19 -34 19 -64q0 -16 -16 -31.5t-33 -22.5l-16 -8h64q7 3 17.5 8.5t28.5 21.5t18 32q0 31 -20 67
q93 7 172 31t132 57.5t91 74t55 79.5t17 76v191q0 89 -69 147q-54 44 -123 44z" />
    <glyph glyph-name="uniE60A" unicode="&#xe60a;" 
d="M973 374l-371 371q-13 14 -32.5 18t-39.5 -1.5t-35 -20.5l-81 -81l-1 1v1l-34 33q-7 7 -17 7t-17 -7l-120 -120q-7 -7 -7 -17q0 -5 1.5 -9.5t5.5 -7.5l231 -232l-10 -10l-12 12q-14 14 -35 19.5t-41.5 0t-35.5 -19.5l-4 -5q-14 -22 -20 -40l-244 -208q-24 -23 -24 -56
t24 -56l77 -77q23 -24 56 -24q11 0 21 3t19.5 8.5t18.5 14.5l199 245q19 4 43 19q1 1 2.5 2t2.5 2q24 24 24 56q0 16 -6 31t-18 26l-13 13l27 27q2 2 3 3.5t2 3.5t1.5 4t0.5 4v4q0 2 -0.5 4t-1.5 4l-2 4q-1 2 -3 3l-231 232l86 86l17 -16h1l1 -1l-12 -12q-23 -23 -24 -54.5
t20 -52.5l371 -371q4 -4 8.5 -7.5t9.5 -5.5l10 -4q5 -2 10.5 -3t11.5 -1q33 0 57 25l126 126q11 11 17.5 24.5t7.5 27.5q0 11 -2 20.5t-7 18.5t-12 16zM450 187q-7 -4 -18 -9q-8 1 -15.5 -2t-13.5 -10l-205 -252q-6 -6 -11 -6t-11 6l-77 77q-5 5 -5 11t3 9l252 213
q12 10 11 24q1 5 9 19q6 4 10.5 4t9.5 -6l59 -59q2 -1 3 -3.5t1.5 -4t0.5 -3.5q0 -1 -0.5 -3.5t-2.5 -4.5zM924 312l-126 -126q-6 -6 -12 -6l-376 373q-6 6 4 17l126 126q3 2 5.5 3t6.5 1h2h3l371 -371q3 -4 1.5 -8.5t-5.5 -8.5z" />
    <glyph glyph-name="uniE60B" unicode="&#xe60b;" 
d="M682 258h7l146 124l-3 18l-286 286l-143 -145zM355 591l147 139l-104 105l-43 2l-106 -106l7 -40zM879 187l32 -11l-13 47l-42 100l-101 -83zM870 116h-721q-8 0 -15.5 -3.5t-13 -8.5t-8.5 -12.5t-3 -15.5q0 -17 12 -28.5t28 -11.5h721q11 0 20.5 5t14.5 14.5t5 20.5
q0 8 -3 15.5t-8.5 12.5t-12.5 8.5t-16 3.5zM149 216h401q16 0 28 11.5t12 28.5q0 8 -3.5 15.5t-8.5 13t-12.5 8.5t-15.5 3h-401q-3 0 -6 -0.5t-6 -1.5t-6 -2.5t-5.5 -3t-4.5 -4.5l-4 -4q-2 -3 -3.5 -5.5t-2.5 -5.5t-1.5 -6.5t-0.5 -6.5q0 -17 12 -28.5t28 -11.5z" />
    <glyph glyph-name="uniE60C" unicode="&#xe60c;" 
d="M570 657q285 -295 435 -451q17 -17 19 -38.5t-10 -38t-29 -27t-38.5 -8t-38.5 20.5q-43 44 -178.5 184t-209.5 216l-1 -1l-1 -1l-1 -1l-1 -1l-1 -1l-1 -1l-1 -1l-1 -1l-1 -1l-1 -1l-1 -1l-1 -1l-1 -1l-1 -1l-1 -1l-1 -1l-1 -1l-1 -1l-1 -1l-1 -1l-1 -1l-1 -1l-1 -1l-1 -1
l-1 -1l-1 -1v-1l-1 -1l-1 -1l-1 -1l-1 -1l-1 -1l-1 -1l-1 -1l-1 -1l-1 -1l-1 -1l-1 -1l-1 -1l-1 -1l-1 -1l-1 -1l-1 -1l-1 -1l-1 -1l-1 -1l-1 -1l-1 -1l-1 -1l-1 -1l-1 -1l-1 -1l-1 -1l-1 -1l-1 -1l-1 -1l-1 -1l-1 -1l-1 -1l-1 -1l-1 -1l-1 -1l-1 -1l-1 -1l-1 -1l-1 -1
l-1 -1l-1 -1l-1 -1l-1 -1l-1 -1l-1 -1l-1 -1l-1 -1l-1 -1l-1 -1l-1 -1l-1 -1l-1 -1l-1 -1l-1 -1l-1 -1l-1 -1l-1 -1l-1 -1l-1 -1l-1 -1l-1 -1l-1 -1l-1 -1l-1 -1l-1 -1l-1 -1l-1 -1l-1 -1l-1 -1l-1 -1l-1 -1l-1 -1l-1 -1l-1 -1l-1 -1l-1 -1l-1 -1l-1 -1l-1 -1l-1 -1l-1 -1
l-1 -1l-1 -1l-1 -1l-1 -1l-1 -1l-1 -1l-1 -1l-1 -1l-1 -1l-1 -1l-1 -1l-1 -1l-1 -1l-1 -1l-1 -1l-1 -1l-1 -1l-1 -1l-1 -1l-1 -1l-1 -1l-1 -1l-1 -1l-1 -1l-1 -1l-1 -1l-1 -1l-1 -1l-1 -1l-1 -1l-1 -1l-1 -1l-1 -1l-1 -1l-1 -1l-1 -1l-1 -1l-1 -1l-1 -1l-1 -1l-1 -1l-1 -1
l-1 -1l-1 -1l-1 -1l-1 -1l-1 -1l-1 -1l-1 -1l-1 -1l-1 -1l-1 -1l-1 -1l-1 -1l-1 -1l-1 -1l-1 -1l-1 -1l-1 -1l-1 -1l-1 -1l-1 -1l-1 -1l-1 -1l-1 -1l-1 -1l-1 -1l-1 -1l-1 -1l-1 -1l-1 -1l-1 -1l-1 -1l-1 -1l-1 -1l-1 -1l-1 -1l-1 -1l-1 -1l-1 -1l-1 -1l-1 -1l-1 -1l-1 -1
l-1 -1l-1 -1l-1 -1l-1 -1l-1 -1l-1 -1l-1 -1l-1 -1l-1 -1l-1 -1l-1 -1l-1 -1l-1 -1l-1 -1l-1 -1l-1 -1l-1 -1l-1 -1l-1 -1l-1 -1l-1 -1l-1 -1l-1 -1l-1 -1l-1 -1l-1 -1l-1 -1l-1 -1l-1 -1l-1 -1l-1 -1l-1 -1l-1 -1l-1 -1l-1 -1l-1 -1l-1 -1l-1 -1l-1 -1l-1 -1l-1 -1l-1 -1
l-1 -1l-1 -1l-1 -1l-1 -1l-1 -1l-1 -1l-1 -1l-1 -1l-1 -1l-1 -1l-1 -1l-1 -1l-1 -1l-1 -1l-1 -1l-1 -1l-1 -1l-1 -1l-1 -1l-1 -1l-1 -1l-1 -1l-1 -1l-1 -1l-1 -1l-1 -1l-1 -1l-1 -1l-1 -1l-1 -1l-1 -1l-1 -1l-1 -1l-1 -1l-1 -1l-1 -1l-1 -1l-1 -1l-1 -1l-1 -1l-1 -1l-1 -1
l-1 -1l-1 -1l-1 -1l-1 -1l-1 -1l-1 -1l-1 -1l-1 -1l-1 -1l-1 -1l-1 -1l-1 -1l-1 -1l-1 -1l-1 -1l-1 -1l-1 -1l-1 -1l-1 -1l-1 -1l-1 -1l-1 -1l-1 -1l-1 -1l-1 -1l-1 -1l-1 -1l-1 -1l-1 -1l-1 -1l-1 -1l-1 -1l-1 -1l-1 -1l-1 -1v-1l-1 -1l-1 -1l-1 -1l-1 -1l-1 -1l-1 -1
l-1 -1l-1 -1l-1 -1l-1 -1l-1 -1l-1 -1l-1 -1l-1 -1l-1 -1l-1 -1l-1 -1l-1 -1l-1 -1l-1 -1l-1 -1l-1 -1l-1 -1l-1 -1l-1 -1l-1 -1l-1 -1l-1 -1l-1 -1l-1 -1l-1 -1l-1 -1l-1 -1l-1 -1l-1 -1l-1 -1l-1 -1l-1 -1l-1 -1l-1 -1l-1 -1l-1 -1l-1 -1l-1 -1l-1 -1l-1 -1l-1 -1l-1 -1
l-1 -1l-1 -1l-1 -1l-1 -1l-1 -1l-1 -1l-1 -1l-1 -1l-1 -1l-1 -1l-1 -1l-1 -1l-1 -1l-1 -1l-1 -1l-1 -1l-1 -1l-1 -1l-1 -1l-1 -1l-1 -1l-1 -1l-1 -1l-1 -1l-1 -1l-1 -1l-1 -1l-1 -1l-1 -1l-1 -1l-1 -1l-1 -1l-1 -1l-1 -1l-1 -1l-1 -1l-1 -1l-1 -1l-1 -1l-1 -1l-1 -1l-2 -1
q-35 -36 -78 -12q-36 20 -38 57q-1 26 19 47q146 146 450 452q6 5 12.5 9t14 6.5t15 3t15.5 0t15 -3t14 -6.5t12 -9z" />
    <glyph glyph-name="uniE60D" unicode="&#xe60d;" 
d="M163 607q-31 0 -44.5 -31t9.5 -54l349 -350q15 -15 35 -15t35 15l349 350q9 8 12.5 20t1 23t-9 20.5t-17 15.5t-22.5 6h-698zM960 37z" />
    <glyph glyph-name="uniE60E" unicode="&#xe60e;" 
d="M913 869h-27q-17 0 -29.5 -12.5t-12.5 -29.5v-363q-12 10 -19 15l-609 393q-61 39 -104 15.5t-43 -95.5v-816q0 -72 43 -95.5t104 15.5l609 394q6 4 19 14v-363q0 -17 12.5 -29.5t29.5 -12.5h27q8 0 16 3.5t13.5 9t9 13t3.5 16.5v886q0 17 -12.5 29.5t-29.5 12.5z" />
    <glyph glyph-name="uniE60F" unicode="&#xe60f;" 
d="M111 -101h27q4 0 8.5 1t8 2.5t7 4t6 5t5 6t4 7t2.5 8t1 8.5v363l1 -1q11 -9 18 -14l609 -393q61 -39 104 -15.5t43 95.5v816q0 72 -43 95.5t-104 -15.5l-609 -394q-7 -4 -19 -14v363q0 17 -12.5 29.5t-29.5 12.5h-27q-17 0 -29.5 -12.5t-12.5 -29.5v-886
q0 -17 12.5 -29.5t29.5 -12.5z" />
    <glyph glyph-name="uniE610" unicode="&#xe610;" 
d="M1023 494v315l-398 -67v-61h-244q-24 0 -52 13t-51.5 31.5t-43 37.5t-30.5 32l-11 13l-64 -64q5 -4 14 -11t36 -25.5t52 -33.5q-71 -45 -102 -80q-66 -75 -64 -222v-40v-98v-114v-98v-41h64v392q-2 122 48 179q12 14 35.5 32t43.5 31t40 24q49 -22 81 -22h109v-27
l-190 -104q-18 -7 -29 -23t-11 -36v-572q0 -27 19 -47t45 -20h387q17 0 32 9.5t23.5 25t8.5 32.5v572q0 37 -33 55v1l-190 105v29h77v-56zM707 46h-133v190h133v-190zM707 300h-197v-318h197v-127h-387v512v60v-1l195 108l192 -107v-127zM689 688l270 45v-163l-270 45v73z
" />
    <glyph glyph-name="uniE611" unicode="&#xe611;" 
d="M768 768h-512l-256 -448l256 -448h512l256 448zM731 -64h-438l-219 384l219 384h438l219 -384zM512 512q-80 0 -136 -56t-56 -136t56 -136t136 -56t136 56t56 136q0 20 -4 39t-11 36t-17.5 32.5t-23.5 28.5t-28.5 23.5t-32.5 17.5t-36 11t-39 4zM512 192
q-53 0 -90.5 37.5t-37.5 90.5t37.5 90.5t90.5 37.5t90.5 -37.5t37.5 -90.5q0 -26 -10 -49.5t-27.5 -41t-41 -27.5t-49.5 -10z" />
    <glyph glyph-name="uniE612" unicode="&#xe612;" 
d="M992 448h-32l-103 288q0 9 -5 16t-12.5 11.5t-17.5 4.5h-54l-85 96q0 4 -1.5 7.5t-3.5 6.5t-5 6t-6.5 5t-7.5 3.5t-9 2.5t-10 1h-256q-12 0 -21.5 -4.5t-15.5 -11.5t-6 -16l-85 -96h-54q-14 0 -24.5 -9.5t-10.5 -22.5l-103 -288h-32q-13 0 -22.5 -9.5t-9.5 -22.5
t9.5 -22.5t22.5 -9.5h66h46l48 -64v-192q0 -107 91.5 -181.5t228.5 -74.5q68 0 127.5 20t101.5 54.5t66.5 82t24.5 99.5v192l48 64h46h66q13 0 22.5 9.5t9.5 22.5q0 6 -2.5 12t-7 10.5t-10.5 7t-12 2.5zM389 821q4 5 8 11h230q4 -6 8 -11l47 -53h-340zM224 704h75h426h75
l92 -256h-760zM512 -64q-108 0 -182 55.5t-74 136.5v128h512v-128q0 -32 -12.5 -61.5t-36 -53t-55 -41t-71 -27t-81.5 -9.5zM781 358q-6 -8 -9.5 -18t-3.5 -20h-512q0 21 -13 38l-19 26h576z" />
    <glyph glyph-name="uniE613" unicode="&#xe613;" 
d="M958 320v160q0 13 -10 22.5t-24 9.5h-94v347q0 10 -4 18.5t-11.5 13.5t-16.5 5q-13 0 -22.5 -11t-9.5 -26v-347h-448v347q0 15 -9.5 26t-22.5 11t-22.5 -11t-9.5 -26v-347h-93q-5 0 -9.5 -1t-8 -3t-7 -5t-5.5 -6.5t-3.5 -8t-1.5 -8.5v-160q70 -38 70 -128t-70 -128v-160
q0 -13 10.5 -22.5t24.5 -9.5h763q9 0 17 4.5t12.5 11.5t4.5 16v160q-33 18 -51 48.5t-18 79.5q0 90 69 128zM222 320h640q-18 -26 -27.5 -58t-9.5 -70q0 -77 37 -128h-640q38 51 38 128q0 38 -9.5 70t-28.5 58zM894 -64h-704v64h704v-64zM894 384h-704v64h704v-64z" />
    <glyph glyph-name="uniE614" unicode="&#xe614;" 
d="M927 681q-5 10 -16 13.5t-22 -2.5q-3 -1 -5 -3l-2 -2l-2 -2l-143 -143l-66 67l143 143q1 1 2.5 3t2.5 3q0 1 1 2v1q3 5 3.5 11t-1 11t-5 9t-8.5 7q-20 10 -41.5 17t-43.5 10.5t-44 3.5q-116 0 -198 -81.5t-82 -197.5q0 -20 3 -39.5t8 -37.5l-146 -146h-2h-2
q-81 0 -138.5 -57.5t-57.5 -138.5q0 -53 26.5 -98t71.5 -71t98 -26q81 0 138 57t57 138v5l146 146q9 -3 18.5 -5t19.5 -3.5t20 -2t20 -0.5q115 0 197 82t82 197q0 14 -1.5 27.5t-4 26.5t-6.5 26t-9 25.5t-11 24.5zM416 172l-19 -5q3 -11 4.5 -20t1.5 -17q0 -60 -42.5 -102.5
t-102.5 -42.5q-39 0 -72.5 19.5t-53 52.5t-19.5 73q0 60 42.5 102t102.5 42q16 0 37 -5l5 18l133 133q41 -75 115 -116zM680 321q-96 0 -163.5 67.5t-67.5 162.5q0 63 31 116t84 84t116 31q35 0 69 -11l-140 -140q-8 -9 -8 -21q0 -5 2 -10.5t6 -9.5l109 -109q9 -9 21 -9
t20 9l140 140q6 -17 8.5 -34.5t2.5 -35.5q0 -95 -67.5 -162.5t-162.5 -67.5zM261 216q-35 0 -59.5 -24.5t-24.5 -59t24.5 -59t59 -24.5t59 24.5t24.5 59t-24.5 59t-58.5 24.5zM261 94q-16 0 -27 11.5t-11 27t11 26.5t27 11q10 0 18.5 -5t14 -13.5t5.5 -19t-5.5 -19.5
t-14 -14t-18.5 -5zM261 104z" />
    <glyph glyph-name="uniE615" unicode="&#xe615;" horiz-adv-x="1025" 
d="M672 384q-9 0 -16 -4.5t-11.5 -11.5t-4.5 -16q0 -13 9.5 -22.5t22.5 -9.5t22.5 9.5t9.5 22.5t-9.5 22.5t-22.5 9.5zM992 256h-64q0 3 -0.5 6t-1.5 5l-128 336q-8 21 -30 21h-128q-12 0 -21 -8l-38 -33l-108 140q-13 18 -34 12l-256 -75q-6 -2 -10.5 -5.5t-8 -8.5
t-4.5 -11l-64 -374v-3l1 -2h-65q-4 0 -8.5 -1t-8 -3t-6.5 -5t-5 -6.5t-3 -8t-1 -8.5q0 -13 9.5 -22.5t22.5 -9.5h51l77 -171q0 -8 9.5 -14.5t22.5 -6.5h6q-6 -17 -6 -32q0 -40 28 -68t68 -28t68 28t28 68q0 15 -6 32h268q-6 -17 -6 -32q0 -40 28 -68t68 -28t68 28t28 68
q0 15 -6 32h6q13 0 22.5 6.5t9.5 14.5l77 171h51q13 0 22.5 9.5t9.5 22.5q0 9 -4.5 16t-11.5 11.5t-16 4.5zM220 604l216 63l115 -150q8 -11 22 -13q14 -1 24 8l55 48h94l116 -304h-702zM320 -32q0 -13 -9.5 -22.5t-22.5 -9.5q-9 0 -16 4.5t-11.5 11.5t-4.5 16
q0 13 9.5 22.5t22.5 9.5t22.5 -9.5t9.5 -22.5zM768 -32q0 -9 -4.5 -16t-11.5 -11.5t-16 -4.5t-16 4.5t-11.5 11.5t-4.5 16q0 13 9.5 22.5t22.5 9.5t22.5 -9.5t9.5 -22.5zM813 64h-602l-58 128h718zM407 471q-7 6 -15 8t-16 0t-15 -8l-64 -64q-9 -10 -9 -23t9.5 -22.5
t22.5 -9.5t23 9l41 42l41 -42q5 -4 11 -6.5t12 -2.5q13 0 22.5 9.5t9.5 22.5t-9 23z" />
    <glyph glyph-name="uniE616" unicode="&#xe616;" 
d="M512 787q-95 0 -182 -37.5t-150 -100t-100 -149.5t-37 -183q0 -97 37 -184l1 -1v-1l1 -1v-1l1 -2v-1l1 -1v-1l1 -1v-1l1 -1l1 -2v-1l1 -1v-1l1 -1v-1l1 -1v-2l1 -1v-1l1 -1l1 -1v-1l1 -1v-1l1 -1v-2l1 -1l1 -1v-1l1 -1v-1l1 -1l1 -1v-2l1 -1v-1l1 -1l1 -1v-1l1 -1l1 -1
v-1l1 -2l1 -1v-1l1 -1v-1l1 -1l1 -1v-1l1 -1l1 -1v-2l1 -1l1 -1l1 -1v-1l1 -1l1 -1v-1l1 -1l1 -1v-1l1 -2l1 -1l1 -1v-1l1 -1l1 -1v-1l1 -1l1 -1l1 -1v-1l1 -1l1 -1l1 -2l1 -1v-1l1 -1l1 -1l1 -1v-1l1 -1l1 -1l1 -1l1 -1v-1l1 -1l1 -1l1 -1l1 -1v-2l1 -1l1 -1l1 -1l1 -1
l1 -1l1 -1v-1l1 -1l1 -1l1 -1l1 -1l1 -1l1 -1v-1l1 -1l1 -1l1 -1l1 -1l1 -1l1 -1l1 -1l1 -1l1 -1l1 -1v-2l1 -1l1 -1l1 -1l1 -1l1 -1l1 -1l1 -1l1 -1l1 -1l1 -1l1 -1l10 -10h654q67 65 104.5 152t37.5 184q0 96 -37 183t-100 150t-150 100t-182 37zM811 48h-598
q-103 115 -103 270q0 108 54 201t146.5 147t201.5 54q36 0 70.5 -6t67.5 -18t64 -30q23 -14 43.5 -29.5t39 -34t34.5 -39.5t29 -44q54 -93 54 -201q0 -155 -103 -270v0zM229 336l-85 16l9 47l85 -16zM787 383l84 16l9 -47l-85 -16zM311 519l-56 66l37 30l55 -66zM713 519
l-37 30l56 66l37 -30zM488 686h48v-86h-48v86zM514 315l-144 162l80 -197q-21 -38 1 -75q16 -25 45.5 -31.5t54.5 9.5t32 45t-9 54q-21 32 -60 33z" />
    <glyph glyph-name="uniE617" unicode="&#xe617;" horiz-adv-x="1000" 
d="M595 81l275 275q10 10 14 24.5t0 28.5t-14 24l-275 275q-16 16 -38.5 16t-39 -16t-16.5 -39t17 -39l180 -181h-526q-23 0 -39 -16t-16 -38.5t16 -38.5t39 -16h526l-180 -181q-17 -16 -17 -39t16.5 -39t39 -16t38.5 16z" />
    <glyph glyph-name="uniE618" unicode="&#xe618;" 
d="M912 92l-496 489l96 95l495 -489zM112 92l-95 95l478 471l95 -94z" />
    <glyph glyph-name="uniE619" unicode="&#xe619;" 
d="M220 -16l489 496l95 -96l-489 -495zM220 784l95 95l471 -478l-94 -95z" />
    <glyph glyph-name="uniE61A" unicode="&#xe61a;" 
d="M112 676l496 -489l-96 -95l-495 489zM912 676l95 -95l-478 -471l-95 94z" />
    <glyph glyph-name="uniE61B" unicode="&#xe61b;" 
d="M804 784l-489 -496l-95 96l489 495zM804 -16l-95 -95l-471 478l94 95z" />
    <glyph glyph-name="uniE61C" unicode="&#xe61c;" 
d="M294 890l-60 -62l435 -443l-432 -445l60 -62l433 445l60 62z" />
    <glyph glyph-name="uniE61D" unicode="&#xe61d;" 
d="M730 -122l60 62l-435 443l432 445l-60 62l-433 -445l-60 -62z" />
    <glyph glyph-name="uniE61E" unicode="&#xe61e;" 
d="M225 528l271 -273l271 273l-49 49l-222 -224l-222 224zM225 528z" />
    <glyph glyph-name="uniE61F" unicode="&#xe61f;" 
d="M711 -57h-489q-38 0 -67 11.5t-47.5 37.5t-18.5 63v527q0 57 39 96.5t94 39.5h34h168h83q26 0 26 -23t-22 -23h-89h-155h-45q-28 0 -48.5 -12.5t-30.5 -33t-10 -45.5v-524q0 -29 26 -49t63 -20l499 -4q29 0 54 22.5t25 50.5v68v251v46q0 22 22 22q18 0 18 -29v-29v-265
l4 -64q0 -80 -75 -105q-27 -9 -58 -9zM911 650l-79 -91l-393 -434h-8l-2 1l-166 -62l-38 36l51 184l1 2v10l411 415l67 75q61 64 112 23l44 -45q24 -26 24 -57.5t-24 -56.5zM267 102l133 46l-89 91zM333 285l89 -91l378 387l-89 91zM884 722l-41 44q-2 2 -4 3.5t-4.5 2.5
t-5 1.5t-5.5 0.5q-12 0 -20 -8l-54 -58l79 -84l55 57q8 9 8 21t-8 20z" />
    <glyph glyph-name="uniE620" unicode="&#xe620;" horiz-adv-x="1366" 
d="M444 -178v103h921v-103h-921zM444 334h921v-102h-921v102zM444 744h921v-103h-921v103zM102.5 -212q-27.5 0 -51.5 13.5t-37.5 37.5t-13.5 51q0 43 30 73t72.5 30t72.5 -30t30 -73q0 -27 -14 -51t-37.5 -37.5t-51 -13.5zM102.5 198q-27.5 0 -51.5 13.5t-37.5 37
t-13.5 51.5q0 42 30 72t72 30q28 0 51.5 -13.5t37.5 -37t14 -51.5t-14 -51.5t-37.5 -37t-51 -13.5zM102.5 607q-42.5 0 -72.5 30t-30 72.5t30 72.5t72 30q21 0 40 -8t33 -22t22 -33t8 -39q0 -43 -30 -73t-72.5 -30z" />
    <glyph glyph-name="uniE621" unicode="&#xe621;" horiz-adv-x="2579" 
d="M255 330l-255 452h2579v-910h-2579zM2465 896l114 -114h-114v114z" />
    <glyph glyph-name="uniE622" unicode="&#xe622;" 
d="M961 -104l-272 272q86 100 86 231q0 72 -28.5 138t-76 113.5t-113 76t-138 28.5t-138 -28.5t-113.5 -76t-76 -113.5t-28 -138q0 -96 47.5 -178t129.5 -129.5t178 -47.5q115 0 208 67l275 -274zM106 399q0 130 92 222t221.5 92t221.5 -92t92 -222q0 -42 -11.5 -83
t-31.5 -75t-49 -63t-63.5 -49.5t-75 -31.5t-83.5 -11q-28 0 -56 5t-53 14.5t-48.5 23t-44 31t-38 38t-31 44t-23 48.5t-14.5 53t-5 56z" />
    <glyph glyph-name="uniE623" unicode="&#xe623;" 
d="M371 314v563h282v-563h-282zM512 -109l-422 423h844z" />
    <glyph glyph-name="uniE624" unicode="&#xe624;" 
d="M653 454v-563h-282v563h282zM512 877l422 -423h-844z" />
    <glyph glyph-name="uniE625" unicode="&#xe625;" 
d="M387 42l-376 355l102 101l376 -356zM387 37l-103 101l627 593l102 -101z" />
    <glyph glyph-name="uniE626" unicode="&#xe626;" 
d="M992 172h-192q-13 0 -22.5 9.5t-9.5 22.5q0 7 2.5 12.5t7 10t10 7t12.5 2.5h192q9 0 16 -4.5t11.5 -11.5t4.5 -16q0 -13 -9.5 -22.5t-22.5 -9.5zM992 364h-256q-13 0 -22.5 9.5t-9.5 22.5q0 9 4.5 16t11.5 11.5t16 4.5h256q7 0 12.5 -2.5t10 -7t7 -10.5t2.5 -12
q0 -9 -4.5 -16t-11.5 -11.5t-16 -4.5zM992 556h-256q-9 0 -16 4.5t-11.5 11.5t-4.5 16q0 5 1.5 10t4.5 9t7 7t9 4.5t10 1.5h256q13 0 22.5 -9.5t9.5 -22.5q0 -9 -4.5 -16t-11.5 -11.5t-16 -4.5zM704 108v-128q0 -80 -56 -136t-136 -56h-320q-80 0 -136 56t-56 136v128
q0 62 36 111.5t94 69.5q-66 88 -66 203q0 65 23 124.5t61.5 102t91.5 68t112 25.5q78 0 144.5 -43t105 -116.5t38.5 -160.5q0 -115 -66 -203q58 -20 94 -69.5t36 -111.5zM576 492q0 106 -65.5 181t-158.5 75t-158.5 -75t-65.5 -181t65.5 -181t158.5 -75q61 0 112.5 34
t81.5 93t30 129zM640 92q0 33 -15.5 62.5t-43 49.5t-62.5 28q-75 -60 -167 -60t-167 60q-53 -12 -87 -51t-34 -89v-96q0 -60 46 -102t111 -42h262q65 0 111 42t46 102v96zM800 44h192q13 0 22.5 -9.5t9.5 -22.5t-9.5 -22.5t-22.5 -9.5h-192q-9 0 -16 4.5t-11.5 11.5t-4.5 16
t4.5 16t11.5 11.5t16 4.5z" />
    <glyph glyph-name="uniE627" unicode="&#xe627;" 
d="M298.5 139q-61.5 0 -105.5 -43.5t-44 -105.5t44 -105.5t105.5 -43.5t105 43.5t43.5 105.5t-43.5 105.5t-105 43.5zM391 -29l-30 -52q-11 -19 -33 -19h-60q-22 0 -32 19l-30 52q-6 9 -6 19t6 19l30 52q10 19 32 19h60q22 0 33 -19l30 -52q5 -9 5 -19t-5 -19zM718 499
l-112 205q-8 15 -22 23.5t-31 8.5h-239q-34 0 -51 -29l-127 -207q-18 -30 0 -61l119 -206q8 -14 21.5 -22t29.5 -8h240q34 0 51 30l120 207q17 30 1 59zM427 264q-81 0 -138.5 57t-57.5 138q0 53 26.5 98t71.5 71t98 26t97.5 -26t71 -71t26.5 -98q0 -26 -7 -51.5t-20 -47
t-31 -39.5t-39 -30.5t-46.5 -19.5t-51.5 -7zM682 38q0 28 18 50t45 27v55q-50 -5 -84.5 -43t-34.5 -89.5t34.5 -89t84.5 -43.5v56q-42 8 -58 49q-5 14 -5 28zM775 171v-56q28 -5 46 -27t18 -50q0 -19 -8.5 -35.5t-23 -27.5t-32.5 -14v-56q51 6 85.5 43.5t34.5 89t-34.5 89.5
t-85.5 44z" />
    <glyph glyph-name="uniE628" unicode="&#xe628;" 
d="M681 -67h-616v683l119 139h377l120 -139v-683zM125 -16h496v616l-90 104h-316l-90 -104v-616zM373 524q-36 0 -61.5 25.5t-25.5 62t25.5 62t61.5 25.5t61.5 -25.5t25.5 -62.5q0 -11 -3 -22.5t-8.5 -21t-14 -18t-18 -14t-20.5 -8.5t-23 -3zM373 649q-15 0 -26 -11
t-11 -26.5t11 -26.5t26 -11t25.5 11t10.5 26q0 11 -4.5 19.5t-13 13.5t-18.5 5zM587 471l-157 -179h124v-40h-144v-54h144v-40h-144v-80h-74v80h-150v40h150v54h-150v40h128l-155 179h83q108 -133 132 -169h2q8 15 43 59l89 110h79zM708 10q-7 0 -13 2.5t-10.5 7t-6.5 10.5
q-1 4 -0.5 7t1.5 6.5t3 6t5 5t6.5 4t7.5 1.5l165 32l-164 599l-115 85l-103 -20q-8 -1 -16 1t-13.5 6.5t-6.5 11.5q-2 5 -1 10t4 9t8 7t11 5l133 26l154 -113l181 -665l-223 -43q-2 0 -4 -0.5t-3 -0.5z" />
    <glyph glyph-name="uniE629" unicode="&#xe629;" 
d="M512 896q-139 0 -257 -68.5t-186.5 -186.5t-68.5 -257t68.5 -257t186.5 -186.5t257 -68.5t257 68.5t186.5 186.5t68.5 257t-68.5 257t-186.5 186.5t-257 68.5zM512 70q-30 0 -51 21t-21 51t21 51t51 21q19 0 36 -10t26.5 -26.5t9.5 -35.5q0 -12 -3.5 -23t-10.5 -19.5
t-15.5 -15.5t-19.5 -10.5t-23 -3.5zM552 303q-5 -15 -16 -23.5t-24 -8.5q-6 0 -12.5 2.5t-12 7t-9.5 10.5t-6 12q-9 29 -27 132.5t-18 174.5q0 27 23 57t61 30t62 -30t24 -57q0 -72 -18 -174.5t-27 -132.5zM552 303z" />
    <glyph glyph-name="uniE62A" unicode="&#xe62a;" 
d="M960 384v10v1v10v1q-1 2 -1 5v5v1q0 3 -1 10v1q0 1 -0.5 4.5t-0.5 4.5v1v1l-2 9v2v4q0 1 -1 5v1q-1 2 -1.5 5t-0.5 4v2l-2 9q-1 1 -1 2t-1 5l-1 3v3q-2 6 -2 7q-1 2 -1 3t-1 3.5t-1 3.5l-1 4l-2 6q0 1 -0.5 2.5t-1.5 2.5q-1 3 -1 5q-1 3 -2 5q-1 1 -1.5 2.5t-0.5 2.5
l-2 5q-1 4 -2 5q0 1 -0.5 1.5t-0.5 1.5l-1 2v1q-1 2 -1 3l-1 1q-2 5 -3 7l-1 2l-4 9v1q-2 3 -5 9q-32 63 -82 113q-43 42 -94 72l-10 5q-6 4 -9 5h-1l-3 1q-1 1 -2.5 2t-3.5 2v0l-10 4v1l-10 4v0q-1 0 -3 1t-3 1q-4 2 -14 6l-2 1q-2 0 -6 2h-2q-1 1 -3 1l-6 3q-1 0 -2.5 0.5
t-2.5 0.5q-3 1 -5 1q-1 1 -3 2h-2q-1 0 -3 0.5t-2.5 1t-2.5 0.5q-2 1 -3 1l-5 1q-1 0 -5 1q-1 0 -2.5 0.5t-2.5 0.5t-3 0.5t-3 0.5l-5 1q-1 1 -3 1q-1 0 -2 0.5t-3 0.5h-3l-1 1q-7 1 -14 1.5t-14 1.5t-14 1.5t-15 0.5h-14q-88 0 -169 -33q-3 -1 -5 -2h-1q-40 -17 -75.5 -41
t-66.5 -55q-15 -16 -29 -32.5t-26 -34.5q-4 -6 -5 -8l-1 -1q-1 -1 -2 -2.5t-1.5 -3t-1.5 -2.5l-1 -2q0 -1 -1 -2t-2 -2.5t-1 -2.5l-1 -2l-1 -1l-3 -6q-1 -1 -1 -1.5t-1 -1.5q0 -1 -2 -3q-1 -3 -1 -4l-2 -3l-3 -6q-1 -1 -2 -4q0 -1 -1 -3t-2 -3v-1l-1 -2q-2 -5 -3 -7l-1 -2
l-1 -2v-1l-1 -2q0 -1 -0.5 -1.5t-0.5 -1.5q-1 -1 -3 -6v-1q0 -1 -1 -2q0 -1 -1 -4t-2 -4v-1q-3 -7 -3 -9v-1q-1 -2 -4 -10l-2 -10l-1 -1q0 -2 -2 -9v-1q-1 -3 -2 -8q0 -1 -1 -2v-1q-1 -4 -2 -9v-1v-2q0 -1 -0.5 -2t-0.5 -2.5t-1 -3.5v-1q-1 -6 -1 -9q-1 -1 -1 -2q0 -6 -1 -9
v-1v-1q0 -2 -1 -9v-1q-1 -7 -1 -10v-1v-5q0 -3 -1 -5v-1v-4v-6v-4v-3v-4q0 -87 33 -168q31 -77 88 -138l1 -1l6 -6l2 -2l1 -1q0 -1 1 -1q59 -59 135 -93q79 -34 165 -37h1h1q41 -2 80 4q1 0 1 0.5t1 0.5h3q1 0 2 0.5l1 0.5h2q2 0 5 1v0q48 9 93 28q81 34 143 96t96 142
q29 68 34 142v4v3v3v1q1 2 1 5v5v1v3v3v4v0zM888 273q-3 -11 -7 -21.5t-8 -20.5t-9 -20t-10.5 -19.5t-11.5 -19t-13 -18.5q-9 -12 -19 -24t-21 -23q-34 -34 -75 -59h-2v-1q-4 -3 -6 -4h-1q-2 -1 -3 -2q-1 0 -2 -1l-1 -1q-11 -6 -22.5 -11t-22.5 -10l-46 -14q-10 -3 -20 -4
l-18 -4q-10 -1 -19.5 -2t-19 -1.5t-19.5 -0.5q-83 0 -158 33q-23 10 -43.5 22.5t-39.5 27t-36 32.5q-56 55 -85.5 126.5t-29.5 150t29.5 150.5t85.5 127q51 51 117 81q27 12 55.5 20t57.5 11q4 0 8 0.5t7.5 1t7.5 0.5t8 0.5t8 0.5h8q78 0 150 -30t127 -85q5 -5 10.5 -11
t10.5 -12q94 -109 94 -254q0 -19 -2 -38t-5.5 -37t-8.5 -36zM690.5 178q-11.5 0 -19.5 8l-357 357q-4 3 -6 7t-2.5 8t0 8.5t2.5 8.5t6 7q5 6 12.5 7.5t14.5 0t12 -7.5l357 -357q8 -8 8 -19.5t-8 -19.5t-19.5 -8zM333.5 177.5q-11.5 0.5 -19.5 8.5t-8 19.5t8 19.5l357 357
q4 4 9 6t10.5 2t10.5 -2t9 -6q8 -8 8 -19.5t-8 -19.5l-357 -357q-8 -9 -19.5 -8.5z" />
    <glyph glyph-name="uniE62B" unicode="&#xe62b;" 
d="M448 840h-364q-12 0 -20.5 -8.5t-8.5 -20.5v-364q0 -8 4 -14.5t10.5 -10.5t14.5 -4h364q7 0 14 4t11 10.5t4 14.5v364q0 7 -4 14t-11 11t-14 4zM399 497h-266v263h266v-263zM268 631zM214 631q0 15 7 27.5t19.5 19.5t27.5 7q22 0 38 -16t16 -38q0 -15 -7.5 -27.5
t-20 -19.5t-26.5 -7q-23 0 -38.5 15.5t-15.5 38.5zM940 840h-363q-12 0 -20.5 -8.5t-8.5 -20.5v-364q0 -8 4 -14.5t10.5 -10.5t14.5 -4h363q12 0 20.5 8.5t8.5 20.5v364q0 12 -8.5 20.5t-20.5 8.5zM892 497h-266v263h266v-263zM761 631zM706 631q0 15 7.5 27.5t20 19.5
t27.5 7q22 0 38 -16t16 -38.5t-16 -38t-38.5 -15.5t-38.5 15.5t-16 38.5zM450 348h-364q-12 0 -20.5 -8.5t-8.5 -20.5v-363q0 -6 2.5 -11.5t6 -9.5t9 -6t11.5 -2h364q7 0 14 3.5t11 10.5t4 15v363q0 12 -8.5 20.5t-20.5 8.5zM401 6h-266v263h266v-263zM270 139zM216 139.5
q0 22.5 15.5 38.5t38 16t38.5 -16t16 -39q0 -14 -7 -26.5t-19.5 -20t-27.5 -7.5q-23 0 -38.5 16t-15.5 38.5zM706 19h89v-92h-89v92zM880 -73h60q12 0 20.5 8.5t8.5 20.5v63h-89v-92zM940 348h-48v-161h-85v161h-232q-8 0 -14.5 -3.5t-10.5 -10.5t-4 -15v-363
q0 -12 8.5 -20.5t20.5 -8.5h50v92v85v60h81v-60h263v215q0 12 -8.5 20.5t-20.5 8.5z" />
    <glyph glyph-name="uniE62C" unicode="&#xe62c;" 
d="M866 489q-17 -22 -39 -7q-5 3 -8.5 14.5t-9 29t-13 37.5t-23.5 45t-39 47q-28 21 -52.5 34.5t-40.5 18.5t-29 7t-24 5t-19 9q-6 10 -6.5 19.5t1.5 14.5l3 4q7 7 20.5 10t34 0t44.5 -12t53.5 -28t58.5 -46q33 -34 54.5 -67t28 -56.5t8.5 -42t0 -27.5zM572 619q2 0 6 -0.5
t15 -3.5t21.5 -7.5t24.5 -14t26 -21t23.5 -30t18.5 -41.5q0 -1 0.5 -3.5t2.5 -8t5.5 -9.5t9.5 -7.5t14 -3.5q1 1 3.5 1.5t9.5 3t10 7.5t6 13.5t-2 20.5q-1 6 -4 17t-19 39.5t-41 49.5q-7 6 -19.5 15.5t-44.5 24t-56 11.5l-11 -5q-6 -5 -9 -11q-3 -5 -3.5 -11t1.5 -11.5
t5.5 -9.5t6.5 -5zM905 224l-133 90q-20 11 -39.5 13.5t-34 -1t-26 -8.5t-16.5 -10l-6 -5q-13 -9 -27 -10t-21 2l-8 3q-2 1 -5 3t-5 4l-6 4l-4 4t-4.5 4t-3.5 3.5t-2 2.5l-2 1q-1 2 -147 150q-12 20 -12 38.5t7 31.5l6 13q4 6 6 12t2 12l2 12q0 6 -0.5 10.5t-1 8t-0.5 5.5
l-1 2q-6 34 -19 65.5t-27 53.5t-27 39t-22 25l-8 8q-20 18 -43.5 19.5t-36.5 -6.5l-14 -7q-30 -16 -53.5 -37.5t-35.5 -38t-20 -34.5t-9 -24l-3 -10q0 -9 2 -22.5t5.5 -27t8 -27.5t9.5 -26t9 -21.5t6 -15t3 -5.5q3 -8 8 -18t10.5 -19t11.5 -19t12 -19t11.5 -17.5t10 -15
t8 -11.5t5.5 -8l2 -3q67 -94 247 -252l4 -4q49 -41 108.5 -74t95.5 -46l36 -12q65 -25 114 6q2 1 3 2q9 6 19 15.5t18.5 18.5t17 19t14.5 18.5t11 15t7 10.5l3 4q12 20 14.5 38t-3 30t-12.5 21t-13 13zM813 76q-7 -6 -15 -9t-17 -4.5t-18.5 -1t-19 2t-18 3.5t-15.5 4.5
t-12.5 4.5t-9.5 3l-3 1q-24 12 -50 28t-47 30.5t-38 27t-26 20.5l-10 7q-83 61 -149 131t-101.5 124t-59 102.5t-31 71t-7.5 26.5q-4 19 3.5 38t21.5 33t29 25t25 17l11 5q9 4 15.5 2.5t10.5 -5.5l4 -3q1 -1 6.5 -8.5t13 -19t16 -25t17 -26.5t15.5 -24t11 -17l5 -7
q15 -32 -26 -88q-9 -18 -10 -35t3 -25l3 -9q3 -5 8 -12l12 -16q5 -7 11 -13.5t9 -10.5l4 -4q13 -17 157 -155q55 -59 112 -28q9 5 9 6q20 14 34 20.5t17 6.5h4q5 -1 13 -4t16.5 -7t16 -8.5t11.5 -7.5l5 -3q38 -23 62 -41.5t29 -26.5l4 -7q4 -17 -11.5 -39t-32.5 -36z" />
    <glyph glyph-name="uniE62D" unicode="&#xe62d;" 
d="M449.5 520q-26.5 0 -44.5 -18.5t-18 -44.5t18 -44.5t44.5 -18.5t44.5 18.5t18 44.5t-18 44.5t-44.5 18.5zM449.5 425q-13.5 0 -22.5 9.5t-9 22.5t9 22.5t22.5 9.5t22.5 -9.5t9 -22.5t-9 -22.5t-22.5 -9.5zM701 520q-13 0 -24.5 -5t-20 -13.5t-13.5 -20t-5 -24.5
q0 -17 8.5 -31.5t23 -23t31.5 -8.5t31.5 8.5t23 23t8.5 31.5q0 26 -18.5 44.5t-44.5 18.5zM701 425q-6 0 -12 2.5t-10 7t-6.5 10t-2.5 12.5q0 13 9 22.5t22 9.5q7 0 12.5 -3t10 -7t7 -10t2.5 -12q0 -13 -9.5 -22.5t-22.5 -9.5zM352 169l-116 -62l38 115q-14 13 -26 27
l-71 -214l219 116q-23 8 -44 18zM549 780q-82 0 -157 -27.5t-129 -74t-86 -110.5t-32 -135q0 -28 5.5 -56t15.5 -53.5t24 -49.5t32.5 -45t40.5 -40l12 38q-92 88 -92 206q0 85 49 156.5t133.5 113t183.5 41.5q75 0 142.5 -24.5t116.5 -66.5t78 -99.5t29 -120.5
q0 -84 -49 -156t-133 -113.5t-184 -41.5q-105 0 -194 47l-38 -20q104 -63 232 -63q110 0 203 46.5t147 126.5t54 174t-54 174t-147 126.5t-203 46.5z" />
    <glyph glyph-name="uniE62E" unicode="&#xe62e;" 
d="M936 272q-9 35 -27 74t-32 60l-13 21q7 18 7 36t-4 31t-9.5 23.5t-9.5 15.5l-4 5l-4 29q-2 12 -5.5 25t-7 23.5t-7 20t-7 17t-6.5 13t-4 8.5l-2 3q-8 15 -20 31t-21 25l-8 9q-21 21 -49 36.5t-53 23.5t-46.5 12.5t-35.5 5.5l-13 1q-49 1 -92 -7t-69.5 -20.5t-46 -25
t-27.5 -21.5l-8 -9q-16 -14 -29.5 -33t-22 -37t-15 -36.5t-10 -34t-6 -27.5t-3.5 -19v-7q-23 -20 -29.5 -48t-3.5 -45t5 -17q-20 -14 -36.5 -31t-28 -33t-20.5 -32t-14 -29t-8 -23t-4 -16l-1 -6q-6 -31 -4 -52.5t6 -35.5t10 -22t9.5 -11.5t4.5 -3.5q6 -3 13.5 -3.5t14.5 2
t13.5 6.5t11.5 8.5t9 8.5t6 7l3 3q2 -8 5.5 -15.5t7.5 -14t8.5 -12.5t9 -10t8 -7.5l5.5 -5.5l2 -1q-5 1 -13.5 -5t-14.5 -12t-6 -7q-14 -24 -14 -43.5t10 -34t21.5 -24t21.5 -13.5l10 -5q59 -20 120 -12.5t107.5 21.5t46.5 16l133 -27q68 -14 112 -2.5t66.5 19t32.5 28.5
t10.5 26t0.5 11q-1 17 -16.5 34t-30.5 25l-15 8q4 3 7.5 7t6.5 8.5t5 9.5l5 9q2 4 3 7.5t2 5.5v2q10 -11 19 -17.5t15 -8t11 -2t7 0.5l3 1q20 9 31.5 26.5t13.5 36.5t1.5 37t-2.5 30zM884 175l-29 50q-1 3 -4.5 6t-14 1.5t-19.5 -16.5q-2 -8 -6.5 -20.5t-19.5 -39.5t-31 -39
q-33 -21 25 -44l30 -17q32 -24 2 -34q-3 -3 -8.5 -6.5t-27 -10t-48.5 -8.5t-73.5 4.5t-101.5 23.5l-55 8l-4 -4q-2 -2 -11 -8t-19.5 -11t-28.5 -10.5t-38 -8.5t-48 -2t-59 6q-3 0 -7 1l-17 6q-12 4 -21 8.5t-16.5 11.5t-7.5 15q-1 1 -1 3t2.5 7.5t6.5 10t13.5 8.5t23.5 4
q2 1 4.5 2t8.5 5t9.5 8t3 10.5t-6.5 13.5q-2 1 -6 3.5t-15 12.5t-20.5 22t-20 32.5t-16.5 43.5l-5 7q-3 5 -12 11t-16 1l-6 -7l-8 -12q-20 -32 -34 -36q-1 6 -2 16.5t2.5 40t14 57t37.5 61t67 57.5q-1 1 -2.5 3t-5 8.5t-5.5 13.5t-2 17.5t3 21t11.5 23t21.5 23.5v9
q0 5 2 20.5t5.5 31t11.5 37t19.5 40t30 38t42 34t57 25t73.5 13.5q5 0 14.5 0.5t36.5 -2t52.5 -9.5t57.5 -25t57 -44.5t45.5 -72.5t27.5 -105q2 -1 4.5 -4t8.5 -12.5t9 -20t2.5 -28t-6.5 -35.5q2 -4 6.5 -9.5t15 -23.5t20 -35.5t18.5 -42t13.5 -46t2.5 -45t-13 -42.5z" />
    <glyph glyph-name="uniE62F" unicode="&#xe62f;" 
d="M781 430q80 0 137 57t57 138t-57 138t-137.5 57t-137.5 -57t-57 -138q0 -42 16 -79l-260 -182q-50 56 -126 56q-69 0 -118 -49t-49 -118.5t49 -119t118 -49.5q33 0 63 12.5t53 34t36 49.5l237 -64q-1 -6 -1 -13q0 -59 42 -100.5t100.5 -41.5t100.5 41.5t42 100.5
q0 12 -2 23.5t-5.5 22t-8.5 20t-11.5 18.5t-14.5 17t-16.5 14t-18.5 11.5t-20.5 9t-22 5t-22.5 1.5q-37 0 -69 -17.5t-51 -47.5l-243 66v6q0 27 -8 52l264 185q18 -18 40 -31t47.5 -20.5t53.5 -7.5zM747 181q21 0 38.5 -10.5t28 -28.5t10.5 -39q0 -32 -22.5 -54.5t-55 -22.5
t-55 22.5t-22.5 54.5t22.5 55t55.5 23zM216 161q-38 0 -64.5 26.5t-26.5 64.5t26.5 65t64.5 27q15 0 29 -4.5t25.5 -13t20 -20t13 -25.5t4.5 -29q0 -10 -2.5 -20.5t-7 -19.5t-10.5 -17t-14 -14.5t-17 -11t-19.5 -6.5t-21.5 -2zM780.5 732q44.5 0 75.5 -31.5t31 -75.5
t-31 -75t-75.5 -31t-75.5 31t-31 75t31 75.5t75.5 31.5z" />
    <glyph glyph-name="uniE630" unicode="&#xe630;" 
d="M808 734q-31 9 -60.5 11.5t-53.5 -1.5t-46 -13t-39 -20t-33 -26t-26.5 -27.5t-20 -27t-14 -22.5t-8.5 -16q-5 10 -11.5 22t-21 31.5t-31.5 36t-42 32.5t-53 24.5t-65 8t-77 -12.5q-4 -2 -12.5 -5.5t-30 -17t-39.5 -30t-36 -46t-25.5 -63t-1.5 -82t30 -102.5q1 -3 3 -7
t10 -16.5t17 -25.5t24 -32t31.5 -37t39.5 -39t48 -39l243 -221v-1v1l1 -1v1l243 221q54 40 97 89t60 78l16 29q18 42 26 81t6 69.5t-10.5 57t-22 46t-29 35.5t-30.5 26.5t-27.5 17.5t-20 10t-8.5 3z" />
    <glyph glyph-name="uniE631" unicode="&#xe631;" horiz-adv-x="1025" 
d="M511 812q-83 0 -161 -26t-141 -73.5t-110.5 -110.5t-73 -141t-25.5 -162q0 -104 41 -198.5t109.5 -163t163.5 -109t199 -40.5t198.5 41t163 109.5t109 163.5t40.5 199t-41 198.5t-109.5 163t-163.5 109t-199 40.5zM759 97q8 -8 8 -19t-8 -19q-4 -4 -9 -6t-10 -2t-10 2
t-9 6l-209 209l-209 -209q-8 -8 -19 -8t-18.5 7.5t-7.5 19t7 18.5l209 210l-209 209q-8 7 -8 18.5t8 19t19 7.5t19 -8l209 -208l209 209q8 8 19 8t19 -8q5 -5 6.5 -12t0 -14t-6.5 -12l-209 -209zM759 97z" />
    <glyph glyph-name="uniE632" unicode="&#xe632;" 
d="M604 491v69q1 3 1.5 7t7 11t17.5 8l14 -4q9 -8 12 -19v-72h86q3 0 7.5 -1.5t11.5 -8t7 -16.5q0 -3 -1 -7t-8 -11.5t-17 -7.5h-86v-51h103q1 0 3 -0.5t6.5 -2t8 -4t6.5 -8t2 -11.5q0 -3 -0.5 -7.5t-7 -11.5t-18.5 -7h-155v-69h52v35q0 3 1 7t7.5 11.5t17.5 6.5q3 0 7 -0.5
t11.5 -7t7.5 -17.5v-35h51q3 0 7.5 -1t11.5 -7.5t7 -17.5q0 -3 -1 -7t-6.5 -11t-14.5 -7l-55 -1v-126v-5q0 -4 -2 -13.5t-6 -18t-13 -19t-22 -16.5q-1 -1 -3 -1.5t-9 -2.5t-14 -3t-17 -2t-18 0l-87 -232h10q6 0 26 1t40.5 4t50.5 11t59 19.5t63.5 31t65.5 44.5t63.5 61.5
t59.5 80.5q2 5 7 13t16.5 35t20.5 55t16 69t7 80q-1 2 0.5 12t-2 32.5t-7.5 49t-16 61t-27.5 68.5t-42.5 71.5t-61 70.5l-8 8q-5 5 -22 19t-36.5 27t-50.5 29t-64 27.5t-77.5 20t-90.5 9.5zM604 491h-68h-2h-2q-1 0 -2.5 -0.5t-3.5 -1.5l-4 -2q-2 -1 -4 -3t-3.5 -4.5t-3 -6
t-1.5 -8.5q0 -2 1 -6t7.5 -11t17.5 -9h68v-51h-86q-1 0 -2.5 -0.5t-5.5 -1.5t-7 -3.5t-6 -7t-4 -10.5q0 -1 -0.5 -6t5 -12.5t16.5 -10.5h90v-69h-86h-2q-2 0 -6 -2t-7.5 -4t-6.5 -7.5t-4 -12.5q0 -2 0.5 -6t7 -11t18.5 -9h138v-129q3 -16 -13 -23l-38 -4q-2 0 -5.5 -1
t-9.5 -7.5t-8 -16.5l-35 52l2 2l5 2q4 2 7 4t5.5 6t3.5 9v55q0 3 -1 7t-7.5 11.5t-17.5 7.5q-2 0 -6 -1t-11 -7.5t-9 -17.5v-52l-103 1v114l63 11q2 1 5.5 3t8.5 8t3 12q0 2 -1 6.5t-7.5 12t-17.5 7.5l-54 -8v109h54q14 3 18 10q1 1 2 3t2.5 7t0.5 9q-3 18 -20 22h-57v87v1
q0 1 -0.5 3.5t-1.5 5t-3 5.5t-4.5 5t-7 3.5t-9.5 1.5h-3q-1 0 -5 -1t-7 -3t-6 -6.5t-4 -9.5l-1 -92h-34l-1 56q0 1 -0.5 2.5t-2.5 5.5t-5 7t-8.5 5t-12.5 2q-1 -1 -4 -2t-9 -6.5t-9 -13.5v-68q0 -3 -0.5 -7.5t-5.5 -12.5t-14 -9q-1 0 -3 -0.5t-7.5 -2.5t-8.5 -6t-6 -10.5
t0 -15.5q1 -1 1.5 -2.5t3.5 -5.5t8 -5.5t13.5 -3t19.5 3.5h1q1 0 3 1l4 2q2 1 5.5 2.5t6 3.5t6 5t6 6.5t5 8t4.5 9.5h44v-117l-109 -17q-2 -1 -5.5 -2.5t-9 -9.5t-4.5 -19q2 -3 4 -7t11.5 -9.5t20.5 -2.5l92 15v-106l-283 -84q-3 5 -7.5 13t-16.5 35t-21 55.5t-16 72
t-7 85.5v8q0 4 0.5 19t2.5 31t7 40t12.5 47t20.5 51.5t29 55.5t40.5 56.5t52.5 55.5q6 6 16.5 15t45 32t71.5 40.5t93.5 31.5t113.5 13zM363 113v-77q7 -16 26 -19q1 0 2.5 0.5t5.5 1.5t7 3t6.5 7t4.5 11v73l103 -1q1 -25 29 -26l35 -52q0 -3 0.5 -6.5t6 -10.5t15.5 -9
l-87 -232l-57 4q-146 19 -253 103q-4 3 -9.5 7.5t-21.5 19t-31 30.5t-33.5 40.5t-31.5 48.5zM363 113z" />
    <glyph glyph-name="uniE633" unicode="&#xe633;" 
d="M500 746q-52 0 -102.5 -11.5t-94.5 -33.5t-83 -52.5t-69.5 -69.5t-52.5 -83t-33.5 -94.5t-11.5 -102.5q0 -91 35 -174t95 -143t143 -95.5t174 -35.5t174 35.5t143 95.5t95 143t35 174t-35 174t-95 142.5t-143 95t-174 35.5zM415 -21l34 277h-141l277 362l-34 -277h141z
" />
    <glyph glyph-name="uniE634" unicode="&#xe634;" 
d="M511.5 743q-90.5 0 -173 -35t-142 -94.5t-95 -142t-35.5 -173.5q0 -61 16 -118.5t44.5 -106.5t70 -90t90 -70t106.5 -45t119 -16q90 0 172.5 35.5t142 95t95 142t35.5 173.5t-35.5 173.5t-95 142t-142 94.5t-173 35zM708 386v-69q0 -12 -6.5 -22.5t-17.5 -16.5v-135h-35
l-13 86l-13 -86h-33v122q21 21 21 50v76q0 21 -11 38q5 1 10 1h54q18 0 31 -13t13 -31zM636 531q6 0 12 -1.5t11 -4.5t9.5 -7.5t7.5 -9.5t4.5 -11t1.5 -12q0 -10 -3.5 -18.5t-10 -14.5t-15 -9.5t-17.5 -3.5q-19 0 -32.5 13.5t-13.5 32.5q0 12 6 23t16.5 17t23.5 6zM512 548
q21 0 36 -14.5t15 -35.5t-15 -35.5t-36 -14.5q-8 0 -15.5 2.5t-14 7t-11 10.5t-7 14t-2.5 16q0 33 30 46q10 4 20 4zM434 391q0 19 14 33t33 14h59q20 0 34 -14t14 -33v-76q0 -29 -26 -42v-147h-35l-15 93l-14 -93h-38v147q-5 2 -9 5.5t-7 7.5t-5.5 8.5t-3.5 10t-1 10.5v76z
M386.5 531q19.5 0 33 -13.5t13.5 -32.5q0 -13 -6.5 -23.5t-17 -16.5t-22.5 -6q-20 0 -33.5 13.5t-13.5 32.5t13.5 32.5t33 13.5zM314 386q0 12 6 22t16 16t22 6h54q5 0 10 -1q-11 -17 -11 -38v-76q0 -29 21 -50v-122h-32l-13 86l-13 -86h-36v135q-24 13 -24 39v69zM512 48
q-106 0 -180.5 23t-74.5 55q0 27 54 48q-13 -8 -13 -18q0 -22 62.5 -37.5t151 -15.5t151 15.5t62.5 37.5q0 10 -13 18q54 -21 54 -48q0 -21 -34 -39t-92.5 -28.5t-127.5 -10.5z" />
    <glyph glyph-name="uniE635" unicode="&#xe635;" 
d="M775 403q-2 0 -11 6h-69v-134h150q0 4 -3 9.5t-8 12.5zM512 810q-188 0 -331 -122q-136 -117 -170 -292q-9 -48 -9 -96q0 -52 10.5 -102.5t30 -96t47 -86.5t62 -75.5t75.5 -62t86.5 -47t96 -30t102.5 -10.5q104 0 198 40.5t162.5 109t109 162.5t40.5 198t-40.5 198
t-109 162.5t-162.5 109t-198 40.5zM343 32q-14 0 -27 5.5t-22.5 14.5t-15 21.5t-5.5 25.5q0 19 9.5 34.5t25.5 24.5t35.5 9t35.5 -9t25.5 -24.5t9.5 -34.5q0 -27 -20.5 -47t-50.5 -20zM737 32q-29 0 -49.5 20t-20.5 47q0 19 9.5 34.5t25.5 24.5t35 9t35.5 -9t26 -24.5
t9.5 -34t-9.5 -34t-26 -24.5t-35.5 -9zM864 113h-28q-5 35 -33 58.5t-66 23.5q-24 0 -45.5 -10.5t-35.5 -29.5t-17 -42h-197q-5 35 -33 58.5t-66 23.5q-18 0 -35 -6t-30 -17t-22 -26.5t-11 -32.5h-56q-8 0 -14.5 3.5t-10 10t-3.5 13.5v404q0 11 8 19t20 8h450q21 0 27 -20
l1 -7v-81h98q10 0 18.5 -4.5t11.5 -8t13 -14.5l62 -107q22 -29 22 -54v-135q0 -6 -2.5 -11t-6 -8.5t-8.5 -5.5t-11 -2zM504 518l-71 -66l-71 66h-55l96 -91h-90v-17h97v-57h-97v-17h97v-104h46v104h97v17h-97v57h97v17h-90l96 91h-55z" />
    <glyph glyph-name="uniE636" unicode="&#xe636;" 
d="M618 460h-211q-4 0 -7.5 -2t-5.5 -5.5t-2 -7.5q0 -6 4.5 -10.5t10.5 -4.5h211q6 0 10.5 4.5t4.5 10.5q0 4 -2 7.5t-5.5 5.5t-7.5 2zM588 370h-151q-4 0 -7.5 -2t-5.5 -5.5t-2 -7.5q0 -7 4.5 -11.5t10.5 -4.5h151q2 0 4.5 1t3.5 2l4 4q1 1 2 3.5t1 5.5q0 6 -4.5 10.5
t-10.5 4.5zM512 832q-60 0 -118 -16.5t-107 -45t-90.5 -70t-70 -90.5t-44.5 -107t-16 -119q0 -91 35 -174t95 -143t143 -95.5t173.5 -35.5t173.5 35.5t143 95.5t95 143t35 174t-35 174t-95 143t-143 95.5t-174 35.5zM512 204q-22 0 -45 4l-105 -64v106q-42 30 -66 73t-24 92
q0 87 70.5 148.5t169.5 61.5q25 0 49 -4t45 -12t40.5 -19.5t36 -26t29.5 -31.5t22 -35.5t14 -39.5t5 -42q0 -58 -32 -106.5t-87.5 -76.5t-121.5 -28z" />
    <glyph glyph-name="uniE637" unicode="&#xe637;" 
d="M512 896q-139 0 -257 -68.5t-186.5 -186.5t-68.5 -257t68.5 -257t186.5 -186.5t257 -68.5t257 68.5t186.5 186.5t68.5 257t-68.5 257t-186.5 186.5t-257 68.5zM512 -110q-182 0 -321 119q4 130 97 221t224 91q-85 0 -145 60t-60 145q0 42 16 80t43.5 65.5t65.5 43.5
t80 16q56 0 103 -27t74.5 -74.5t27.5 -103.5q0 -85 -60 -145t-145 -60q131 0 224 -91t97 -221q-139 -119 -321 -119z" />
    <glyph glyph-name="uniE638" unicode="&#xe638;" 
d="M691 588q-4 4 -8 4t-8 -4l-129 -129l-108 -108q-2 -2 -3 -4q-1 -4 -7 -27q-1 -1 -4 -14h1h1q2 1 8.5 2t9 1.5t8 1.5t9 1.5t8 1.5t8.5 1q1 1 2.5 1.5t2.5 1.5l232 232q6 8 0 15zM511.5 832q-91.5 0 -174.5 -35.5t-143 -95.5t-95.5 -143t-35.5 -174t35.5 -174t95.5 -143
t143 -95.5t174.5 -35.5t174 35.5t142.5 95.5t95.5 143t35.5 174t-35.5 174t-95.5 143t-142.5 95.5t-174 35.5zM743 183q0 -6 -1 -11t-3.5 -9t-6 -7.5t-8 -6t-9.5 -3.5q-4 -1 -9 -1h-388q-16 0 -26.5 10.5t-10.5 27.5v193v193q0 11 4.5 19.5t13.5 14.5q4 2 9 3.5t11 1.5h27
h28h26h28h28h27h27q10 0 14.5 -6.5t1.5 -13.5q-1 -3 -2.5 -5t-4 -3.5t-5.5 -1.5h-5h-87h-101h-3h-2q-5 -1 -5 -6v-4v-384q0 -4 0.5 -6t2.5 -2.5t6 -0.5h384q5 0 7 2t2 8v190q0 12 10 15q7 3 13 -0.5t7 -11.5v-3v-192zM737 532q0 -1 -1 -2l-2 -2q-107 -108 -231 -231
q0 -1 -1 -2l-3 -3q-4 -4 -10 -5q-5 -1 -13.5 -2.5t-13.5 -2.5t-13 -2t-13.5 -2t-13 -2.5t-13.5 -2.5q-4 -1 -9 0q-3 1 -5.5 2.5t-4 4t-2 5.5t0.5 7q9 33 19 69q1 4 4 7q56 55 113.5 112.5t128.5 129.5q9 8 19 11t20 0t19 -11q0 -1 3 -4l4 -4l3 -4l4.5 -3t3.5 -3.5t4 -4
t3 -3.5q2 -2 4 -4.5t3 -5t2 -5.5t1.5 -6t0.5 -6q-1 -14 -11 -25z" />
    <glyph glyph-name="uniE639" unicode="&#xe639;" 
d="M936 475l-423 212l-424 -212l424 -211zM513 631l310 -156l-310 -155l-311 155zM879 347l-368 -183l-367 184l-2 -1l-54 -27l423 -212l424 212zM879 189l-368 -183l-367 183l-2 -1l-54 -27l423 -212l424 212z" />
    <glyph glyph-name="uniE63A" unicode="&#xe63a;" 
d="M289 35q0 -19 15.5 -33.5t34 -15t35.5 13.5l350 349q7 8 11 17t4 18t-4 18.5t-11 16.5l-350 349q-22 23 -53.5 10t-31.5 -45v-698z" />
    <glyph glyph-name="uniE63B" unicode="&#xe63b;" 
d="M861 161q31 0 44.5 31t-9.5 54l-349 350q-15 15 -35 15t-35 -15l-349 -350q-11 -10 -13 -25.5t3 -28.5t17.5 -22t27.5 -9h698z" />
    <glyph glyph-name="uniE63C" unicode="&#xe63c;" 
d="M857 -26q43 24 69 43l6 5q7 4 8 5q18 15 18 38q0 22 -17 36l-198 164q-14 10 -31 10q-19 0 -33 -13l-34 -34q-15 -15 -37 -15t-37 15l-203 203q-5 5 -8.5 11.5t-5.5 13t-2 13.5t2 13.5t5.5 12.5t8.5 11l33 33q13 14 13 34q0 10 -3.5 18.5t-9.5 14.5l-170 206q-7 8 -17 13
t-21 5q-24 0 -38 -20l-3 -4q-86 -115 -86 -204q0 -37 20.5 -87t54.5 -103.5t81 -110t99 -108.5t108.5 -99t109.5 -81t103 -54.5t87 -20.5h6l5 1q63 5 117 35z" />
    <glyph glyph-name="uniE63D" unicode="&#xe63d;" 
d="M512 812q-104 0 -199 -40.5t-163.5 -109t-109 -163.5t-40.5 -199q0 -84 26 -162t73.5 -141t110.5 -110.5t141 -73t161 -25.5q104 0 199 40.5t163.5 109t109 163.5t40.5 199t-40.5 199t-109 163.5t-163.5 109t-199 40.5zM512.5 -133q-117.5 0 -217 58t-157.5 157.5
t-58 217.5q0 88 34 168t92 138t138 92t168 34q71 0 137 -21.5t119 -61.5t93 -93.5t62 -119.5t22 -136q0 -118 -58 -217.5t-157.5 -157.5t-217 -58zM540 327v276h-81v-255v-51v-50h314v80h-233z" />
    <glyph glyph-name="uniE63E" unicode="&#xe63e;" 
d="M241 238zM512 840q-98 0 -181.5 -48.5t-132 -131.5t-48.5 -181q0 -137 92 -241l235 -296q9 -11 21.5 -15t24.5 0t21 15l234 296q95 104 95 241q0 59 -18 114t-51.5 99t-78 77.5t-99.5 52t-114 18.5zM512 342q-28 0 -53.5 11t-44 29t-29 43.5t-10.5 53.5q-1 56 39.5 96.5
t97.5 40.5q27 0 52.5 -11t44 -29t29.5 -43.5t11 -53.5q0 -37 -18 -68.5t-50 -50t-69 -18.5z" />
    <glyph glyph-name="uniE63F" unicode="&#xe63f;" 
d="M903 -35h-782q-23 0 -39.5 16.5t-16.5 39.5v558q0 23 16.5 39.5t39.5 16.5h782q23 0 39.5 -16.5t16.5 -39.5v-558q0 -23 -16.5 -39.5t-39.5 -16.5zM840 517q-5 5 -12 7t-14.5 0t-12.5 -7l-97 -96l-136 -136q-12 -11 -26.5 -17t-31.5 -6q-29 0 -54 21v-2l-183 183l2 1
l-52 52q-8 8 -19.5 8t-19.5 -8.5t-8 -20t8 -19.5l176 -177l-176 -177q-8 -8 -8 -19.5t8 -20.5q3 -3 7 -5t8 -2.5t8.5 0t8.5 2.5t7 5l177 177l46 -46q1 -2 2 -3l2 -3l3 -2l3 -3v1q24 -19 53 -19q34 0 59 25v-2l54 53l177 -178q8 -8 19.5 -8t20.5 8q1 2 2.5 4t2.5 4.5t1.5 4.5
t1 4.5t-0.5 5.5v4q-1 3 -2 5t-2.5 4t-2.5 4l-178 177l179 177q6 6 7.5 13t0 14t-7.5 13zM840 517z" />
    <glyph glyph-name="uniE640" unicode="&#xe640;" 
d="M512 -103h10q64 1 125.5 18.5t116 51t99.5 79.5q68 71 103 160.5t33 187.5q-2 97 -41.5 185t-104.5 152t-154.5 102t-186.5 38h-10q-97 -2 -185.5 -40.5t-156 -109t-102.5 -160t-33 -187.5q1 -64 19.5 -126t50.5 -114.5t77 -96.5t98 -75t115 -48t127 -17zM512 -126
q-102 0 -195.5 39t-162 106t-109.5 159.5t-43 195.5q-2 104 36.5 199t105.5 165t160.5 112t197.5 44h10q102 0 195.5 -39t162 -106t109.5 -159.5t43 -195.5q2 -104 -36.5 -199t-105.5 -165t-160.5 -112t-197.5 -44h-10v0zM820 562l-53 74q-6 8 -16 9.5t-18 -3.5
q-43 -29 -108 -101.5t-104.5 -124.5t-75.5 -101l-155 104q-2 1 -5 2t-6 1.5t-6 0t-6 -1.5t-5.5 -3t-4.5 -4l-52 -67q-7 -7 -5.5 -17t8.5 -16l231 -187q7 -5 16 -5h1l57 2q16 1 22 15q21 50 48 98.5t52 85.5t53 72t48.5 57.5t41 42t27.5 25.5t11 10q7 6 8.5 15t-4.5 17z" />
    <glyph glyph-name="uniE641" unicode="&#xe641;" 
d="M398 316q-1 8 6 11q9 5 20.5 10.5t18 9t20.5 10.5q101 52 131 67q18 9 27 -1q1 -1 3 -2l3 -1q49 -29 102 -2q28 14 42.5 37.5t16.5 54.5q-1 17 -1 18q-2 14 -8 27.5t-15 24.5t-20 19.5t-24 14t-27 6.5q-29 4 -58.5 -9.5t-45.5 -38.5q-9 -15 -13.5 -31t-4.5 -33
q-1 -5 -4 -8l-40 -20q-2 -2 -10 -6l-11 -6l-10 -4q-7 -4 -11.5 -6t-10 -5t-10.5 -5q-7 -4 -30 -15.5t-38.5 -19.5t-30.5 -15q-5 -3 -11 1q-10 8 -21 13t-22 7.5t-22.5 2.5t-22.5 -2.5t-21.5 -8t-20.5 -12.5q-26 -20 -36 -47t-4 -60q3 -20 13.5 -36t26.5 -29q27 -21 60.5 -22
t62.5 18q7 4 13 1q7 -4 16.5 -8.5t18.5 -9t16 -8.5q5 -2 59 -30t82 -42q5 -2 8 -4.5t6 -5.5t4.5 -7.5t2.5 -10.5q2 -49 51 -81q16 -11 45 -14q59 -7 96 40q38 50 13 110q-13 33 -46 50.5t-67 12.5q-33 -5 -53 -22q-6 -6 -11 -3q-9 5 -25 13t-22 10q-24 13 -72 37.5t-73 36.5
q-9 5 -10.5 8t-0.5 13v7z" />
    <glyph glyph-name="uniE642" unicode="&#xe642;" 
d="M30 524l345 17l127 353l178 -359l314 -11l-294 -303l147 -325l-325 191l-350 -213l162 364z" />
    <glyph glyph-name="uniE643" unicode="&#xe643;" 
d="M953 706h-880q-29 0 -49.5 -21t-20.5 -50v-616q0 -29 20.5 -49.5t49.5 -20.5h880q29 0 49.5 20.5t20.5 49.5v616q0 29 -20.5 50t-49.5 21zM910 647l-382 -328q-10 -10 -13 -10t-13 10l-382 328h790zM965 40l-246 263q-5 5 -11.5 8t-13 3t-13 -3t-11.5 -8
q-10 -10 -10 -24.5t10 -24.5l222 -247h-750l223 247q3 3 5.5 7t3.5 8.5t1 9t-1 9t-3.5 8.5t-5.5 7q-11 11 -25 11t-25 -11l-254 -268v562l392 -327q8 -9 14 -14.5t14.5 -10.5t17 -7.5t18.5 -2.5q26 0 52 26l5 5l4 4l387 327v-557z" />
    <glyph glyph-name="uniE644" unicode="&#xe644;" 
d="M568 332h-96q-7 0 -11.5 -5t-4.5 -11v-32q0 -7 4.5 -11.5t11.5 -4.5h96q7 0 11.5 4.5t4.5 11.5v32q0 4 -2 7.5t-6 6t-8 2.5zM568 284h-96v32h96v-32zM680 268h96q7 0 11.5 4.5t4.5 11.5v32q0 4 -2 7.5t-6 6t-8 2.5h-96q-7 0 -11.5 -5t-4.5 -11v-32q3 -14 16 -16zM680 316
h96v-32h-96v32zM829 492l-181 -96v64q0 6 -2.5 12t-6.5 10.5t-9.5 7t-11.5 2.5l-178 -96v176q0 13 -8 22.5t-19 9.5h-170q-5 0 -10.5 -2.5t-9 -7t-5.5 -10.5t-2 -12v-416q0 -9 3.5 -16.5t10 -11.5t13.5 -4h586q7 0 13.5 4t10 11.5t3.5 16.5v304q0 13 -8 22.5t-19 9.5z
M408 508h-160v16h160v-16zM408 572v-32h-160v32h160zM824 156h-576v336h160v-96q0 -18 16 -28q7 -4 16 -4q4 0 8 1t7 3l161 86v-58q0 -18 16 -28q3 -2 7.5 -3t8.5 -1q8 0 15 3l161 86v-297zM904 684h-736q-18 0 -32.5 -8.5t-23 -23.5t-8.5 -32v-512q0 -18 8.5 -32.5t23 -23
t32.5 -8.5h736q27 0 45.5 18.5t18.5 45.5v512q0 17 -8.5 32t-23 23.5t-32.5 8.5zM936 108q0 -14 -9.5 -23t-22.5 -9h-736q-13 0 -22.5 9t-9.5 23v512q0 13 9.5 22.5t22.5 9.5h736q13 0 22.5 -9.5t9.5 -22.5v-512z" />
    <glyph glyph-name="uniE645" unicode="&#xe645;" 
d="M212 -40q-6 0 -11 3t-7.5 8t-2.5 10v300q0 9 6 15.5t15 6.5q4 0 8 -2t7 -4.5t5 -6.5t2 -9v-300q0 -8 -6.5 -14.5t-15.5 -6.5zM812 -40q-4 0 -7 1t-5.5 3t-4.5 4.5t-3 6t-1 6.5v300q0 9 6 15.5t15 6.5q3 0 6.5 -1t6 -3t4.5 -5t3 -6t1 -7v-300q0 -8 -6 -14.5t-15 -6.5z
M962 -40h-900q-9 0 -15 6.5t-6 15t6 15t15 6.5h900q9 0 15 -6.5t6 -15.5q0 -5 -2.5 -10t-7.5 -8t-11 -3zM1005 474q0 -23 -11.5 -43t-31.5 -31.5t-43 -11.5h-43q-19 0 -35.5 8t-28.5 22q-12 -14 -28.5 -22t-35.5 -8h-22q-19 0 -35.5 8t-28.5 22q-12 -14 -28.5 -22t-35.5 -8
h-22q-19 0 -35.5 8t-28.5 22q-26 -30 -64 -30h-22q-38 0 -64 30q-12 -14 -28.5 -22t-35.5 -8h-22q-38 0 -64 30q-6 -7 -13 -12.5t-15 -9t-17.5 -6t-18.5 -2.5h-43q-23 0 -43 11.5t-31.5 31.5t-11.5 43l5 22h-5l22 150q0 53 37.5 90.5t90.5 37.5h686q26 0 50 -10t41 -27.5
t27 -41t10 -49.5l22 -150h-4zM940 646q0 35 -25 60t-60 25h-686q-17 0 -33 -6.5t-27.5 -18t-18 -27.5t-6.5 -33l-22 -150h4l-4 -22q0 -11 6 -21t15.5 -16t21.5 -6h43q11 0 21 6t16 16t6 21v22v64q0 9 6 15t15 6h4q3 0 4.5 -1t3.5 -2t3.5 -2.5t2.5 -3.5l2 -4q1 -2 1.5 -4
t0.5 -4v-64v-22q0 -18 12.5 -30.5t29.5 -12.5h22q17 0 30 12.5t13 30.5v22v64q0 9 6 15t15 6t15 -6t6 -15v-64v-22q0 -18 13 -30.5t30 -12.5h22q17 0 29.5 12.5t12.5 30.5v22v64q0 9 6.5 15t15.5 6q6 0 11 -2.5t7.5 -7.5t2.5 -11v-64v-22q0 -18 12.5 -30.5t30.5 -12.5h22
q17 0 29.5 12.5t12.5 30.5v22v64q0 6 3 11t8 7.5t11 2.5q9 0 15 -6t6 -15v-64v-22q0 -18 12.5 -30.5t30.5 -12.5h22q8 0 16 3.5t14 9.5t9 14t3 16v22v64q0 9 6.5 15t15.5 6t15 -6t6 -15v-64v-22q0 -11 6 -21t15.5 -16t21.5 -6h43q12 0 21.5 6t15.5 16t6 21l-4 22h4zM683 3
v171q0 6 -2.5 11t-7.5 8t-11 3h-64q-6 0 -11 -3t-8 -8t-3 -11v-171h-43v193q0 8 3.5 16t9.5 14t14 9.5t16 3.5h107q5 0 10 -1.5t9 -3.5t8 -5t7 -6.5t5 -8t3 -9t1 -9.5v-193h-43zM641 46q-9 0 -15.5 6t-6.5 15t6.5 15.5t15.5 6.5t15 -6.5t6 -15.5q0 -4 -1.5 -8t-4.5 -7
t-7 -4.5t-8 -1.5z" />
    <glyph glyph-name="uniE646" unicode="&#xe646;" 
d="M560 0h-304q-13 0 -24 6.5t-17.5 17.5t-6.5 24v704q0 20 14 34t34 14h512q20 0 34 -14t14 -34v-480q0 -29 -19 -49l-187 -201q-20 -22 -50 -22zM272 64h288l4 2l186 200q2 3 2 6v464h-480v-672zM576 24q-10 0 -17 7t-7 17v192q0 8 2 15t5.5 13t9 11.5t11.5 9t13 5.5t15 2
h183q10 0 17 -7t7 -17t-7 -17t-17 -7h-183q-2 0 -4 -1t-3 -3t-1 -4v-192q0 -10 -7 -17t-17 -7zM431 610h21q16 -1 18 -20q-1 -9 -6 -14t-14 -6h-19v-10q5 -7 13 -17q36 -45 33 -52q0 -21 -19 -21q-9 0 -20 13q-1 2 -2.5 3.5t-2.5 3t-2 2.5v-132q-2 -16 -20 -18
q-9 1 -14.5 5.5t-6.5 12.5v125q-19 -48 -39 -44q-31 6 -9 42l2 3q24 32 42 84h-32q-5 1 -8 3.5t-5 7t-2 10.5q2 18 17 20h34v34q-11 0 -24 -1q-21 0 -22 19q0 10 5 15t16 6q55 3 84 9q21 3 25 -14q2 -9 -2 -15.5t-14 -9.5q-7 -2 -13.5 -3.5t-13.5 -1.5v-39zM526 624
q-3 0 -6.5 5t-7.5 15h-1q0 1 -1 3q-4 8 -12 21q-6 12 -6 16q0 9 9 14q12 4 21 1q12 -6 26 -30q19 -36 3 -45h49q-3 2 -4 6t1 11q1 0 2 1l3 5q5 6 11.5 17t15.5 26t27 8q7 -5 8.5 -11.5t-0.5 -14.5q-14 -33 -30 -48h8q28 0 28 -27v-78q1 -32 -28 -30h-22v-87q1 -5 3 -7.5
t5 -2.5h8q12 -4 14 46q1 16 21 16q16 -3 16 -19q-1 -49 -11.5 -67.5t-37.5 -18.5h-21q-18 1 -27.5 9.5t-10.5 25.5v105h-18q2 -105 -76 -141q-23 -12 -36 4q-9 20 12 32q61 24 60 105h-12q-14 0 -20.5 6.5t-6.5 20.5v81q0 14 7.5 20.5t22.5 6.5h14zM628 578q0 3 -2 5t-6 2
h-88q-3 0 -4.5 -1t-2.5 -2.5t-1 -3.5v-42q0 -4 2 -6t6 -2h88q9 0 8 6v44z" />
    <glyph glyph-name="uniE647" unicode="&#xe647;" 
d="M503 528q8 0 16 3t13.5 9t8.5 13.5t3 15.5q0 18 -12 30t-29.5 12t-29.5 -12t-12 -30q0 -11 5.5 -20.5t15 -15t21.5 -5.5zM503 494q20 0 37.5 10.5t27.5 27.5t10 37.5t-10 37.5t-27.5 27.5t-37.5 10.5q-31 0 -53 -22t-22 -53.5t22 -53.5t53 -22zM503 628q24 0 41 -17
t17 -42q0 -7 -2 -15t-6 -14t-9 -11.5t-11.5 -9.5t-14 -6t-15.5 -2q-24 0 -41.5 17t-17.5 41.5t17.5 41.5t41.5 17zM845 411h-667q-5 0 -9 -2t-6 -6t-2 -9q0 -6 5 -11t12 -5h667q4 0 8 2t6 6t2 8q0 7 -5 12t-11 5zM853 311h-684q-8 0 -8 -8.5t8 -8.5h684q8 0 8 8.5t-8 8.5z
M311 211h-133q-7 0 -12 -5t-5 -12q0 -4 2 -8t6 -6t9 -2h133q7 0 12 4.5t5 11.5q0 4 -1.5 7t-3.5 5t-5.5 3.5t-6.5 1.5zM845 211h-167q-7 0 -12 -5t-5 -12q0 -4 2.5 -8t6 -6t8.5 -2h167q6 0 11 4.5t5 11.5t-5 12t-11 5zM895 728h-767q-28 0 -47.5 -19.5t-19.5 -47.5v-533
q0 -28 19.5 -47.5t47.5 -19.5h767q27 0 46.5 19.5t19.5 47.5v533q0 11 -3.5 21t-9.5 18.5t-14 14.5t-18.5 9.5t-20.5 3.5zM928 128q0 -7 -2.5 -13t-7 -10.5t-11 -7.5t-12.5 -3h-767q-14 0 -24 10t-10 24v533q0 6 2 11t5 9t7 7t9 5t11 2h767q13 0 23 -10t10 -24v-533z
M928 128z" />
    <glyph glyph-name="uniE648" unicode="&#xe648;" 
d="M1017 375q-64 -85 -160 -163q-176 -140 -345 -141q-56 0 -114.5 16.5t-105 41t-92.5 58.5t-77 62.5t-60 60t-39 44t-17 21.5l-7 9l7 9q4 6 11 14.5t25 29t38 41t49.5 47.5t60 50t69.5 46t78 39t84.5 26.5t89.5 10.5q40 0 81 -8t77 -22.5t71 -32.5t65.5 -40.5t57.5 -43.5
t50 -44l42 -42q17 -17 31.5 -34.5t20 -24.5t9.5 -12l7 -9zM512 666q-48 0 -98 -13.5t-91 -33.5t-82.5 -48.5t-72 -54.5t-59 -55t-43.5 -45.5t-27 -31.5q98 -121 221 -199q131 -82 252 -83q66 0 135.5 25.5t120.5 59t101 78t73.5 70.5t42.5 49q-15 18 -34 38.5t-54 56
t-76.5 65.5t-90 59t-105.5 46t-113 17zM512 151q-96 0 -164 68.5t-68 164.5t68 164.5t164 68.5q47 0 90 -18.5t74 -49.5t49.5 -74.5t18.5 -90.5q0 -96 -68 -164.5t-164 -68.5zM512 586q-83 0 -142 -59t-59 -143q0 -55 27 -101.5t73.5 -73.5t100.5 -27q83 0 142 59t59 143
t-59 143t-142 59z" />
    <glyph glyph-name="uniE649" unicode="&#xe649;" 
d="M941 471l-397 137q-19 6 -22.5 6.5t-22.5 -6.5l-399 -136q-12 -4 -16 -10t0 -11.5t16 -10.5l95 -32q-19 -19 -29.5 -42.5t-13 -41.5t-2.5 -48q-12 -5 -20 -16t-8 -25q0 -26 24 -38q-12 -91 -82 -175q33 -26 64 -36q35 15 51.5 48t15.5 72t-3 84q-1 7 -1 10q18 13 18 35
q0 24 -20 37q1 40 11.5 70t35.5 49q1 1 3 2l273 110q8 3 15.5 0t10.5 -11t0 -15.5t-11 -10.5l-231 -92l207 -70q2 -1 6.5 -2.5t5.5 -2t4 -1.5l3 -1h3h3l3 1q3 1 4 1.5t5.5 2t6.5 2.5l394 135q12 4 16.5 10t0 12t-16.5 10zM502 251l-250 85v-64q21 -18 21 -48q0 -8 -2 -16.5
t-5.5 -15.5t-8.5 -12q6 -19 17 -23q108 -61 247.5 -59t260.5 67q21 18 21 34v141l-256 -89l-6 -2q-12 -4 -16 -4t-16 4q-4 1 -7 2zM502 251z" />
    <glyph glyph-name="uniE64A" unicode="&#xe64a;" 
d="M641 596v76h-259v-76h-171v-74h602v74h-172zM239 472l44 -537h458l44 537h-546zM426 37h-70v342h70v-342zM546 37h-69v342h69v-342zM670 37h-72v342h72v-342z" />
    <glyph glyph-name="uniE64B" unicode="&#xe64b;" 
d="M877 716q-6 4 -14 4q-7 0 -13 -4l-753 -502q-13 -9 -11.5 -24t16.5 -20l196 -79l92 -161q2 -3 4 -5.5t5 -4t6 -2.5t7 -1q6 0 12 3.5t9 8.5l53 87l243 -97q4 -2 9 -2q7 0 12 3q11 6 13 18l125 753q1 7 -2 14t-9 11zM164 199l582 387l-423 -452q-1 0 -2 1q-3 2 -5 3z
M341 116l475 509l-405 -631zM718 -23l-214 86q-6 2 -16 3l330 511z" />
    <glyph glyph-name="uniE64C" unicode="&#xe64c;" 
d="M716 -62q-68 0 -179 69q-105 65 -206 163l-21 21q-98 100 -163 206q-18 29 -32 56.5t-25 61.5t-11 61q0 14 3 29.5t8.5 30t12 27.5t13.5 25t12.5 20t11.5 15q11 16 24.5 31t38.5 33t44 18q25 0 61 -37q5 -5 9.5 -10t8.5 -10l10 -12q4 -5 7.5 -10t7.5 -10t7.5 -9.5
t6.5 -9.5q28 -41 48 -78q14 -25 18.5 -40t4.5 -24q0 -14 -7.5 -25.5t-21.5 -21.5q-12 -9 -42 -21q-25 -11 -31 -16q5 -21 36 -66q36 -53 79 -97q20 -20 45.5 -40.5t50.5 -38.5q45 -30 66 -35q5 6 16 31q4 10 7 15l6 13q4 8 8 14q10 14 22 21t25 7q10 0 24.5 -4.5t40.5 -17.5
q37 -20 78 -48q18 -13 36.5 -27.5t33.5 -29.5q37 -36 37 -61q0 -20 -17.5 -44.5t-33 -38t-30.5 -24.5q-82 -62 -148 -62zM367 206q96 -94 197 -155q99 -61 152 -61q22 0 52.5 13t62.5 36q28 21 46 42q8 9 12 15t5 10q-4 9 -27 30.5t-63 49.5q-18 12 -35.5 23t-33.5 19
q-7 4 -13.5 7t-10.5 4.5t-7.5 2.5t-5 1.5t-2.5 0.5t-2 -1t-2.5 -3.5t-3.5 -5.5q-5 -8 -14 -29l-6 -13q-2 -5 -5.5 -12t-6.5 -12q-17 -26 -42 -26h-1q-31 1 -96 45q-58 39 -104 85h-1q-46 47 -85 104q-44 65 -44 97q-1 25 25 42q7 5 15.5 9t21.5 10q7 3 11 4.5t9 4t9 5.5
q8 4 10 8q0 2 -1 5t-5 12.5t-10 21.5q-8 15 -19 33t-23 35q-19 28 -37 49t-27.5 30t-15.5 12q-9 -3 -25 -17q-21 -18 -42 -47q-23 -31 -36 -61.5t-13 -52.5q0 -13 4 -29.5t12 -36t19 -41.5t26 -45q62 -101 156 -197z" />
    <glyph glyph-name="uniE64D" unicode="&#xe64d;" 
d="M522 39l-14 -15l-13 15q-94 99 -172 228q-114 189 -115 334q0 76 40.5 141.5t109.5 103.5t150.5 38t150.5 -38t109 -103.5t40 -141.5q0 -71 -29.5 -155.5t-66.5 -148t-85.5 -129t-69.5 -90t-35 -39.5zM508 850q-109 0 -186.5 -73t-77.5 -176q0 -60 23 -130.5t53.5 -127.5
t71.5 -117t66.5 -91.5t49.5 -58.5q24 27 49.5 59t67 92t72 117t53.5 127t23 130q0 33 -9.5 65.5t-26.5 60t-41.5 50.5t-53.5 39t-63.5 25t-70.5 9zM512 488q-48 0 -82 32t-34 77t34 77.5t82 32.5q31 0 58 -15t42.5 -40t15.5 -55q0 -45 -34 -77t-82 -32zM512 673
q-9 0 -18.5 -2t-17 -5.5t-14.5 -9t-12.5 -12t-9.5 -14t-6 -16t-2 -17.5q0 -31 23.5 -53.5t56.5 -22.5q22 0 40.5 10.5t29 28t10.5 37.5q0 32 -23.5 54t-56.5 22zM131 -116l122 335h70v-34h-45l-97 -267h662l-97 267h-45v34h70l122 -335h-762z" />
    <glyph glyph-name="uniE64E" unicode="&#xe64e;" 
d="M512 -55q-13 0 -25 4.5t-21 12t-14 17.5t-5 22q0 22 19 38.5t46 16.5t46 -16.5t19 -39t-19 -39t-46 -16.5zM512 25q-12 0 -20.5 -7.5t-8.5 -17.5t8.5 -17t20.5 -7t20.5 7t8.5 17t-8.5 17.5t-20.5 7.5zM280 79v638h464v-638h-464zM708 686h-392v-576h392v576zM720 -97
h-417q-38 0 -66 23.5t-28 56.5v802q0 33 28 56.5t66 23.5h417q39 0 67 -23.5t28 -56.5v-802q0 -33 -28 -56.5t-67 -23.5zM778 785q0 13 -8 24.5t-21 18t-29 6.5h-417q-23 0 -40 -14.5t-17 -34.5v-802q0 -20 17 -34.5t40 -14.5h417q24 0 41 14.5t17 34.5v802zM555 760h-86
q-3 0 -5 1t-4 2.5t-3 4.5t-1 5q0 4 2 7.5t4.5 5t6.5 1.5h86q5 0 9 -4t4 -9.5t-4 -9.5t-9 -4z" />
    <glyph glyph-name="uniE64F" unicode="&#xe64f;" 
d="M1014 -64q-6 -6 -13 -6h-978q-7 0 -13 6q-2 2 -3.5 5.5t-1.5 6.5q0 5 0.5 15.5t5.5 37.5t13.5 54.5t26.5 63.5t42.5 67.5t64 63t88.5 53.5q15 8 24 -7q24 -43 62 -75t84 -49t96 -17t96.5 17t84 49t61.5 75q4 6 10.5 8t13.5 -1q38 -17 71 -40t56 -47t41.5 -52t30 -52
t20.5 -50t13 -44.5t6 -36t2.5 -24t0.5 -9.5q0 -2 -0.5 -4.5t-1.5 -4.5t-3 -3zM777 263q-43 -67 -113.5 -106t-151.5 -39t-151.5 39t-113.5 106q-49 -24 -86.5 -58.5t-58 -66.5t-34.5 -68.5t-18.5 -59t-6.5 -43.5h938q-2 21 -6.5 43.5t-18.5 59t-34.5 68.5t-58 66.5
t-86.5 58.5zM512 221q-88 0 -151 62t-63 149v194q0 58 28.5 106.5t78 77t107.5 28.5q89 0 151.5 -62t62.5 -150v-194q0 -21 -4.5 -42t-12.5 -40t-19.5 -36t-26 -31.5t-32 -26t-36.5 -19.5t-40 -12t-43 -4zM689 626q0 73 -52 124t-125 51t-125 -51t-52 -124v-194
q0 -72 52 -123.5t125 -51.5t125 51.5t52 123.5v194z" />
    <glyph glyph-name="uniE650" unicode="&#xe650;" 
d="M0 -67h1024v902zM616 3l-59 59l-159 150l60 58l159 -151l302 286l60 -58z" />
    <glyph glyph-name="uniE651" unicode="&#xe651;" 
d="M509 -117q-101 0 -193.5 39.5t-159.5 106.5t-106.5 159.5t-39.5 193.5t39.5 193.5t106.5 159t159.5 106.5t193.5 40t193.5 -40t159.5 -106.5t106.5 -159t39.5 -193.5q0 -206 -146.5 -352.5t-352.5 -146.5zM509 854q-96 0 -183.5 -37.5t-150.5 -100.5t-100.5 -150.5
t-37.5 -183.5t37.5 -183.5t100.5 -151t150.5 -101t183.5 -37t183.5 37.5t150.5 100.5t100.5 151t37.5 183.5q0 55 -12 108t-35.5 99.5t-56 87.5t-73.5 73.5t-87.5 55.5t-99.5 35.5t-108 12.5zM388 111l-19 18l254 255l-256 257l18 19l276 -276z" />
    <glyph glyph-name="uniE652" unicode="&#xe652;" horiz-adv-x="1025" 
d="M871 455q-11 0 -19 -8t-8 -19v-253q0 -4 1 -7.5t2.5 -6t4.5 -5.5v0q2 -2 5 -4t6.5 -3t7.5 -1h73q3 0 5.5 0.5t5 1.5t4.5 2.5t4 3.5v0q8 9 8 19v253q0 11 -7 18l-1 1q-8 8 -19 8h-14h-14h-15h-15h-15zM583 69q-2 0 -3 1q-15 8 -31 4q-18 -5 -27 -21q-3 -4 -4.5 -9.5
t-1.5 -10.5v-2q0 -6 2 -11q2 -8 6.5 -14.5t11.5 -10.5l4 -2q15 -8 31 -4q17 5 26 20l2 2q7 15 3 32q-4 16 -19 26zM609 116q35 -20 45 -59q5 -18 2.5 -37.5t-12.5 -36.5v0q-20 -35 -59 -45.5t-74 9.5v1q-34 19 -45 57h-173h-3q-50 1 -106 16t-99 42q-85 55 -85 140v225
q0 34 24 57.5t57 23.5h11q14 153 123 263q59 58 136.5 91t164 33t164.5 -33t136 -91q110 -109 123 -263h5q33 0 57 -24q1 0 2 -2q22 -23 22 -55v-253q0 -16 -6.5 -31t-17.5 -26t-26 -17.5t-31 -6.5h-73q-33 0 -57 24q-12 11 -18 26t-6 31v253q0 34 23.5 57.5t57.5 23.5h14
q-13 131 -107 225q-51 51 -119 79.5t-143.5 28.5t-143 -28.5t-119.5 -79.5q-93 -94 -107 -225h8q17 0 31.5 -6.5t25.5 -17.5l2 -2q22 -23 22 -55v-228q0 -8 -3.5 -14t-9.5 -9.5t-14 -3.5q-5 0 -10 2t-8.5 5.5t-6 8.5t-2.5 11v228q0 5 -1.5 10t-5.5 8l-1 1q-8 8 -19 8h-73
q-11 0 -19 -8t-8 -19v-225q0 -56 60 -94q25 -16 57.5 -27.5t62.5 -17t58 -6.5h1h173q2 6 4.5 11.5t5.5 10.5v0q6 12 15.5 21t20.5 15t23 10q39 10 74 -10v0z" />
    <glyph glyph-name="uniE653" unicode="&#xe653;" 
d="M828 -109l-316 233l-316 -233l120 377l-316 232h391l121 377l121 -377h391l-316 -232zM108 465l250 -184l-96 -297l250 184l250 -184l-96 297l250 184h-309l-95 297l-95 -297h-309z" />
    <glyph glyph-name="uniE654" unicode="&#xe654;" 
d="M423 195l-147 -84q-39 -22 -57 10l-77 133l37 21l21 -36l127 73l-21 37q-5 9 -13 11t-18 -4l-150 -87l-18 31l171 98q7 5 14 6.5t13 1t12 -3.5t11 -8.5t10 -12.5l44 -78l-164 -95l31 -53q8 -15 26 -4l153 88l8 -12q10 -18 -13 -32zM543 371q15 -80 -76 -149l-20 34
q26 20 40 43t15 50l-82 -48l-17 30l92 54l-25 43l-49 -28q-1 -16 -6.5 -29t-15.5 -24l-24 41q4 12 3.5 25.5t-4.5 28.5l34 20l8 -26l37 22l-18 31l37 21l18 -31l75 44l17 -30l-75 -44l25 -43l85 49l17 -30l-91 -52v-2zM589 384l93 -39l-48 -27l-89 40zM881 460l-39 29l6 -40
q0 -4 -3.5 -8t-10.5 -7l-21 -13l-12 92l-27 21q-9 7 -16 4l-8 -6l-14 26l21 12q16 8 23 0l15 -9l-10 58l-26 -16l1 -10q1 -2 0.5 -4.5t-1.5 -4.5t-2.5 -4t-4.5 -3l-24 -14l-20 84l34 19l7 -30l40 23q9 5 17 1t15 -17l20 -109l76 -53zM605 529l-17 29l36 21l-9 14l35 20
l8 -14l38 21l17 -29zM666 507q2 -9 0 -15l14 8l23 -15v28l8 4l-39 38l33 19l41 -41l-7 -4l2 -68l70 -41l-37 -21l-32 18v-37l-38 -22l-1 84l-55 33l-11 -6l-13 58l33 19zM512 -95q63 0 124 16.5t115 47.5q85 49 142.5 126t81 165t12 183.5t-59.5 179.5q-32 55 -77 100
t-98.5 75.5t-115 47.5t-124.5 17q-21 0 -42 -2t-41.5 -5.5t-40.5 -9t-39.5 -12.5t-38.5 -16t-37 -19q-85 -49 -142.5 -126t-81 -165t-12 -183.5t59.5 -179.5q26 -44 60 -81.5t74.5 -66.5t85.5 -49.5t95 -31.5t100 -11zM512 -125q-134 0 -252.5 67t-187.5 188
q-42 71 -58.5 151.5t-7 158t40 149.5t85 133t126.5 102q39 23 81.5 38.5t85.5 23t87 7.5q65 0 129 -17t121.5 -49t106.5 -80t83 -109q52 -89 64.5 -191t-12.5 -195t-86.5 -175t-151.5 -133q-118 -69 -254 -69v0z" />
    <glyph glyph-name="uniE655" unicode="&#xe655;" 
d="M744 -151h-464q-25 0 -43.5 18.5t-18.5 44.5v776q0 26 18.5 44.5t43.5 18.5h464q12 0 23.5 -5t20 -13.5t13.5 -20t5 -24.5v-776q0 -26 -18.5 -44.5t-43.5 -18.5zM280 720q-13 0 -22 -9.5t-9 -22.5v-776q0 -13 9 -22.5t22 -9.5h464q8 0 15.5 4.5t11.5 11.5t4 16v776
q0 13 -9 22.5t-22 9.5h-464zM512 -83q-11 0 -20.5 5.5t-15 14.5t-5.5 21q0 16 12 28t29 12q11 0 20.5 -5t15 -14.5t5.5 -20.5q0 -17 -12 -29t-29 -12zM512 -32q-10 0 -10 -10q0 -6 5 -8t10 0t5 8q0 2 -1.5 4.5t-3.5 4t-5 1.5zM732 28h-443q-6 0 -10.5 4.5t-4.5 10.5v622
q0 3 1 5.5t3.5 4.5t5 3.5t5.5 1.5h443q4 0 7.5 -2t5.5 -5.5t2 -7.5v-622q-1 -13 -15 -15zM305 59h412v590h-412v-590z" />
    <glyph glyph-name="uniE656" unicode="&#xe656;" 
d="M824 -124h-624q-38 0 -65.5 28t-27.5 67v445q0 39 27.5 67t65.5 28h31v95q0 119 82.5 202.5t199.5 83.5q108 0 188 -73t91 -181h-63q-5 40 -24.5 75t-48 60.5t-66 40t-77.5 14.5q-91 0 -155 -65t-64 -157v-95h530q19 0 36 -7.5t29.5 -20.5t20 -30.5t7.5 -36.5v-445
q0 -53 -44 -81q-23 -14 -49 -14zM855 384q0 26 -18.5 44.5t-43.5 18.5h-562q-25 0 -43.5 -18.5t-18.5 -44.5v-381q0 -17 8.5 -31.5t23 -23t30.5 -8.5h562q25 0 43.5 18.5t18.5 44.5v381zM512 67q-52 0 -88.5 37t-36.5 90q0 25 10 48.5t26.5 40.5t40 27.5t48.5 10.5
q52 0 88.5 -37.5t36.5 -89.5q0 -35 -17 -64t-45.5 -46t-62.5 -17zM512 257q-26 0 -44 -18.5t-18 -44.5q0 -13 5 -25t13 -20.5t19.5 -13.5t24.5 -5q26 0 44 18.5t18 45.5q0 10 -3 19.5t-8.5 17.5t-13.5 14t-17.5 9t-19.5 3z" />
    <glyph glyph-name="uniE657" unicode="&#xe657;" 
d="M154 822l796 -796l-80 -80l-796 796zM870 822l80 -80l-796 -796l-80 80z" />
    <glyph glyph-name="uniE658" unicode="&#xe658;" 
d="M350 152l-72 72l159 161l-160 159l72 73l160 -159l160 160l73 -72l-160 -161l161 -159l-73 -73l-160 159z" />
    <glyph glyph-name="uniE659" unicode="&#xe659;" 
d="M744 714q-45 0 -98 -22t-85.5 -44t-62.5 -47l-22 21q-21 22 -28 27.5t-30 22t-39.5 23t-43.5 13t-55 6.5q-109 0 -186.5 -78t-77.5 -187q0 -32 5.5 -59t18.5 -51t23 -38t29 -38l330 -334q43 -43 90 -43t90 43l328 332q78 85 78 188q0 109 -77.5 187t-186.5 78zM882 307
l-327 -331q-24 -24 -43 -24q-20 1 -43 24l-326 329q-34 43 -47.5 71.5t-13.5 72.5q0 32 10 62.5t28.5 55t42.5 42.5t54.5 28.5t62.5 10.5q33 0 67 -16t55.5 -34t46 -40.5t31.5 -27.5q11 -8 22.5 -7t23.5 12l14 12q7 6 22 18t29.5 22t34.5 21.5t38.5 20t39.5 14t40 5.5
q82 0 140 -58.5t58 -140.5q0 -77 -60 -142z" />
    <glyph glyph-name="uniE65A" unicode="&#xe65a;" 
d="M-64 -212h-832q-26 0 -45 19t-19 45v768q0 26 19 45t45 19h96q13 0 22.5 -9.5t9.5 -22.5t-9.5 -22.5t-22.5 -9.5h-96v-768h832v768h-96q-13 0 -22.5 9.5t-9.5 22.5t9.5 22.5t22.5 9.5h96q26 0 45 -19t19 -45v-768q0 -26 -19 -45t-45 -19zM-800 460h640q13 0 22.5 -9.5
t9.5 -22.5t-9.5 -22.5t-22.5 -9.5h-640q-13 0 -22.5 9.5t-9.5 22.5t9.5 22.5t22.5 9.5zM-800 76h640q13 0 22.5 -9.5t9.5 -22.5t-9.5 -22.5t-22.5 -9.5h-640q-13 0 -22.5 9.5t-9.5 22.5t9.5 22.5t22.5 9.5zM-800 268h640q13 0 22.5 -9.5t9.5 -22.5t-9.5 -22.5t-22.5 -9.5
h-640q-13 0 -22.5 9.5t-9.5 22.5t9.5 22.5t22.5 9.5zM-288 620h-384q-13 0 -22.5 9.5t-9.5 22.5t9.5 22.5t22.5 9.5h64q0 53 37.5 90.5t90.5 37.5t90.5 -37.5t37.5 -90.5h64q13 0 22.5 -9.5t9.5 -22.5t-9.5 -22.5t-22.5 -9.5zM-480 748q-26 0 -45 -19t-19 -45h128
q0 26 -19 45t-45 19zM-44 -156v0q0 -13 -9.5 -22.5t-22.5 -9.5q-6 0 -12 2.5t-10.5 7t-7 10t-2.5 12.5q0 78 -30.5 149t-82 122.5t-122.5 82t-149 30.5q-104 0 -192.5 -51.5t-140 -140t-51.5 -192.5q0 -7 -2.5 -12.5t-7 -10t-10.5 -7t-12 -2.5q-13 0 -22.5 9.5t-9.5 22.5
q0 145 84.5 261t218.5 162q-65 39 -104 105t-39 144q0 119 84.5 203.5t203.5 84.5t203.5 -84.5t84.5 -203.5q0 -32 -6.5 -62t-19 -57t-30 -51t-39.5 -44t-48 -35q134 -46 218.5 -162t84.5 -261zM-268 516q0 94 -65.5 161t-158.5 67q-61 0 -112.5 -30.5t-81.5 -83t-30 -114.5
q0 -43 15 -82t41 -68.5t61.5 -49.5t76.5 -26q23 2 30 2h8q4 0 6.5 -0.5t8.5 -1t7 -0.5q83 12 138.5 76t55.5 150zM-32 508v0q-51 -169 -192 -276.5t-320 -107.5t-320 107.5t-192 276.5v0v0v0q51 169 192 276.5t320 107.5t320 -107.5t192 -276.5v0v0zM-544 828
q-152 0 -274 -89t-171 -231q49 -142 171 -231t274 -89t273.5 89t171.5 231q-50 142 -171.5 231t-273.5 89zM-544 348q-66 0 -113 47t-47 113t47 113t113 47t113 -47t47 -113t-47 -113t-113 -47zM-544 604q-40 0 -68 -28t-28 -68t28 -68t68 -28t68 28t28 68t-28 68t-68 28z
M-672 -182q-104 0 -199 40.5t-163.5 109t-109 163.5t-40.5 199t40.5 199t109 163.5t163.5 109t199 40.5t199 -40.5t163.5 -109t109 -163.5t40.5 -199q0 -52 -10.5 -103t-29.5 -96.5t-47.5 -87t-62.5 -75.5t-75.5 -62.5t-87 -47.5t-96.5 -29.5t-103 -10.5zM-672 778
q-91 0 -174 -35.5t-143 -95.5t-95.5 -143t-35.5 -174q0 -73 22.5 -141.5t64 -123.5t96.5 -96.5t123.5 -64t141.5 -22.5q91 0 174 35.5t143 95.5t95.5 143t35.5 174q0 41 -7 80.5t-21 75.5t-33 70t-44 63t-54 54t-63 44t-70 33t-75.5 21t-80.5 7zM-457 115q-5 -5 -11 -7
t-12 -2t-12 2t-10 7l-170 170l-170 -170q-4 -5 -10 -7t-12 -2t-12 2t-11 7q-6 6 -8 14.5t0 16.5t8 14l170 170l-170 170q-9 9 -9 22.5t9 22.5q3 3 6 4.5t6.5 3t7 2t7 0t6.5 -2t6.5 -3t5.5 -4.5l170 -170l170 170q9 9 22.5 9t22.5 -9t9 -22.5t-9 -22.5l-170 -170l170 -170
q9 -9 9 -22.5t-9 -22.5zM-443 -130h-896q-27 0 -45.5 18.5t-18.5 45.5v736q0 26 18.5 45t45.5 19h896q13 0 24.5 -5t20.5 -13.5t14 -20.5t5 -25v-736q0 -27 -19 -45.5t-45 -18.5zM-488 -66l-323 323l-57 -57q-5 -5 -10.5 -7.5t-12.5 -2.5q-4 0 -8 1t-8 3.5t-7 5.5l-57 57
l-323 -323h806zM-1339 -20l322 322l-322 323v-645zM-1293 670l402 -402l402 402h-804zM-765 302l322 -321v643zM-76 274l-46 -46l-161 -161v0l-162 -161q-21 -21 -51 -19q-30 -2 -51 19l-161 161h-1l-207 207q-76 77 -76 184.5t76 184.5q38 37 86.5 56.5t98 19.5t98 -19.5
t86.5 -56.5l46 -46l5 -6l5 6h1l45 46q38 37 86.5 56.5t98 19.5t98 -19.5t86.5 -56.5q50 -50 67.5 -117.5t0 -134.5t-67.5 -117zM-122 596.5q-51 50.5 -122.5 56t-128.5 -35.5l-25 -20l-23 -23l-75 -75l-82 82l-15 16l-26 20q-57 41 -128.5 35.5t-122.5 -56t-56.5 -122.5
t35.5 -128l390 -394l6 -7l4 7l362 361l7 7l20 26q42 56 36.5 128t-56.5 122.5zM992 -212q-13 0 -22.5 9.5t-9.5 22.5v352q0 13 9.5 22.5t22.5 9.5t22.5 -9.5t9.5 -22.5v-352q0 -13 -9.5 -22.5t-22.5 -9.5zM992 268h-960q-13 0 -22.5 9.5t-9.5 22.5t9.5 22.5t22.5 9.5h960
q13 0 22.5 -9.5t9.5 -22.5t-9.5 -22.5t-22.5 -9.5zM960 396h-288q-26 0 -45 19t-19 45v288q0 26 19 45t45 19h288q26 0 45 -19t19 -45v-288q0 -26 -19 -45t-45 -19zM960 748h-288v-288h288v288zM512 396q-13 0 -22.5 9.5t-9.5 22.5v352q0 13 9.5 22.5t22.5 9.5t22.5 -9.5
t9.5 -22.5v-352q0 -13 -9.5 -22.5t-22.5 -9.5zM352 396h-288q-26 0 -45 19t-19 45v288q0 26 19 45t45 19h288q26 0 45 -19t19 -45v-288q0 -26 -19 -45t-45 -19zM352 748h-288v-288h288v288zM64 204h288q26 0 45 -19t19 -45v-288q0 -26 -19 -45t-45 -19h-288q-26 0 -45 19
t-19 45v288q0 26 19 45t45 19zM64 -148h288v288h-288v-288zM512 204q13 0 22.5 -9.5t9.5 -22.5v-352q0 -13 -9.5 -22.5t-22.5 -9.5t-22.5 9.5t-9.5 22.5v352q0 13 9.5 22.5t22.5 9.5zM672 204q13 0 22.5 -9.5t9.5 -22.5v-352q0 -13 -9.5 -22.5t-22.5 -9.5t-22.5 9.5
t-9.5 22.5v352q0 13 9.5 22.5t22.5 9.5zM832 204q13 0 22.5 -9.5t9.5 -22.5v-96q0 -13 -9.5 -22.5t-22.5 -9.5t-22.5 9.5t-9.5 22.5v96q0 13 9.5 22.5t22.5 9.5zM832 -20q13 0 22.5 -9.5t9.5 -22.5v-128q0 -13 -9.5 -22.5t-22.5 -9.5t-22.5 9.5t-9.5 22.5v128q0 13 9.5 22.5
t22.5 9.5z" />
    <glyph glyph-name="uniE65B" unicode="&#xe65b;" 
d="M608 -148h-179h-83q-27 0 -70 2.5t-63.5 8t-44 14.5t-33 24.5t-9.5 36.5v17q0 124 88.5 211t214.5 87h179q126 0 214.5 -87.5t88.5 -210.5v-17q0 -64 -111 -79q-54 -7 -192 -7zM429 205q-69 0 -128 -33.5t-93 -91t-34 -125.5v-17q0 -14 21 -22.5t66 -11.5t77 -3.5
t91 -0.5h179q52 0 83 0.5t78 3.5t70.5 11.5t23.5 22.5v17q0 104 -74.5 177t-180.5 73h-179zM509.5 276q-99.5 0 -169.5 69.5t-70 167t70 167t169.5 69.5t169.5 -69.5t70 -167t-70 -167t-169.5 -69.5zM318 512.5q0 -77.5 56 -133t135.5 -55.5t135.5 55.5t56 133t-56 133
t-135.5 55.5t-135.5 -55.5t-56 -133z" />
    <glyph glyph-name="uniE65C" unicode="&#xe65c;" 
d="M495 722q20 0 40 -2t39.5 -6t38.5 -10t37 -14q36 -15 67.5 -36.5t59 -49t49 -59.5t37.5 -67q31 -74 31 -156q0 -74 -26 -142q-25 -66 -72 -120l-21 -23l-24 -20q-53 -45 -117 -69q-34 -12 -68.5 -18.5t-70.5 -6.5q-41 0 -80 8t-76 24q-35 15 -67 36.5t-59 48.5
q-10 9 -18.5 19t-16 20t-15 20.5t-13.5 21.5t-12 22.5t-11 23.5q-31 74 -31 155q0 41 7.5 80t23.5 76q30 71 86 127q13 13 28 25.5t31 23t33 20t34 16.5q75 32 156 32zM495 786q-175 0 -307 -116q-126 -111 -151 -276q-6 -36 -6 -72q0 -94 37 -180t99 -148t147.5 -98.5
t180.5 -36.5q169 0 298 108l137 -137q5 -5 12 -7.5t14 -2.5q15 0 25.5 10.5t10.5 25.5t-11 25l-137 137q114 131 114 304q0 63 -16.5 123.5t-46.5 111t-72.5 93.5t-93.5 73t-111 46.5t-123 16.5zM453 615l63 -248l73 72l34 -35l-84 -83l47 -48l84 84l35 -35l-84 -84l68 -69
l-43 -43l-69 69l-87 -87l-35 35l87 87l-47 47l-87 -86l-35 34l75 74l-246 66l49 49q179 -53 224 -71l1 1q-8 17 -26 77l-43 148z" />
    <glyph glyph-name="uniE65D" unicode="&#xe65d;" 
d="M774 373zM755 277l18 -10zM755 330l18 -9zM511 747.5q-91 0.5 -173.5 -34.5t-142.5 -95t-95.5 -142.5t-35.5 -173.5t35.5 -173.5t95.5 -142.5t142.5 -95.5t173.5 -35.5t173.5 35.5t142.5 95t95 142t35 173.5t-35 173.5t-95 142t-142.5 95t-173.5 36zM530 569l302 -154
l-302 -153l-304 154zM528 34l-303 154l39 19l1 1l263 -133l264 132l39 -20zM528 149l-303 154l39 19l1 1l263 -133l264 132l39 -20z" />
    <glyph glyph-name="uniE65E" unicode="&#xe65e;" 
d="M263 410q-2 2 -3 4l-2 5q2 -4 5 -9zM762 122q0 -1 -1 -2v-1zM865 232q-42 0 -77.5 -21.5t-55.5 -56.5l-422 168q2 10 3.5 19.5t1.5 19.5t-1.5 19t-3.5 18t-5 17l360 195q21 -28 53 -44.5t69 -16.5q63 0 108 44.5t45 108t-45 108t-108 44.5t-108 -44.5t-45 -108.5
q0 -28 11 -55l-360 -195q-21 29 -53.5 46t-69.5 17q-41 0 -76.5 -20.5t-56 -55.5t-20.5 -77q0 -31 12 -59t32.5 -48.5t49 -32.5t59.5 -12q41 0 76 20.5t56 54.5l423 -168q-2 -9 -3.5 -18.5t-1.5 -18.5q0 -41 20.5 -76.5t56 -56t76.5 -20.5q63 0 108 45t45 108q0 18 -4 35
t-11.5 32t-18 28.5t-24 24t-28.5 18t-32 11.5t-35 4zM787 813q46 0 79 -32.5t33 -79t-33 -79t-79 -32.5q-30 0 -56 15t-41 40.5t-15 55.5q0 23 9 44t24 36t35.5 23.5t43.5 8.5zM162 250q-30 0 -56 15t-41 40.5t-15 56t15 56t41 40.5t56 15t55.5 -14.5t40.5 -39.5q2 -4 5 -9
q5 -11 8 -23.5t3 -25.5q0 -30 -15 -55.5t-41 -40.5t-56 -15zM865 -33q-46 0 -79 33t-33 79q0 21 8 40l1 3q8 20 23.5 35.5t36 24.5t43.5 9q46 0 79 -33t33 -79t-33 -79t-79 -33z" />
    <glyph glyph-name="uniE65F" unicode="&#xe65f;" 
d="M909 470v-567h-794v794h675v80h-695q-17 0 -30.5 -8t-21.5 -22t-8 -30v-834q0 -25 17.5 -42.5t42.5 -17.5h834q25 0 42.5 17.5t17.5 42.5v587h-80zM790 268.5q14 13.5 14 32.5t-14 33t-33 14h-200v200q0 19 -13.5 32.5t-33 13.5t-33 -13.5t-13.5 -32.5v-200h-200
q-19 0 -32.5 -14t-13.5 -33t13 -33q5 -4 10 -7t11 -4.5t12 -1.5h200v-200q0 -20 13.5 -33.5t33 -13.5t33 13.5t13.5 33.5v200h200q19 0 33 13.5z" />
    <glyph glyph-name="uniE660" unicode="&#xe660;" 
d="M833 549h-186v84q0 35 -21 56t-57 21h-105q-37 0 -57 -21t-20 -56v-84h-186q-24 0 -43.5 -11.5t-31 -31t-11.5 -43.5v-459q0 -23 11.5 -42.5t31 -31t43.5 -11.5h632q23 0 43 11.5t31.5 31t11.5 42.5v459q0 24 -11.5 43.5t-31.5 31t-43 11.5zM436 633q0 9 3.5 15.5t9 8.5
t9 2.5t6.5 0.5h88q16 0 30.5 -6t14.5 -21v-84h-161v84zM833 -32h-632q-15 0 -26 10.5t-11 25.5v224h39q3 0 6 1.5t4.5 4.5t1.5 6q0 5 -3.5 8.5t-8.5 3.5h-39v211q0 6 2 11.5t5.5 10t8 8t10 5.5t11.5 2h211v0h210v0h211q15 0 25.5 -11t10.5 -26v-211h-272v12q0 21 -14.5 35.5
t-35.5 14.5h-60q-7 0 -13.5 -1.5t-12 -5t-10.5 -8t-8 -10t-5 -12t-2 -13.5v-12h-159q-5 0 -8.5 -3.5t-3.5 -8.5t3.5 -8.5t8.5 -3.5h159v-24q0 -14 7 -25.5t18.5 -18t25.5 -6.5h60q13 0 25 6.5t18.5 18t6.5 25.5v24h272v-224q0 -7 -3 -13.5t-7.5 -11.5t-11.5 -8t-14 -3z
M572 264v-60q0 -11 -7.5 -18.5t-17.5 -7.5h-60q-6 0 -10.5 2t-8 5.5t-5.5 8.5t-2 10v60q0 11 7.5 18.5t18.5 7.5h60q20 -7 25 -26z" />
    <glyph glyph-name="uniE661" unicode="&#xe661;" 
d="M828 616q-42 42 -92.5 71.5t-107 44.5t-116 15t-116 -15t-107.5 -44.5t-93 -71.5q-63 -63 -96.5 -144.5t-33.5 -171.5q0 -133 72 -243q4 -7 11.5 -11t16 -3.5t15.5 5.5q11 7 13.5 19.5t-4.5 23.5q-20 31 -34 65t-21 70.5t-7 73.5q0 105 51.5 193.5t140 140t192.5 51.5
q78 0 149.5 -30.5t123 -82t82 -123t30.5 -149.5q0 -104 -51.5 -192.5t-140 -140t-193.5 -51.5q-107 0 -198 55q-11 7 -23.5 4t-19.5 -14.5t-4 -24t14 -18.5q107 -64 231 -64q90 0 171.5 33.5t144.5 97t97 145t34 171t-34 171t-97 144.5zM608 310q12 11 21.5 22t17.5 21.5
t13 21.5q5 7 8 15t5 16.5t3 17t1 17.5q0 74 -42 115t-115 41q-74 0 -120 -47q-47 -47 -47 -107q0 -42 42 -42q41 0 43 43q2 29 23 49t56.5 20t55.5 -18t20 -50q0 -14 -2 -24t-8.5 -20t-17.5 -21t-28 -29q-77 -75 -77 -150l2 -22q1 -9 6 -15q1 -2 3.5 -3.5t5 -2.5t4.5 -1
q9 -3 25 -3q39 0 39 47q0 14 2 25q1 6 3 11.5t5 11.5q7 11 19.5 25.5t33.5 35.5zM530 127q-6 3 -12 4t-13 1t-13 -1t-11.5 -4t-10.5 -6t-10 -8q-9 -9 -14 -20l-2 -6l-2 -6v-6q-1 -3 -1 -7q0 -13 5 -24.5t14 -20.5t20.5 -14t24.5 -5t24.5 5.5t20.5 14t14 20t5 24.5t-5 24.5
t-14 20.5t-20 14z" />
    <glyph glyph-name="uniE662" unicode="&#xe662;" 
d="M966 527v-605q0 -13 -4 -24.5t-11 -20.5t-16 -16t-20.5 -11t-24.5 -4h-756q-32 0 -54 22t-22 54v378q0 31 22 53.5t54 22.5h681v-76h-681v-378h756v605h-302q-63 0 -107.5 44t-44.5 107h-302v-227h-76v227q0 32 22 54t54 22h302q32 0 54 -22t22 -54q0 -10 2.5 -20
t7.5 -18t12 -15t15.5 -12t18 -7.5t20.5 -2.5h302q10 0 20 -3t18.5 -8t15.5 -12t11.5 -15t7.5 -18t3 -20z" />
    <glyph glyph-name="uniE663" unicode="&#xe663;" 
d="M369 -82l37 -4l19 178q1 20 13 32q2 1 50.5 47t116.5 111l136 128q68 65 115 110l47 45q-2 -8 -6.5 -22.5t-17.5 -57t-25.5 -84t-29.5 -96t-30 -100.5q-65 -212 -66 -214q-2 -9 -11 -5q-230 100 -235 100l-15 -35q4 -2 12 -5.5t31 -13.5t44 -19t48 -20.5t47 -20t36 -15.5
t20 -9q19 -7 36.5 2t22.5 29q3 9 70 228q116 381 118 389q0 1 1 4l1 4q1 2 1.5 5t0 4.5t-1 4.5t-1.5 5t-3.5 4.5t-5.5 4.5q-7 3 -13.5 2t-11.5 -4l-5 -3l-4 10q-800 -327 -829 -338q-20 -9 -22.5 -27.5t14.5 -25.5q244 -107 243 -107l16 34l-219 97l746 306l-441 -419
q-14 -12 -21.5 -26t-9.5 -32l-18 -181v0zM369 -82z" />
    <glyph glyph-name="uniE664" unicode="&#xe664;" 
d="M203 -44h-124q-3 0 -6.5 2t-5.5 5.5t-2 6.5v330q0 4 2 7t5.5 5t6.5 2h124q4 0 7 -2t5 -5t2 -7v-330q0 -2 -0.5 -4t-2 -4t-3 -3t-4 -2t-4.5 -1zM94 -15h95v301h-95v-301zM430 492q-49 0 -83.5 34t-34.5 82.5t34.5 83t83 34.5t83 -34.5t34.5 -82.5q0 -32 -16 -59t-43 -42.5
t-58 -15.5zM429.5 698q-36.5 0 -62.5 -26t-26 -63q0 -24 12 -44.5t32.5 -32.5t44.5 -12q36 0 62 26t26 63t-26 63t-62.5 26zM718 286q-32 0 -59 15.5t-42.5 42.5t-15.5 59q0 48 34.5 82.5t82.5 34.5q32 0 59 -15.5t42.5 -42.5t15.5 -59q0 -12 -2.5 -23.5t-6.5 -22t-10.5 -20
t-14.5 -17.5t-17.5 -14.5t-20 -10.5t-22 -6.5t-23.5 -2.5zM718 492q-37 0 -63 -26t-26 -63q0 -9 2 -18t5.5 -16.5t8 -15t10.5 -13.5t13.5 -10.5t15 -8t16.5 -5.5t18 -2q37 0 63 26t26 63q0 12 -3.5 23.5t-9 21.5t-14 18t-18 13.5t-21 9t-23.5 3.5zM656 39h-288
q-4 0 -7.5 1.5t-5 5t-1.5 7.5t1.5 7t5 5t7.5 2h273q-4 20 -16 37.5t-28.5 29.5t-27 18t-19.5 10h-141q-2 0 -4 1l-4 2q-2 1 -3 3q-9 12 -21 22.5t-24 18t-25.5 13t-25.5 9.5t-24 6.5t-21 4t-17.5 2t-11.5 1t-4 0.5q-4 0 -7.5 1.5t-5.5 5t-2 7.5t2 7t5.5 5t7.5 2
q6 0 15.5 -0.5t34.5 -5t47.5 -12.5t49 -25t45.5 -39h137q2 0 3 -0.5t2 -0.5q6 -3 14.5 -7t27 -16.5t33 -27t26 -38t11.5 -48.5q0 -6 -4 -10t-10 -4zM512 -126h-103q-2 0 -4 1q-64 21 -209 104q-12 7 -5 19t19 5q142 -80 201 -101h98l418 159q-6 14 -14.5 25.5t-27.5 23
t-43 11.5h-227q-4 0 -7 2t-5 5t-2 7t2 7.5t5 5t7 1.5h227q49 0 78.5 -30t37.5 -63q2 -5 -0.5 -9.5t-7.5 -6.5l-433 -165z" />
    <glyph glyph-name="uniE665" unicode="&#xe665;" 
d="M778 -6q-99 0 -171 51q-5 4 -16 12t-40 30t-59 47.5t-69.5 59.5t-75 70.5t-72 76.5t-65 81.5t-49.5 81.5t-29.5 80t-0.5 75q0 1 0.5 2.5t1.5 3t2 2.5q17 21 36 42t51 46t54 25q2 0 3.5 -0.5t3.5 -0.5t4 -0.5t3.5 -1.5t3.5 -1q20 -11 52.5 -50t57 -85.5t22.5 -71.5
q-1 -14 -5.5 -27t-9 -20t-13.5 -20q-6 -8 -9 -13t-7.5 -13t-8.5 -16l207 -210q1 0 1.5 -1t1.5 -2h3q9 0 24 7q5 3 10 5.5t10 5.5t8.5 5t8.5 5l21 12q7 4 16.5 7t17.5 3h7q24 -4 177 -113q2 -1 5 -4t8.5 -11t6.5 -17q3 -13 -1 -27t-14 -28q-13 -19 -36.5 -44t-35 -36
t-18.5 -17q-6 -5 -12 -5zM169 646q-7 -42 14.5 -96.5t63.5 -109t92.5 -109.5t107 -104.5t102 -86t81.5 -62.5q26 -19 60 -29.5t53 -12.5t35 -2h1q8 7 17 16l20 20q12 12 23.5 25.5t18.5 24.5q11 15 9 24q-1 5 -3 7q-136 96 -162 106q-6 0 -35 -17q-24 -14 -39 -22
q-24 -11 -42 -11q-25 0 -36 17l-214 217q-9 9 -5 20q10 29 34 64q20 29 21 47q2 25 -42 90.5t-68 77.5q-6 0 -15 -5.5t-20 -14.5t-23.5 -21t-25 -25.5t-23.5 -27.5z" />
    <glyph glyph-name="uniE666" unicode="&#xe666;" horiz-adv-x="1025" 
d="M185 364q18 -2 34 4t28 18l207 -74q2 -28 21 -48t46 -23q32 -4 56.5 16t28.5 51v4v5l174 127q14 -8 29 -10q21 -2 39.5 6t30.5 24.5t15 37.5q3 31 -16.5 55.5t-51 28t-56 -16t-28.5 -50.5q-2 -20 6 -38l-159 -116q-10 11 -22.5 18t-27.5 9t-28.5 -2t-24.5 -11.5
t-19 -19.5l-198 71q1 1 1 2q2 20 -6.5 38.5t-24.5 31t-37 14.5q-15 2 -29.5 -2.5t-26 -13.5t-19 -22.5t-9.5 -28.5q-1 -7 -0.5 -14t2.5 -13.5t4.5 -12.5t6 -11t8 -10t10 -9t11 -7t12 -5t13.5 -3zM791 513q1 11 10 18t20 6q7 -1 13 -5t9 -11t2 -14q-1 -11 -10 -18t-20 -6
t-18 10t-6 20zM503 319q1 8 5.5 13.5t11 8.5t13.5 2q11 -1 18 -10t6 -20q-1 -7 -5.5 -13t-11 -8.5t-13.5 -2.5q-11 2 -18 10.5t-6 19.5zM167 443q1 11 10 18t20 6t18 -10t6 -20q-1 -7 -5.5 -13t-11 -8.5t-13.5 -2t-13 5t-9 11t-2 13.5zM182 175q15 -1 29.5 3.5t26 13.5
t19 22t9.5 29q2 21 -7 40l59 52l-53 19l-39 -35q-7 3 -13.5 5t-13.5 3q-32 3 -56.5 -16.5t-28.5 -50.5q-1 -11 0.5 -21t5.5 -19t10.5 -16.5t14 -13.5t17 -9.5t20.5 -5.5zM826 191q32 -3 56.5 16.5t27.5 50.5q2 16 -2.5 30.5t-13.5 26t-22 19t-29 9.5q-14 1 -27 -2.5
t-24 -10.5l-65 44l-43 -31l78 -52l-3 -16q-4 -31 16 -55.5t51 -28.5zM402 409l43 38q16 -13 37 -15q28 -3 51 13l65 -43l42 30l-77 52q1 4 1.5 7.5t1.5 7.5q1 8 0 15.5t-3 14.5t-5.5 14t-8 12.5t-10 10.5t-12 8.5t-14 6t-14.5 2.5q-32 4 -56.5 -15.5t-28.5 -51.5v-10
q0 -4 0.5 -9t2.5 -9l-68 -60zM1000 50h-950v693q0 10 -7.5 17t-17.5 7t-17.5 -7t-7.5 -17v-718q0 -10 7.5 -17t17.5 -7h975q10 0 17 7t7 17t-7 17.5t-17 7.5z" />
    <glyph glyph-name="uniE667" unicode="&#xe667;" 
d="M836 519h-795h-37v-245l37 -25v25h795l184 122z" />
    <glyph glyph-name="uniE668" unicode="&#xe668;" 
d="M684 448h6q4 0 7 -0.5t6 -0.5t6 -0.5t7 -0.5q-22 99 -115.5 164t-214.5 65q-44 0 -86 -10t-78 -27.5t-66 -43t-51 -56t-33 -66.5t-12 -74q0 -129 131 -221l-33 -98l114 58q84 -17 114 -17q17 0 31 2q-10 33 -10 68q0 70 36.5 129.5t100.5 94t140 34.5zM509 536
q12 0 21 -5t14 -14t5 -21q0 -19 -11 -30t-29 -11q-13 0 -24 5t-18.5 14.5t-7.5 21.5q1 17 16 28.5t34 11.5zM280 455q-19 0 -34 11.5t-15 29t15 29t34 11.5t30 -11t11 -29q0 -32 -29 -40zM982 194q0 97 -83 166.5t-194 69.5q-116 0 -197 -69t-81 -167q0 -65 37 -119.5
t100.5 -86t140.5 -31.5q15 0 34 3t30 5.5t34 7.5l89 -49l-24 82q25 19 45 40t36 44.5t24.5 50t8.5 53.5zM615 234q-12 0 -22.5 10.5t-10.5 22.5t10.5 22t22.5 10q9 0 16.5 -2.5t13 -7t8.5 -10.5t3 -12q0 -13 -12 -23t-29 -10zM794 234q-12 0 -22 10.5t-10 22.5t10 22t22 10
q9 0 17 -2.5t13 -7t8 -10.5t3 -12q0 -4 -1 -7t-3 -6.5t-4.5 -6.5t-6 -5t-7.5 -4t-9 -3t-10 -1z" />
    <glyph glyph-name="uniE669" unicode="&#xe669;" horiz-adv-x="1628" 
d="M759 -201l362 362l9 9q5 5 14 23t9 35v223l-44 -25v-120q1 -4 -0.5 -12.5t-13.5 -32t-35 -44.5q-21 -20 -111 -110l-169 -169l-80 -80zM861 465q2 7 4.5 18t13 43.5t22 62.5t30.5 66t39.5 62.5t48.5 45t57 19.5q41 1 72 -10t49.5 -29t30 -42t14.5 -46t2 -45
q-3 -55 -47 -98.5t-88 -51.5v32v19v6q4 1 9.5 2.5t20 9.5t25.5 18t20 27.5t9 37.5q0 23 -6.5 44.5t-19.5 40.5t-36.5 29t-54.5 7q-28 -3 -56.5 -35t-48.5 -74t-36 -86t-24 -72t-8 -29l-16 -15zM1010 627h40v-310q1 -11 -7 -25.5t-15 -23.5l-8 -9l-461 -457l-335 340l454 453
q15 14 28 22t19 9l6 1h240l-55 -139l6 -27l2 -29q-4 -17 -18.5 -28.5t-33.5 -11.5q-21 0 -37.5 16t-16.5 38q0 8 5 18.5t15 20.5t22 12l16 51q-20 -4 -37 -11.5t-29.5 -17.5t-21 -22t-12.5 -25t-4 -27q0 -21 8 -39.5t21.5 -32.5t32.5 -22t39.5 -8t39 8t32.5 22t22 32.5
t8 39.5q-2 19 -10 44q-6 18 27 97z" />
    <glyph glyph-name="uniE66A" unicode="&#xe66a;" 
d="M410 194l-188 76v-64l188 -75v63zM410 389l-188 76v-64l188 -75v63zM915 715q-7 5 -14 7t-15 1.5t-15 -3.5l-358 -143l-358 143q-23 9 -44 -5t-21 -38v-601q0 -15 8.5 -27t21.5 -17l375 -150q7 -2 9 -3q5 -1 9 -1q2 0 4.5 0.5t4.5 0.5l9 3l375 150q13 5 21 17t8 27v601
q0 24 -20 38zM466 -25l-300 120v526l300 -120v-526zM860 95l-300 -120v526l300 120v-526zM804 270l-188 -76v-63l188 75v64zM804 465l-188 -76v-63l188 75v64z" />
    <glyph glyph-name="uniE66B" unicode="&#xe66b;" 
d="M517 803q-188 0 -330 -121q-136 -116 -169 -290q-9 -48 -9 -97q0 -103 40 -197t108 -162t162 -108t197.5 -40t197.5 40t162 108t108 162t40 197.5t-40 197.5t-108 162t-162 108t-197 40zM517 755q93 0 178 -36t147 -98t98 -147t36 -179q0 -168 -108 -297
q-29 69 -81 121.5t-122.5 82.5t-147.5 30q-117 0 -212 -64.5t-139 -169.5q-52 62 -80.5 138t-28.5 159q0 94 36 179t98 147t147 98t179 36zM202 -40q35 99 121 161.5t193.5 62.5t194 -62.5t120.5 -161.5q-63 -59 -144 -91.5t-170.5 -32.5t-170.5 32.5t-144 91.5zM517 262
q78 0 134 55.5t56 134.5t-56 134.5t-134.5 55.5t-134.5 -55.5t-56 -134.5t56 -134.5t135 -55.5zM517 595q59 0 100.5 -42t41.5 -101q0 -39 -19 -72t-52 -52t-71 -19q-60 0 -101.5 42t-41.5 101q0 39 19 71.5t52 52t72 19.5zM517 595z" />
    <glyph glyph-name="uniE66C" unicode="&#xe66c;" 
d="M566 644l104 -196h106l-127 240q-6 11 -17 18.5t-25 7.5q-9 0 -18 -4t-15 -10t-9.5 -15t-3.5 -18q0 -12 6 -23h-1zM461 644q6 11 6 23q0 13 -6.5 23.5t-17 17t-23.5 6.5q-29 0 -42 -26l-126 -240h105zM1013 355v3v2q0 1 -1 2q-2 16 -14 27t-28 12h-909q-19 0 -33 -13.5
t-14 -33t14 -33t33 -13.5h42l100 -402q4 -16 16.5 -26t28.5 -10h1h530q16 0 28.5 10t16.5 26l101 402h41q10 0 18.5 3.5t15 10t10 15t3.5 17.5v1zM373 11q0 -20 -13.5 -33.5t-33 -13.5t-33 13.5t-13.5 33.5v250q0 13 6 23.5t17 17t23 6.5q20 0 33.5 -14t13.5 -33v-250z
M561 11q0 -20 -14 -33.5t-33.5 -13.5t-33 13.5t-13.5 33.5v250q0 19 13.5 33t33.5 14q12 0 23 -6.5t17.5 -17t6.5 -23.5v-250zM748 11q0 -20 -14 -33.5t-33 -13.5t-33 13.5t-14 33.5v250q0 13 6.5 23.5t17 17t23.5 6.5q19 0 33 -14t14 -33v-250z" />
    <glyph glyph-name="uniE66D" unicode="&#xe66d;" 
d="M804 89q-22 0 -40 -10t-29 -27.5t-11 -37.5q0 -31 23.5 -53t56 -22t56 22t23.5 53t-23.5 53t-55.5 22zM804 -24q-17 0 -28.5 11t-11.5 26.5t11.5 26.5t28 11t28 -11t11.5 -26q0 -26 -25 -35q-8 -3 -14 -3zM959 55q-2 6 -4.5 12t-5 11.5t-5.5 10.5q34 44 14 63l-9 9
q-17 16 -66 -14q-6 3 -12 5l-12 6q-6 2 -13 3q-9 53 -37 53h-10q-10 0 -19 -12t-13 -22t-6 -19q-10 -3 -19 -6.5t-17 -8.5q-47 33 -67 14l-10 -8q-17 -16 16 -63q-2 -5 -4 -9l-4 -8q-2 -4 -3.5 -8.5t-3.5 -9.5q-6 -1 -13.5 -2.5t-18.5 -5.5t-18 -11t-7 -16v-10q0 -23 58 -36
q2 -9 6 -17.5t9 -16.5q-33 -47 -16 -64l10 -7q12 -9 26.5 -5.5t27 10.5t12.5 8l-2 2q4 -2 8.5 -4.5t9.5 -4.5t10 -3.5t10 -2.5q14 -55 38 -55h10q5 0 9.5 2t7.5 5t6 7t5 9l4 8q2 5 3 9t1.5 7t0.5 5l1 2h-3q20 5 39 14q47 -30 64 -14l11 10q6 6 6.5 14.5t-2 15.5t-7.5 15.5
t-7.5 11.5t-3.5 5q10 16 15 34q56 14 56 36v10q0 10 -8 17t-19.5 11t-18 5.5t-10.5 2.5zM804 -99q-50 0 -84.5 33t-34.5 80q0 30 16 56t43 41.5t60 15.5q49 0 83.5 -33.5t34.5 -79.5q0 -60 -51 -93q-31 -20 -67 -20zM141 -51q-3 0 -6.5 1t-5.5 2.5t-4 4t-3 5.5t-1 6v196
q0 14 -9.5 24t-23.5 11q-14 -1 -24 -11t-10 -24v-202q0 -37 26.5 -63.5t63.5 -26.5h459q1 23 24 57q-6 10 -10 20h-476zM109 263q13 -7 27.5 -11.5t30 -7t33.5 -2.5q89 1 147 69q27 -32 65 -50t81 -18q89 0 145 68q58 -68 148 -68q52 0 92 22q31 17 53.5 43t34.5 58.5
t12 67.5q0 31 -9 60v1l-2 6l-82 199q-4 11 -9.5 21.5t-13 20t-16.5 17.5t-19 14.5t-22 10t-23 3.5h-576q-34 0 -61.5 -25.5t-38.5 -59.5l-88 -203q-1 -2 -2 -5q-4 -15 -6.5 -30t-2.5 -30q0 -54 27.5 -100t74.5 -71zM237 558h514q14 0 23.5 -9.5t9.5 -24.5q0 -9 -4 -19
t-12 -16.5t-17 -6.5h-514q-15 0 -27 12t-12 26q0 24 24 35q8 3 15 3zM878 214h2h-4h2v0zM86 199h2h1h-3z" />
    <glyph glyph-name="uniE66E" unicode="&#xe66e;" 
d="M980 705q-5 1 -18 1h-52h-433h-103q-2 0 -5 -1t-5 -2.5t-3.5 -3.5t-2.5 -4.5t-1 -5.5q0 -7 5 -12t12 -5l584 -1l-54 -399h-568l-1 2l-149 469q-2 6 -8 10q-5 5 -11 5h-121q-7 0 -12 -5.5t-5 -12.5t5 -12t12 -5h109l147 -460q1 -4 5 -7q1 -8 5 -13.5t10 -5.5h588q7 0 14 6
q12 3 13 15l58 428q1 5 -1 9t-5.5 7t-8.5 3zM669 396v138q0 7 -5.5 12t-12.5 5q-5 0 -9 -2t-6 -6t-2 -9v-138q0 -7 5 -12t12 -5t12.5 5t5.5 12zM755 396v138q0 7 -5 12t-12 5t-12.5 -5t-5.5 -12v-138q0 -7 5.5 -12t12.5 -5t12 5t5 12zM841 396v138q0 7 -5 12t-12 5t-12 -5
t-5 -12v-138q0 -7 5 -12t12 -5t12 5t5 12zM409 396v138q0 7 -5 12t-12 5t-12.5 -5t-5.5 -12v-138q0 -5 2.5 -9t6.5 -6t9 -2q7 0 12 5t5 12zM495 396v138q0 7 -5 12t-12 5t-12 -5t-5 -12v-138q0 -7 5 -12t12 -5t12 5t5 12zM582 396v138q0 5 -2.5 9t-6.5 6t-8 2q-8 0 -13 -5
t-5 -12v-138q0 -7 5 -12t12.5 -5t12.5 5t5 12zM437 185q-37 0 -63 -25.5t-26 -61.5t26 -62t62.5 -26t62.5 26t26 61q0 11 -2.5 20.5t-7 18t-10.5 16.5t-13.5 13.5t-16 10t-18.5 7t-20 2.5zM436.5 45q-22.5 0 -38 15.5t-15.5 37t15.5 37t38 15.5t38 -15.5t15.5 -37t-15.5 -37
t-38 -15.5zM820 185q-36 0 -62 -25.5t-26 -61.5t26 -62t62.5 -26t62 26t25.5 61q0 50 -43 75q-21 12 -45 13zM820 45q-22 0 -37.5 15.5t-15.5 37t15.5 37t37.5 15.5t37.5 -15.5t15.5 -37.5q0 -10 -4 -20t-11 -17t-17 -11t-21 -4z" />
    <glyph glyph-name="uniE66F" unicode="&#xe66f;" 
d="M413 478v-189q-1 -2 -1.5 -6.5t0.5 -16t5 -20t15.5 -15.5t28.5 -7h263v-282q-433 -1 -529 0q-27 0 -46 12.5t-26 29.5t-12 35t-3 29.5t0 12.5v89v328h305zM57 720h404v-168h-404v168zM798 283h169v-403h-169v403z" />
    <glyph glyph-name="uniE670" unicode="&#xe670;" 
d="M120 -85l263 74l27 27l-185 186l-27 -28zM256 233l185 -186l363 362l-186 186zM887 604l-74 74q-13 14 -24 21t-21.5 10t-20.5 0t-21 -10t-24 -21l-53 -52l186 -186l52 53q32 32 32 55.5t-32 55.5v0zM380 673q-32 32 -55.5 32t-55.5 -32l-176 -176l-31 31l186 185
q15 16 35.5 24t41 8t41 -8t36.5 -24l102 -102l-31 -31l-93 93v0zM170 481l62 62l31 -31l-62 -61l-3 3l34 -34l93 92l31 -31l-93 -92l9 -10l-31 -31l-148 149l31 31zM603 49l92 -93l47 -46l145 145q32 32 32 55.5t-32 55.5l-97 98l31 31l106 -107q16 -16 24 -36.5t8 -41
t-8 -41t-24 -35.5l-154 -155l-31 -31l-31 31l-153 153l31 31l14 -14v0zM726 111l-92 -93l-31 31l92 93zM742 64l31 -30l-78 -78l-30 31zM742 64z" />
    <glyph glyph-name="uniE671" unicode="&#xe671;" 
d="M793 -30q-15 0 -25 10.5t-10 24.5v35h35q11 0 21 1t17 3t13 4t9 4t5.5 3.5t3.5 2.5l1 1v-54q0 -14 -10.5 -24.5t-24.5 -10.5h-35zM196 -30q-14 0 -24.5 10.5t-10.5 24.5v54l13 -9q22 -10 57 -10h35v-35q0 -14 -10 -24.5t-25 -10.5h-35zM962 338q0 22 -11 41t-30 30
t-41 11q-10 0 -19.5 -3t-18 -7.5t-16 -11t-13 -14.5t-8.5 -17l-39 -87q-4 3 -35.5 11.5t-94.5 18t-122 9.5t-123 -9.5t-97 -18t-36 -11.5l-37 81q-7 26 -28.5 42.5t-48.5 16.5q-34 0 -58 -24t-24 -58q0 -27 17 -48.5t43 -29.5l15 -129q4 -15 16 -26.5t24 -17t26 -8.5
t20 -3.5t8 -0.5h562q3 0 8.5 0.5t19.5 3.5t26 8.5t24 17t16 26.5l15 129q26 8 43 29.5t17 48.5zM144 462q-3 0 -7 -1h-4v0q0 28 8.5 53.5t24 46.5t36 36.5t46.5 24t53 8.5h422q70 0 119 -49.5t49 -119.5v0h-4q-4 1 -7 1q-25 0 -47.5 -10t-40 -28t-26.5 -41l-20 -45
q-25 8 -99 15.5t-133 7.5q-60 0 -135 -7.5t-101 -16.5l-17 39q-13 38 -45.5 62t-71.5 24z" />
    <glyph glyph-name="uniE672" unicode="&#xe672;" 
d="M764 156q-9 0 -17 -1v-1q0 -77 -68 -131q-38 -30 -88 -43q6 -19 17.5 -35.5t28 -29.5t36.5 -23t43.5 -15t47.5 -5q74 0 126.5 41.5t52.5 100.5t-52.5 100.5t-126.5 41.5zM764 156zM857 588q-4 23 -30 38.5t-63 15.5q-50 0 -77 -27l83 -436q70 -1 123.5 -38t66.5 -92z
M857 588zM277 154v1q-8 1 -17 1q-74 0 -126.5 -41.5t-52.5 -100.5t52.5 -100.5t126.5 -41.5q62 0 110 30.5t63 77.5q-50 13 -88 43q-68 54 -68 131zM277 154zM254 179l83 436q-13 12 -33 19.5t-44 7.5q-37 0 -63 -15.5t-30 -38.5l-103 -539q13 55 66.5 92t123.5 38zM254 179
zM720 162v0q0 6 -0.5 11.5t-1.5 10.5q-7 41 -36.5 74t-74.5 52q-6 2 -12.5 4.5t-13 4t-13.5 3.5t-14 3l-14 2q-7 1 -14 1h-15q-16 0 -31 -1.5t-29.5 -5t-27.5 -8.5t-26 -11q-25 -14 -45 -32t-32.5 -41t-16.5 -47q-1 -10 -1 -20v-4q2 -49 36 -88.5t88 -58.5q40 -14 85 -14
q34 0 67 8q62 17 101.5 60t40.5 97zM720 162zM282 204q6 26 21.5 49.5t38 42.5t50.5 32q56 28 121 28q52 0 100 -19q24 -10 45 -23.5t37 -30.5t27.5 -37.5t17.5 -41.5l-76 398l-45 231q-4 27 -34.5 45t-73.5 18t-73 -18t-35 -45l-54 -279l-67 -350v0zM282 204z" />
    <glyph glyph-name="uniE673" unicode="&#xe673;" 
d="M677 437l-105 14l-46 85q-2 4 -6.5 6.5t-9.5 2.5q-10 0 -15 -9l-46 -87l-102 -15q-11 -3 -15 -13q-1 -2 -1 -4.5t1 -5t2 -4.5t3 -4l74 -66l-16 -93q-2 -11 7 -18l10 -3q4 0 8 2l92 46l94 -45q10 -5 18.5 2t6.5 18l-19 93l75 67q4 4 5 9t-0.5 10t-5.5 8.5t-9 3.5zM581 359
q-8 -7 -6 -17l14 -68l-69 33q-8 4 -16 0l-68 -34l12 68q1 9 -6 16l-52 47l73 11q4 0 7.5 2.5t5.5 6.5l35 65l34 -64q2 -3 5.5 -5.5t7.5 -3.5l76 -9zM949 83v2l-1 1q-6 12 -14.5 32.5t-22.5 82t-19 130.5t6 176t43 219v1v1q23 50 7 76q-13 20 -54 20q-8 0 -17.5 -0.5
t-20 -2.5t-21.5 -4l-2 -1h-1q-22 -8 -56.5 -18.5t-129.5 -27.5t-182 -17q-152 0 -273 48h-1q-43 21 -80 21q-26 0 -38 -15q-9 -10 -11 -29.5t3 -47.5l1 -3l1 -3q8 -14 18 -39t28 -95.5t25 -143.5t-4 -178t-47 -205v-1q-2 -3 -3.5 -7.5t-5 -16.5t-5 -23t0.5 -24t8 -22
q16 -25 64 -25q9 0 18.5 0.5t20 2t21.5 4.5h2q131 36 338 36q160 0 321 -28h1q17 -4 35 -4q37 0 52 21q22 31 -5 107zM908 13l-4 -3q-1 -2 -3 -3.5t-5 -2.5h-4q-3 -1 -6 -1q-5 0 -10 1h1h-2q-165 29 -329 29q-92 0 -179.5 -9.5t-119 -16t-52.5 -12.5q-4 -1 -8 -1l-8 -2h-7
h-7q-27 0 -37 15t-1 37l1 1q26 74 40 150t15.5 138.5t-4.5 125t-15 106.5t-22 85.5t-20 59t-13 30.5v2l-1 1q-1 13 6 20q3 4 8 5.5t11 1.5q4 0 9 -1t9.5 -2t8.5 -2.5t6.5 -2.5t4.5 -2l1 -1q64 -25 137.5 -38t153.5 -13q89 0 184.5 16t134 27.5t64.5 20.5v1h1q15 3 26 3
q19 0 26 -11q3 -8 2.5 -12.5t-2.5 -7.5l-1 -2l-1 -2q-32 -113 -43.5 -222t-7 -181t18.5 -137.5t23.5 -90.5t17.5 -42l1 -1q13 -38 1 -54z" />
  </font>
</defs>
</svg>
