<?xml version="1.0" standalone="no"?>
<!DOCTYPE svg PUBLIC "-//W3C//DTD SVG 1.1//EN" "http://www.w3.org/Graphics/SVG/1.1/DTD/svg11.dtd" >
<svg xmlns="http://www.w3.org/2000/svg">
<metadata>
Created by FontForge 20120731 at Tue Mar 22 10:47:52 2016
 By Ads
</metadata>
<defs>
<font id="iconfont" horiz-adv-x="1024" >
  <font-face 
    font-family="iconfont"
    font-weight="500"
    font-stretch="normal"
    units-per-em="1024"
    panose-1="2 0 6 3 0 0 0 0 0 0"
    ascent="896"
    descent="-128"
    x-height="792"
    bbox="0 -224 2579 896.336"
    underline-thickness="50"
    underline-position="-100"
    unicode-range="U+0078-E658"
  />
<missing-glyph horiz-adv-x="374" 
d="M34 0v682h272v-682h-272zM68 34h204v614h-204v-614z" />
    <glyph glyph-name=".notdef" horiz-adv-x="374" 
d="M34 0v682h272v-682h-272zM68 34h204v614h-204v-614z" />
    <glyph glyph-name=".null" horiz-adv-x="0" 
 />
    <glyph glyph-name="nonmarkingreturn" horiz-adv-x="341" 
 />
    <glyph glyph-name="x" unicode="x" horiz-adv-x="1001" 
d="M281 543q-27 -1 -53 -1h-83q-18 0 -36.5 -6t-32.5 -18.5t-23 -32t-9 -45.5v-76h912v41q0 16 -0.5 30t-0.5 18q0 13 -5 29t-17 29.5t-31.5 22.5t-49.5 9h-133v-97h-438v97zM955 310v-52q0 -23 0.5 -52t0.5 -58t-10.5 -47.5t-26 -30t-33 -16t-31.5 -4.5q-14 -1 -29.5 -0.5
t-29.5 0.5h-32l-45 128h-439l-44 -128h-29h-34q-20 0 -45 1q-25 0 -41 9.5t-25.5 23t-13.5 29.5t-4 30v167h911zM163 247q-12 0 -21 -8.5t-9 -21.5t9 -21.5t21 -8.5q13 0 22 8.5t9 21.5t-9 21.5t-22 8.5zM316 123q-8 -26 -14 -48q-5 -19 -10.5 -37t-7.5 -25t-3 -15t1 -14.5
t9.5 -10.5t21.5 -4h37h67h81h80h64h36q23 0 34 12t2 38q-5 13 -9.5 30.5t-9.5 34.5q-5 19 -11 39h-368zM336 498v228q0 11 2.5 23t10 21.5t20.5 15.5t34 6h188q31 0 51.5 -14.5t20.5 -52.5v-227h-327z" />
    <glyph glyph-name="uniE600" unicode="&#xe600;" 
d="M192 320h256q53 0 90.5 37.5t37.5 90.5v256q0 53 -37.5 90.5t-90.5 37.5h-256q-53 0 -90.5 -37.5t-37.5 -90.5v-256q0 -53 37.5 -90.5t90.5 -37.5zM730 620q1 -27 6 -29.5t29 18.5q11 9 23 21t18 19l7 8q2 1 16 -8t37 -38t39 -71q19 -44 14 -100t-16.5 -96t-23.5 -62
q-9 -9 -12 -23t4 -17t31 17q62 62 90 142t7 167q-8 32 -20.5 61t-24.5 48t-24.5 33.5t-20 21.5t-10.5 9q-1 -1 -1 0h1l6 6q5 5 15.5 17t22.5 23q18 18 15.5 25t-26.5 10q-25 3 -80.5 5.5t-98.5 3.5l-43 1q14 -155 20 -212zM832 320v-256q0 -53 -37.5 -90.5t-90.5 -37.5h-256
q-53 0 -90.5 37.5t-37.5 90.5v192h64v-192q0 -26 19 -45t45 -19h256q26 0 45 19t19 45v256q0 26 -19 45t-45 19h-76q12 33 12 64h64q53 0 90.5 -37.5t37.5 -90.5z" />
    <glyph glyph-name="uniE601" unicode="&#xe601;" horiz-adv-x="1025" 
d="M342 148q-2 27 -6.5 29.5t-28.5 -18.5q-11 -9 -23 -21t-18 -19l-7 -8q-3 -1 -16.5 8t-36.5 38t-39 71q-19 44 -14 100t16.5 96t23.5 62q9 9 12 23t-4 17t-31 -18q-62 -61 -90.5 -141t-6.5 -167q8 -32 20.5 -61t24.5 -48t24.5 -34t20 -21.5t10.5 -8.5l1 1v-1h-1l-6 -6
q-5 -5 -15.5 -17t-22.5 -23q-18 -18 -15.5 -25t26.5 -10q25 -3 80.5 -5.5t98.5 -3.5l43 -1q-14 155 -20 212zM642 768q26 0 45 -19t19 -45v-256q0 -26 -19 -45t-45 -19h-256q-27 0 -45.5 19t-18.5 45v256q0 26 18.5 45t45.5 19h256zM642 832h-256q-53 0 -90.5 -37.5
t-37.5 -90.5v-256q0 -53 37.5 -90.5t90.5 -37.5h256q53 0 90.5 37.5t37.5 90.5v256q0 53 -37.5 90.5t-90.5 37.5zM1024 320v-256q0 -53 -37.5 -90.5t-90.5 -37.5h-256q-53 0 -90.5 37.5t-37.5 90.5v192h130q79 0 135.5 56.5t56.5 135.5h62q53 0 90.5 -37.5t37.5 -90.5z" />
    <glyph glyph-name="uniE602" unicode="&#xe602;" 
d="M498 102l-305 314l79 64l176 -140q45 55 100.5 112t153.5 139.5t200 146.5l18 -44q-141 -132 -259 -304.5t-163 -287.5v0zM883 445q5 -30 5 -61q0 -102 -50.5 -188.5t-137 -137t-188.5 -50.5t-188.5 50.5t-137 137t-50.5 188.5t50.5 188.5t137 137t188.5 50.5
q74 0 142 -28v76q-69 23 -142 23q-91 0 -174 -35q-80 -34 -142 -96t-96 -142q-35 -83 -35 -174t35 -174q34 -80 96 -142t142 -96q83 -35 174 -35t174 35q80 34 142 96t96 142q35 83 35 174q0 31 -4 61h-72zM883 445z" />
    <glyph glyph-name="uniE603" unicode="&#xe603;" 
d="M711.5 521q18.5 0 32 13t13.5 31v200q0 19 -13.5 31.5t-32 12.5t-31.5 -12.5t-13 -31.5v-200q0 -18 13 -31t31.5 -13zM623 699h-222v-67h222v67zM884 699h-83v-67h86q19 0 33 -13.5t14 -32.5v-154h-844v154q0 19 14 32.5t33 13.5h87v67h-83q-48 0 -82.5 -34.5
t-34.5 -82.5v-677q0 -48 33.5 -82.5t81.5 -34.5h745q48 0 82.5 34.5t34.5 82.5v677q0 48 -34.5 82.5t-82.5 34.5zM934 -98q0 -19 -14 -33t-33 -14h-750q-19 0 -33 14t-14 33v464h844v-464zM267 166q28 0 47.5 19.5t19.5 47t-19.5 47.5t-47.5 20t-47.5 -20t-19.5 -47.5
t19.5 -47t47.5 -19.5zM511.5 166q27.5 0 47 19.5t19.5 47t-19.5 47.5t-47 20t-47 -20t-19.5 -47.5t19.5 -47t47 -19.5zM266 -79q28 0 47.5 19.5t19.5 47.5t-19.5 47.5t-47.5 19.5t-47.5 -19.5t-19.5 -47.5t19.5 -47.5t47.5 -19.5zM511.5 -79q27.5 0 47 19.5t19.5 47.5
t-19.5 47.5t-47 19.5t-47 -19.5t-19.5 -47.5t19.5 -47.5t47 -19.5zM755.5 166q27.5 0 47 19.5t19.5 47t-19.5 47.5t-47 20t-47 -20t-19.5 -47.5t19.5 -47t47 -19.5zM311.5 521q18.5 0 32 13t13.5 31v200q0 19 -13.5 31.5t-32 12.5t-31 -12.5t-12.5 -31.5v-200
q0 -18 12.5 -31t31 -13z" />
    <glyph glyph-name="uniE604" unicode="&#xe604;" 
d="M820 -72h-616q-57 0 -98.5 38t-41.5 92v486q0 54 41.5 92t98.5 38h168q56 0 103.5 -22t62.5 -55q8 -18 33 -31t62 -13h187q57 0 98.5 -38.5t41.5 -92.5v-364q0 -54 -41.5 -92t-98.5 -38zM204 622q-34 0 -59 -23t-25 -55v-486q0 -32 25 -55t59 -23h616q34 0 59 23t25 55
v364q0 33 -25 55.5t-59 22.5h-187q-54 0 -92.5 21.5t-54.5 55.5q-7 17 -41 31t-73 14h-168zM857 602h-242q-12 0 -20 7.5t-8 18.5t8 18.5t20 7.5h242q12 0 20 -7.5t8 -18.5t-8 -18.5t-20 -7.5zM857 602z" />
    <glyph glyph-name="uniE605" unicode="&#xe605;" 
d="M282 128h256v51h-256v-51zM282 307h460v51h-460v-51zM589 895h-154v-51h154v51zM282 486h460v51h-460v-51zM896 895h-154q0 -1 -7.5 0t-19 -2t-23 -7t-19.5 -15t-8 -27q0 -43 -41 -51h-216q-49 6 -49 51q0 18 -8 29.5t-19.5 15.5t-22.5 6t-19 1l-8 -1h-154q-21 0 -36 -15
t-15 -36v-921q0 -21 15 -36t36 -15h512h51h26l230 230v26v51v665q0 21 -15 36t-36 15zM691 -77v179q0 11 7.5 18.5t18.5 7.5h179zM896 179h-205q-21 0 -36 -15t-15 -36v-205h-486q-11 0 -18.5 7.5t-7.5 18.5v869q0 11 7.5 18.5t18.5 7.5h123q30 -10 30 -51q1 -25 20 -38
t38 -13h19h256h8q5 0 18.5 3.5t23.5 9t18.5 17.5t8.5 28q0 37 38 44h115q11 0 18.5 -7.5t7.5 -18.5v-639z" />
    <glyph glyph-name="uniE606" unicode="&#xe606;" 
d="M71 336v1q0 3 -1 6q-2 21 -2 41q0 90 35.5 172t95 141.5t141.5 95t172 35.5q109 0 203 -49.5t155 -134.5h-149h-5q-14 0 -24 -10t-10 -24t10 -24.5t24 -10.5q2 0 5 1h191v-1l74 1h1q-11 29 -28 58.5t-29 44.5l-12 15q-71 94 -177.5 148t-228.5 54q-104 0 -199 -40.5
t-163.5 -109t-109 -163.5t-40.5 -199q0 -22 2 -45v-3q0 -14 10 -24t25 -10q14 0 24 10t10 24zM1023 403h-1q0 14 -10 23.5t-24 9.5t-24 -10t-10 -24q0 -6 1 -11q1 -3 1 -7q0 -90 -35.5 -172t-95 -141.5t-141.5 -95t-172 -35.5q-102 0 -191 43.5t-152 119.5h145h4h4h2v1
q12 2 20 11.5t8 22t-8 22.5t-20 12h-2h-4h-4h-195h-69q1 -5 4.5 -14t20.5 -39t44 -61q73 -87 175 -136.5t218 -49.5q104 0 199 40.5t163.5 109t109 163.5t40.5 199q0 4 -0.5 10.5t-0.5 8.5z" />
    <glyph glyph-name="uniE607" unicode="&#xe607;" 
d="M303 396q-34 0 -59 24.5t-25 59.5t25 59.5t59.5 24.5t59 -24.5t24.5 -59.5t-24.5 -59.5t-59.5 -24.5zM303 522q-17 0 -29.5 -12t-12.5 -29.5t12.5 -30t30 -12.5t29.5 12.5t12 30t-12 29.5t-30 12zM511 396q-35 0 -59.5 24.5t-24.5 59.5t24.5 59.5t59.5 24.5t59.5 -24.5
t24.5 -59.5t-24.5 -59.5t-59.5 -24.5zM511 522q-18 0 -30 -12t-12 -29.5t12 -30t29.5 -12.5t30 12.5t12.5 30t-12.5 29.5t-29.5 12zM720 396q-35 0 -59.5 24.5t-24.5 59.5t24.5 59.5t59 24.5t59.5 -24.5t25 -59.5t-25 -59.5t-59 -24.5zM720 522q-18 0 -30 -12t-12 -29.5
t12 -30t29.5 -12.5t30 12.5t12.5 30t-12.5 29.5t-29.5 12zM1013 -98l-227 230h-677q-41 0 -69.5 28.5t-28.5 69.5v537q0 41 28.5 70t69.5 29h806q41 0 69.5 -29t28.5 -70v-865zM915 824h-806q-23 0 -39.5 -16.5t-16.5 -40.5v-537q0 -23 16.5 -39.5t39.5 -16.5h694l168 -170
v763q0 24 -16.5 40.5t-39.5 16.5z" />
    <glyph glyph-name="uniE608" unicode="&#xe608;" 
d="M537 195q-76 -11 -136.5 37t-71 126.5t36 141.5t122 73.5t136 -37.5t71 -126.5t-36 -141.5t-121.5 -73zM672 407q-9 68 -62.5 110t-119.5 32.5t-106.5 -64.5t-31.5 -123.5t62.5 -110.5t119.5 -32.5t106.5 64.5t31.5 124zM526 313l2 -17q1 -6 -5 -7t-6 5l-3 17
q-33 -3 -50 21q-1 3 -1 4q-1 8 6 9q4 0 6 -3q16 -20 42 -16q38 5 34 35q-2 14 -16 20.5t-30 7.5t-30.5 10t-16.5 27q-2 15 7 27.5t28 16.5l-2 18q-1 6 5 6.5t7 -5.5l2 -17q28 2 45 -17q1 -2 2 -5q1 -7 -7 -8q-3 0 -6 2q-16 16 -38 13q-31 -4 -28 -29q1 -12 15 -18t30.5 -7.5
t31 -11t16.5 -28.5q5 -41 -40 -50zM863 685l67 10l39 -297zM911 667l-16 -2l24 -65zM93 73l-38 297l106 -287zM113 101l16 2l-24 65zM472 127l507 202l16 -128zM959 296l-292 -117l302 42zM45 439l-16 128l523 74zM65 472l292 117l-302 -42zM174 -18l-40 107l22 8l31 -84
l378 151l8 -23zM90 273l-21 -8l-68 182l50 20l8 -23l-28 -11zM973 301l-8 23l28 11l-59 160l21 8l68 -182zM868 671l-31 84l-378 -151l-8 22l399 160l40 -107zM934 495l-66 176l22 8l65 -176zM573 141l-8 23l400 160l8 -23zM134 89l-65 176l21 8l66 -176zM59 444l-8 23
l400 159l8 -22z" />
    <glyph glyph-name="uniE609" unicode="&#xe609;" 
d="M704 557h63v63v192h-63v-192h-384v192h-63v-192v-63h63h384zM471 87l169 151v63h-160l118 106l-45 45l-169 -151v0v-63h160l-118 -106zM831 620v-63q53 0 90.5 -37.5t37.5 -90.5v-191q-2 -6 -5.5 -15t-19.5 -36t-37 -51t-60 -54t-86 -51t-118 -36t-153 -15
q-275 0 -375 151q-37 56 -40 107v191q0 53 37.5 90.5t90.5 37.5v63q-79 0 -135.5 -56t-56.5 -135v-191q0 -40 13.5 -81t48.5 -85t87.5 -77.5t138.5 -55.5t193 -22h12q19 -34 19 -64q0 -16 -16 -31.5t-33 -22.5l-16 -8h64q7 3 17.5 8.5t28.5 21.5t18 32q0 31 -20 67
q93 7 172 31t132 57.5t91 74t55 79.5t17 76v191q0 79 -56 135t-136 56z" />
    <glyph glyph-name="uniE60A" unicode="&#xe60a;" 
d="M973 374l-371 371q-20 21 -52.5 19.5t-54.5 -23.5l-81 -81h-1v2l-34 33q-7 7 -17 7t-17 -7l-120 -120q-7 -7 -7 -17t7 -17l231 -232l-10 -10l-12 12q-22 22 -56 22t-56 -22q-2 -3 -4 -5q-14 -22 -20 -40l-244 -208q-24 -23 -24 -56t24 -56l77 -77q23 -24 56 -24t59 26
l199 245q19 4 43 19q3 2 5 4q24 24 24 57t-24 56l-13 13l27 27q7 7 7 17t-7 17l-231 232l86 86l17 -16h1l1 -1l-12 -12q-23 -23 -24 -54.5t20 -52.5l371 -371q20 -21 50 -21q33 0 57 25l126 126q23 22 25 52q2 33 -21 55zM450 187q-7 -4 -18 -9q-17 2 -29 -12l-205 -252
q-11 -11 -22 0l-77 77q-5 5 -5 11t3 9l252 213q12 10 11 24q1 5 9 19q11 8 20 -2l59 -59q5 -4 5 -11q0 -4 -3 -8zM924 312l-126 -126q-6 -6 -12 -6l-376 373q-6 6 4 17l126 126q5 4 12 4h5l371 -371q6 -7 -4 -17z" />
    <glyph glyph-name="uniE60B" unicode="&#xe60b;" 
d="M682 258h7l146 124l-3 18l-286 286l-143 -145zM355 591l147 139l-104 105l-43 2l-106 -106l7 -40zM879 187l32 -11l-13 47l-42 100l-101 -83zM870 116h-721q-16 0 -28 -12t-12 -28.5t12 -28t28 -11.5h721q17 0 28.5 11.5t11.5 28t-11.5 28.5t-28.5 12zM149 216h401
q16 0 28 11.5t12 28.5t-12 28.5t-28 11.5h-401q-16 0 -28 -11.5t-12 -28.5t12 -28.5t28 -11.5z" />
    <glyph glyph-name="uniE60C" unicode="&#xe60c;" 
d="M570 657q285 -295 435 -451q17 -17 19 -38.5t-10 -38t-29 -27t-38.5 -8t-38.5 20.5q-43 44 -178.5 184t-209.5 216q-44 -44 -184 -185t-217 -217q-17 -18 -39 -20.5t-39 8.5t-28.5 27t-9.5 37.5t19 39.5q146 146 451 452q18 19 48 19t49 -19z" />
    <glyph glyph-name="uniE60D" unicode="&#xe60d;" 
d="M163 607q-31 0 -44.5 -31t9.5 -54l349 -350q15 -15 35 -15t35 15l349 350q23 22 10 53.5t-45 31.5h-698zM960 37z" />
    <glyph glyph-name="uniE60E" unicode="&#xe60e;" 
d="M913 869h-27q-17 0 -29.5 -12.5t-12.5 -29.5v-363q-12 10 -19 15l-609 393q-61 39 -104 15.5t-43 -95.5v-816q0 -72 43 -95.5t104 15.5l609 394q6 4 19 14v-363q0 -17 12.5 -29.5t29.5 -12.5h27q17 0 29.5 12.5t12.5 29.5v886q0 17 -12.5 29.5t-29.5 12.5z" />
    <glyph glyph-name="uniE60F" unicode="&#xe60f;" 
d="M111 -101h27q17 0 29.5 12.5t12.5 29.5v363q12 -10 19 -15l609 -393q61 -39 104 -15.5t43 95.5v816q0 72 -43 95.5t-104 -15.5l-609 -394q-7 -4 -19 -14v363q0 17 -12.5 29.5t-29.5 12.5h-27q-17 0 -29.5 -12.5t-12.5 -29.5v-886q0 -17 12.5 -29.5t29.5 -12.5z" />
    <glyph glyph-name="uniE610" unicode="&#xe610;" 
d="M1023 494v315l-398 -67v-61h-244q-24 0 -52 13t-51.5 31.5t-43 37.5t-31 32t-10.5 13l-64 -64q46 -36 102 -70q-71 -45 -102 -80q-66 -75 -64 -222v-40v-98v-114v-98v-41h64v392q-2 122 48 179q33 36 119 87q49 -22 81 -22h109v-27l-190 -104q-18 -7 -29 -23t-11 -36
v-572q0 -27 19 -47t45 -20h387q26 0 45 20t19 47v572q0 37 -33 55v1l-190 105v29h77v-56zM707 46h-133v190h133v-190zM707 300h-197v-318h197v-127h-387v512v60v-1l195 108l192 -107v-127zM689 688l270 45v-163l-270 45v73z" />
    <glyph glyph-name="uniE611" unicode="&#xe611;" 
d="M768 768h-512l-256 -448l256 -448h512l256 448zM731 -64h-438l-219 384l219 384h438l219 -384zM512 512q-80 0 -136 -56t-56 -136t56 -136t136 -56t136 56t56 136t-56 136t-136 56zM512 192q-53 0 -90.5 37.5t-37.5 90.5t37.5 90.5t90.5 37.5t90.5 -37.5t37.5 -90.5
t-37.5 -90.5t-90.5 -37.5z" />
    <glyph glyph-name="uniE612" unicode="&#xe612;" 
d="M992 448h-32l-103 288q0 13 -10.5 22.5t-24.5 9.5h-54l-85 96q0 13 -12.5 22.5t-30.5 9.5h-256q-18 0 -30.5 -9.5t-12.5 -22.5l-85 -96h-54q-14 0 -24.5 -9.5t-10.5 -22.5l-103 -288h-32q-13 0 -22.5 -9.5t-9.5 -22.5t9.5 -22.5t22.5 -9.5h66h46l48 -64v-192
q0 -107 91.5 -181.5t228.5 -74.5t228.5 74.5t91.5 181.5v192l48 64h46h66q13 0 22.5 9.5t9.5 22.5t-9.5 22.5t-22.5 9.5zM389 821q4 5 8 11h230q4 -6 8 -11l47 -53h-340zM224 704h75h426h75l92 -256h-760zM512 -64q-108 0 -182 55.5t-74 136.5v128h512v-128
q0 -81 -74 -136.5t-182 -55.5zM781 358q-13 -17 -13 -38h-512q0 21 -13 38l-19 26h576z" />
    <glyph glyph-name="uniE613" unicode="&#xe613;" 
d="M958 320v160q0 13 -10 22.5t-24 9.5h-94v347q0 15 -9.5 26t-22.5 11t-22.5 -11t-9.5 -26v-347h-448v347q0 15 -9.5 26t-22.5 11t-22.5 -11t-9.5 -26v-347h-93q-14 0 -24.5 -9.5t-10.5 -22.5v-160q70 -38 70 -128t-70 -128v-160q0 -13 10.5 -22.5t24.5 -9.5h763
q14 0 24 9.5t10 22.5v160q-69 38 -69 128t69 128zM222 320h640q-37 -51 -37 -128t37 -128h-640q38 51 38 128t-38 128zM894 -64h-704v64h704v-64zM894 384h-704v64h704v-64z" />
    <glyph glyph-name="uniE614" unicode="&#xe614;" 
d="M927 681q-5 10 -16 13.5t-22 -2.5q-3 -1 -5 -3l-4 -4l-143 -143l-66 67l143 143q3 3 5 6q1 2 1 3q6 11 2.5 22t-13.5 16q-61 31 -129 31q-116 0 -198 -81.5t-82 -197.5q0 -39 11 -77l-146 -146h-4q-81 0 -138.5 -57.5t-57.5 -138.5t57.5 -138t138.5 -57t138 57t57 138v5
l146 146q38 -11 78 -11q115 0 197 82t82 197q0 69 -32 130zM416 172l-19 -5q6 -21 6 -37q0 -60 -42.5 -102.5t-102.5 -42.5t-102.5 42.5t-42.5 102.5t42.5 102t102.5 42q16 0 37 -5l5 18l133 133q41 -75 115 -116zM680 321q-96 0 -163.5 67.5t-67.5 163t67.5 163t163.5 67.5
q35 0 69 -11l-140 -140q-8 -9 -8 -20.5t8 -20.5l109 -109q9 -9 21 -9t20 9l140 140q11 -34 11 -70q0 -95 -67.5 -162.5t-162.5 -67.5zM261 216q-35 0 -59.5 -24.5t-24.5 -59t24.5 -59t59 -24.5t59 24.5t24.5 59t-24.5 59t-58.5 24.5zM261 94q-16 0 -27 11.5t-11 27t11 26.5
t26.5 11t27 -11t11.5 -26.5t-11.5 -27t-26.5 -11.5zM261 104z" />
    <glyph glyph-name="uniE615" unicode="&#xe615;" horiz-adv-x="1025" 
d="M672 384q-13 0 -22.5 -9.5t-9.5 -22.5t9.5 -22.5t22.5 -9.5t22.5 9.5t9.5 22.5t-9.5 22.5t-22.5 9.5zM992 256h-64q0 7 -2 11l-128 336q-8 21 -30 21h-128q-12 0 -21 -8l-38 -33l-108 140q-13 18 -34 12l-256 -75q-19 -6 -23 -25l-64 -374v-3l1 -2h-65q-13 0 -22.5 -9.5
t-9.5 -22.5t9.5 -22.5t22.5 -9.5h51l77 -171q0 -8 9.5 -14.5t22.5 -6.5h6q-6 -17 -6 -32q0 -40 28 -68t68 -28t68 28t28 68q0 15 -6 32h268q-6 -17 -6 -32q0 -40 28 -68t68 -28t68 28t28 68q0 15 -6 32h6q13 0 22.5 6.5t9.5 14.5l77 171h51q13 0 22.5 9.5t9.5 22.5
t-9.5 22.5t-22.5 9.5zM220 604l216 63l115 -150q8 -11 22 -13q14 -1 24 8l55 48h94l116 -304h-702zM320 -32q0 -13 -9.5 -22.5t-22.5 -9.5t-22.5 9.5t-9.5 22.5t9.5 22.5t22.5 9.5t22.5 -9.5t9.5 -22.5zM768 -32q0 -13 -9.5 -22.5t-22.5 -9.5t-22.5 9.5t-9.5 22.5t9.5 22.5
t22.5 9.5t22.5 -9.5t9.5 -22.5zM813 64h-602l-58 128h718zM407 471q-10 9 -23 9t-23 -9l-64 -64q-9 -10 -9 -23t9.5 -22.5t22.5 -9.5t23 9l41 42l41 -42q10 -9 23 -9t22.5 9.5t9.5 22.5t-9 23z" />
    <glyph glyph-name="uniE616" unicode="&#xe616;" 
d="M512 787q-95 0 -182 -37.5t-150 -100t-100 -149.5t-37 -183q0 -97 37.5 -184t104.5 -152h654q67 65 104.5 152t37.5 184q0 96 -37 183t-100 150t-150 100t-182 37zM811 48h-598q-103 115 -103 270q0 108 54 201t146.5 147t201.5 54t202 -54t146.5 -147t53.5 -201
q0 -155 -103 -270v0zM229 336l-85 16l9 47l85 -16zM787 383l84 16l9 -47l-85 -16zM311 519l-56 66l37 30l55 -66zM713 519l-37 30l56 66l37 -30zM488 686h48v-86h-48v86zM514 315l-144 162l80 -197q-21 -38 1 -75q16 -25 45.5 -31.5t54.5 9.5t32 45t-9 54q-21 32 -60 33z
" />
    <glyph glyph-name="uniE617" unicode="&#xe617;" horiz-adv-x="1000" 
d="M595 81l275 275q16 16 16 38.5t-16 38.5l-275 275q-16 16 -38.5 16t-39 -16t-16.5 -39t17 -39l180 -181h-526q-23 0 -39 -16t-16 -38.5t16 -38.5t39 -16h526l-180 -181q-17 -16 -17 -39t16.5 -39t39 -16t38.5 16z" />
    <glyph glyph-name="uniE618" unicode="&#xe618;" 
d="M912 92l-496 489l96 95l495 -489zM112 92l-95 95l478 471l95 -94z" />
    <glyph glyph-name="uniE619" unicode="&#xe619;" 
d="M220 -16l489 496l95 -96l-489 -495zM220 784l95 95l471 -478l-94 -95z" />
    <glyph glyph-name="uniE61A" unicode="&#xe61a;" 
d="M112 676l496 -489l-96 -95l-495 489zM912 676l95 -95l-478 -471l-95 94z" />
    <glyph glyph-name="uniE61B" unicode="&#xe61b;" 
d="M804 784l-489 -496l-95 96l489 495zM804 -16l-95 -95l-471 478l94 95z" />
    <glyph glyph-name="uniE61C" unicode="&#xe61c;" 
d="M294 890l-60 -62l435 -443l-432 -445l60 -62l433 445l60 62z" />
    <glyph glyph-name="uniE61D" unicode="&#xe61d;" 
d="M730 -122l60 62l-435 443l432 445l-60 62l-433 -445l-60 -62z" />
    <glyph glyph-name="uniE61E" unicode="&#xe61e;" 
d="M225 528l271 -273l271 273l-49 49l-222 -224l-222 224zM225 528z" />
    <glyph glyph-name="uniE61F" unicode="&#xe61f;" 
d="M711 -57h-489q-58 0 -95.5 28.5t-37.5 83.5v527q0 57 39 96.5t94 39.5h34h168h83q26 0 26 -23t-22 -23h-89h-155h-45q-42 0 -65.5 -26t-23.5 -65v-524q0 -29 26 -49t63 -20l499 -4q29 0 54 22.5t25 50.5v68v251v46q0 22 22 22q18 0 18 -29v-29v-265l4 -64
q0 -56 -37.5 -85t-95.5 -29zM911 650l-79 -91l-393 -434h-8l-2 1l-166 -62l-38 36l51 184l1 2v10l411 415l67 75q61 64 112 23l44 -45q24 -26 24 -57.5t-24 -56.5zM267 102l133 46l-89 91zM333 285l89 -91l378 387l-89 91zM884 722l-41 44q-8 8 -19.5 8t-19.5 -8l-54 -58
l79 -84l55 57q8 9 8 21t-8 20z" />
    <glyph glyph-name="uniE620" unicode="&#xe620;" horiz-adv-x="1366" 
d="M444 -178v103h921v-103h-921zM444 334h921v-102h-921v102zM444 744h921v-103h-921v103zM102.5 -212q-42.5 0 -72.5 30t-30 72.5t30 72.5t72.5 30t72.5 -30t30 -72.5t-30 -72.5t-72.5 -30zM102.5 198q-42.5 0 -72.5 30t-30 72t30 72t72.5 30t72.5 -30t30 -72t-30 -72
t-72.5 -30zM102.5 607q-42.5 0 -72.5 30t-30 72.5t30 72.5t72.5 30t72.5 -30t30 -72.5t-30 -72.5t-72.5 -30z" />
    <glyph glyph-name="uniE621" unicode="&#xe621;" horiz-adv-x="2579" 
d="M255 330l-255 452h2579v-910h-2579zM2465 896l114 -114h-114v114z" />
    <glyph glyph-name="uniE622" unicode="&#xe622;" 
d="M961 -104l-272 272q86 100 86 231q0 97 -47.5 178.5t-129.5 129.5t-178.5 48t-178.5 -48t-129.5 -129.5t-47.5 -178t47.5 -178.5t129.5 -129.5t178 -47.5q115 0 208 67l275 -274zM106 399.5q0 129.5 92 221.5t221.5 92t221.5 -92t92 -221.5t-92 -221.5t-221.5 -92
t-221.5 92t-92 221.5z" />
    <glyph glyph-name="uniE623" unicode="&#xe623;" 
d="M371 314v563h282v-563h-282zM512 -109l-422 423h844z" />
    <glyph glyph-name="uniE624" unicode="&#xe624;" 
d="M653 454v-563h-282v563h282zM512 877l422 -423h-844z" />
    <glyph glyph-name="uniE625" unicode="&#xe625;" 
d="M387 42l-376 355l102 101l376 -356zM387 37l-103 101l627 593l102 -101z" />
    <glyph glyph-name="uniE626" unicode="&#xe626;" 
d="M992 172h-192q-13 0 -22.5 9.5t-9.5 22.5t9.5 22.5t22.5 9.5h192q13 0 22.5 -9.5t9.5 -22.5t-9.5 -22.5t-22.5 -9.5zM992 364h-256q-13 0 -22.5 9.5t-9.5 22.5t9.5 22.5t22.5 9.5h256q13 0 22.5 -9.5t9.5 -22.5t-9.5 -22.5t-22.5 -9.5zM992 556h-256q-13 0 -22.5 9.5
t-9.5 22.5t9.5 22.5t22.5 9.5h256q13 0 22.5 -9.5t9.5 -22.5t-9.5 -22.5t-22.5 -9.5zM704 108v-128q0 -80 -56 -136t-136 -56h-320q-80 0 -136 56t-56 136v128q0 62 36 111.5t94 69.5q-66 88 -66 203q0 87 38.5 160.5t105 116.5t144.5 43t144.5 -43t105 -116.5t38.5 -160.5
q0 -115 -66 -203q58 -20 94 -69.5t36 -111.5zM576 492q0 106 -65.5 181t-158.5 75t-158.5 -75t-65.5 -181t65.5 -181t158.5 -75t158.5 75t65.5 181zM640 92q0 50 -34 89t-87 51q-75 -60 -167 -60t-167 60q-53 -12 -87 -51t-34 -89v-96q0 -60 46 -102t111 -42h262
q65 0 111 42t46 102v96zM800 44h192q13 0 22.5 -9.5t9.5 -22.5t-9.5 -22.5t-22.5 -9.5h-192q-13 0 -22.5 9.5t-9.5 22.5t9.5 22.5t22.5 9.5z" />
    <glyph glyph-name="uniE627" unicode="&#xe627;" 
d="M298.5 139q-61.5 0 -105.5 -43.5t-44 -105.5t44 -105.5t105.5 -43.5t105 43.5t43.5 105.5t-43.5 105.5t-105 43.5zM391 -29l-30 -52q-11 -19 -33 -19h-60q-22 0 -32 19l-30 52q-6 9 -6 19t6 19l30 52q10 19 32 19h60q22 0 33 -19l30 -52q11 -19 0 -38zM718 499l-112 205
q-17 32 -53 32h-239q-34 0 -51 -29l-127 -207q-18 -30 0 -61l119 -206q17 -30 51 -30h240q34 0 51 30l120 207q17 30 1 59zM426.5 264q-80.5 0 -138 57t-57.5 138t57.5 138t138 57t138 -57t57.5 -138t-57.5 -138t-138 -57zM682 37.5q0 28.5 18 50.5t45 27v55
q-50 -5 -84.5 -43t-34.5 -89.5t34.5 -89t84.5 -43.5v56q-27 5 -45 26.5t-18 50zM775 171v-56q28 -5 46 -27t18 -50.5t-18 -50t-46 -26.5v-56q51 6 85.5 43.5t34.5 89t-34.5 89.5t-85.5 44z" />
    <glyph glyph-name="uniE628" unicode="&#xe628;" 
d="M681 -67h-616v683l119 139h377l120 -139v-683zM125 -16h496v616l-90 104h-316l-90 -104v-616zM373 524q-36 0 -61.5 25.5t-25.5 62t25.5 62t61.5 25.5t61.5 -25.5t25.5 -62t-25.5 -62t-61.5 -25.5zM373 649q-15 0 -26 -11t-11 -26.5t11 -26.5t26 -11t25.5 11t10.5 26.5
t-10.5 26.5t-25.5 11zM587 471l-157 -179h124v-40h-144v-54h144v-40h-144v-80h-74v80h-150v40h150v54h-150v40h128l-155 179h83q108 -133 132 -169h2q8 15 43 59l89 110h79zM708 10q-11 0 -19 5.5t-11 14.5q-2 10 4.5 19t18.5 11l165 32l-164 599l-115 85l-103 -20
q-12 -2 -23 3.5t-13.5 15.5t4 19t18.5 12l133 26l154 -113l181 -665l-223 -43q-4 -1 -7 -1z" />
    <glyph glyph-name="uniE629" unicode="&#xe629;" 
d="M512 896q-139 0 -257 -68.5t-186.5 -186.5t-68.5 -257t68.5 -257t186.5 -186.5t257 -68.5t257 68.5t186.5 186.5t68.5 257t-68.5 257t-186.5 186.5t-257 68.5zM512 70q-30 0 -51 21t-21 51t21 51t51 21t51 -21t21 -51t-21 -51t-51 -21zM552 303q-5 -15 -16 -23.5
t-24 -8.5t-24 9.5t-16 22.5q-9 29 -27 132.5t-18 174.5q0 27 23 57t61 30t62 -30t24 -57q0 -72 -18 -174.5t-27 -132.5zM552 303z" />
    <glyph glyph-name="uniE62A" unicode="&#xe62a;" 
d="M960 384v10v1v10v1q-1 2 -1 5v5v1q0 3 -1 10v1q0 2 -0.5 5t-0.5 4v1v1q-1 4 -1 9h-1v1q0 3 -1 10v1q-1 2 -1.5 5t-0.5 4v2q-1 4 -2 9q-1 1 -1 2t-0.5 4t-1 4t-0.5 2q-2 7 -2 8t-1 2v1q0 1 -1 3.5t-1 3.5q0 2 -1 4q-1 4 -2 6q0 1 -0.5 2.5t-1.5 2.5q-1 3 -1 5q-1 3 -2 5
q-1 1 -1.5 2.5t-0.5 2.5l-2 5q-1 3 -2 5q0 1 -0.5 1.5t-0.5 1.5l-1 2v1l-1 2q0 1 -1 2q-2 5 -3 7l-1 2l-4 9v1q-2 3 -5 9q-32 63 -82 113q-43 42 -94 72q-3 2 -9 5h-1q-6 3 -9 5l-10 5q-5 2 -9 4l-1 1l-10 4v0q-1 0 -3 1t-3 1q-4 2 -14 6h-2q-1 1 -8 3q0 1 -1 1h-2l-6 2
q-1 1 -2.5 1.5t-2.5 0.5q-3 1 -5 1q-1 1 -3 2h-2q-1 0 -3 0.5t-2.5 1t-2.5 0.5t-3 1q-2 0 -4 1q-2 0 -6 1q-1 0 -2.5 0.5t-2.5 0.5t-3 0.5t-3 0.5q-2 1 -4 1q-2 1 -3.5 1t-2.5 0.5t-3 0.5h-2q-1 0 -1 0.5t-1 0.5q-36 5 -71 5q-88 0 -169 -33q-3 -1 -5 -2v0q-81 -34 -143 -96
q-31 -31 -55 -67q-3 -5 -5 -8l-1 -1l-5 -8q-1 -1 -1 -2q-1 -1 -2 -3.5t-2 -3.5l-1 -2q-3 -5 -4 -7q-1 -1 -1 -1.5t-1 -1.5q0 -1 -1.5 -3t-1.5 -4l-2 -3l-3 -6q0 -1 -0.5 -2t-1.5 -1q0 -2 -1 -4t-2 -3l-1 -3q-2 -5 -3 -7q0 -1 -0.5 -1.5t-1.5 -2.5v-1q-1 -1 -1 -2t-0.5 -1.5
t-0.5 -1.5q-1 -1 -3 -6v-1q0 -1 -1 -2q0 -1 -1 -4t-2 -4v-1q-3 -7 -3 -9v-1q-1 -2 -3 -10h-1q-1 -4 -2 -10q-1 0 -1 -1q0 -2 -2 -9v-1q-1 -2 -2 -10q-1 0 -1 -1q-1 -3 -2 -9v-1q-1 -7 -2 -10v-1q-1 -6 -1 -9v-2q-1 -6 -2 -9v-1v-1q0 -2 -1 -9v-1q-1 -6 -1 -9v-2v-5
q0 -3 -1 -5v-1v-9v-1v-11q0 -87 33 -168q31 -77 88 -138l1 -1l6 -6v-1q1 -1 2 -1v-1h1l1 -1q59 -59 135 -93q79 -34 165 -37h2q41 -2 81 4l1 1h2h2h1l1 1h2h1q1 0 4 1v0q48 9 93 28q81 34 143 96t96 142q29 68 34 142q0 5 1 10v1v10v1v10v0zM888 273q-19 -64 -59 -119
q-18 -25 -40 -47q-34 -34 -76 -59h-1v-1q-4 -3 -6 -4q-3 -2 -4 -2t-2 -1l-1 -1q-23 -12 -45 -21q-23 -8 -46 -14q-47 -12 -96 -12q-83 0 -158 33q-67 30 -119 82q-56 55 -85.5 126.5t-29.5 150t29.5 150.5t85.5 127q51 51 117 81q54 24 113 31q24 3 47 3q78 0 150 -30
t127 -85q11 -11 21 -23q94 -109 94 -254q0 -57 -16 -111zM690.5 177.5q-11.5 0.5 -19.5 8.5l-357 357q-8 8 -8 19.5t8 19.5t19.5 8t19.5 -8l357 -357q8 -8 8 -19.5t-8 -20t-19.5 -8zM333.5 178q-11.5 0 -19.5 8t-8 19.5t8 19.5l357 357q8 8 19.5 8t19.5 -8t8 -19.5t-8 -19.5
l-357 -357q-8 -8 -19.5 -8z" />
    <glyph glyph-name="uniE62B" unicode="&#xe62b;" 
d="M448 840h-364q-12 0 -20.5 -8.5t-8.5 -20.5v-364q0 -12 8.5 -20.5t20.5 -8.5h364q12 0 20.5 8.5t8.5 20.5v364q0 12 -8.5 20.5t-20.5 8.5zM399 497h-266v263h266v-263zM268 631zM214 630.5q0 22.5 15.5 38.5t38 16t38.5 -16t16 -38.5t-16 -38t-38.5 -15.5t-38 15.5
t-15.5 38zM940 840h-363q-12 0 -20.5 -8.5t-8.5 -20.5v-364q0 -12 8.5 -20.5t20.5 -8.5h363q12 0 20.5 8.5t8.5 20.5v364q0 12 -8.5 20.5t-20.5 8.5zM892 497h-266v263h266v-263zM761 631zM706 630.5q0 22.5 16 38.5t38.5 16t38.5 -16t16 -38.5t-16 -38t-38.5 -15.5
t-38.5 15.5t-16 38zM450 348h-364q-12 0 -20.5 -8.5t-8.5 -20.5v-363q0 -12 8.5 -20.5t20.5 -8.5h364q12 0 20.5 8.5t8.5 20.5v363q0 12 -8.5 20.5t-20.5 8.5zM401 6h-266v263h266v-263zM270 139zM216 139.5q0 22.5 15.5 38.5t38 16t38.5 -16t16 -38.5t-16 -38.5t-38.5 -16
t-38 16t-15.5 38.5zM706 19h89v-92h-89v92zM880 -73h60q12 0 20.5 8.5t8.5 20.5v63h-89v-92zM940 348h-48v-161h-85v161h-232q-12 0 -20.5 -8.5t-8.5 -20.5v-363q0 -12 8.5 -20.5t20.5 -8.5h50v92v85v60h81v-60h263v215q0 12 -8.5 20.5t-20.5 8.5z" />
    <glyph glyph-name="uniE62C" unicode="&#xe62c;" 
d="M866 489q-17 -22 -39 -7q-6 4 -11.5 21.5t-11.5 39.5t-24 53.5t-46 58.5q-34 26 -63.5 40.5t-45 17t-31 6t-25.5 10.5q-6 10 -6.5 19.5t1.5 14.5l3 4q8 9 28 10.5t47.5 -5t63.5 -27.5t72 -54q33 -34 54.5 -67t28 -56.5t8.5 -42t0 -27.5zM572 619q4 0 11 -1.5t26 -8.5
t35.5 -18.5t34.5 -35t28 -54.5q0 -4 1.5 -9t10 -14t20.5 -9q1 1 3.5 1.5t9.5 3t10 7.5t6 13.5t-2 20.5q-1 6 -4 17t-19 39.5t-41 49.5q-7 6 -19.5 15.5t-44.5 24t-56 11.5q-13 -2 -20 -16q-6 -11 -2 -23t12 -14zM905 224l-133 90q-36 16 -63 13.5t-43 -13.5l-16 -11
q-13 -9 -27 -10t-21 2l-8 3q-11 6 -32 26l-147 150q-12 20 -12 38.5t7 31.5l6 13q7 12 9 27.5t0 25.5l-2 9q-6 34 -19 65.5t-27 53.5t-27 39t-22 25l-8 8q-20 18 -43.5 19.5t-36.5 -6.5l-14 -7q-91 -50 -117 -131l-4 -13q-1 -21 9.5 -57t21.5 -62t12 -26q10 -23 29.5 -55.5
t34.5 -53.5l15 -21q31 -44 94.5 -108.5t109 -105.5t47.5 -42q102 -86 233 -130l7 -2q35 -12 61 -10t41 10l15 8q20 14 42.5 39.5t35 43t12.5 18.5q37 60 -12 100zM813 76q-22 -15 -50.5 -14t-52.5 9l-25 9q-38 19 -80.5 47.5t-66.5 46.5l-24 19q-83 61 -149.5 132
t-101 122.5t-59.5 103.5t-30.5 69.5t-7.5 27.5q-4 19 3.5 38t21.5 33t29 25t26 16l10 6q9 4 15.5 2.5t10.5 -5.5l4 -3q3 -2 24 -34t40 -63l20 -30q6 -18 0.5 -37.5t-15.5 -34.5l-11 -16q-9 -18 -10 -35t3 -25l3 -9q4 -8 15 -22t20 -24l9 -10q6 -7 45 -46t76 -74l36 -35
q18 -20 37 -29t33.5 -8.5t26.5 4t18 7.5l6 4q20 14 34 20.5t17 6.5h4q8 -1 23.5 -8t26.5 -15l12 -7q38 -23 62 -41.5t29 -26.5l4 -7q7 -35 -57 -86z" />
    <glyph glyph-name="uniE62D" unicode="&#xe62d;" 
d="M449.5 520q-26.5 0 -44.5 -18.5t-18 -44.5t18 -44.5t44.5 -18.5t44.5 18.5t18 44.5t-18 44.5t-44.5 18.5zM449.5 425q-13.5 0 -22.5 9.5t-9 22.5t9 22.5t22.5 9.5t22.5 -9.5t9 -22.5t-9 -22.5t-22.5 -9.5zM701 520q-26 0 -44.5 -18.5t-18.5 -44.5t18.5 -44.5t44.5 -18.5
t44.5 18.5t18.5 44.5t-18.5 44.5t-44.5 18.5zM701 425q-13 0 -22 9.5t-9 22.5t9 22.5t22 9.5t22.5 -9.5t9.5 -22.5t-9.5 -22.5t-22.5 -9.5zM352 169l-116 -62l38 115q-14 13 -26 27l-71 -214l219 116q-23 8 -44 18zM549 780q-110 0 -203 -46.5t-147 -126.5t-54 -174
q0 -70 31 -133t87 -111l12 38q-92 88 -92 206q0 85 49 156.5t133.5 113t184 41.5t183.5 -41.5t133 -113t49 -156t-49 -156.5t-133 -113.5t-184 -41.5q-105 0 -194 47l-38 -20q104 -63 232 -63q110 0 203 46.5t147 126.5t54 174t-54 174t-147 126.5t-203 46.5z" />
    <glyph glyph-name="uniE62E" unicode="&#xe62e;" 
d="M936 272q-9 35 -27 74t-32 60l-13 21q10 33 5.5 57.5t-15.5 38.5l-10 15l-4 29q-5 27 -14.5 54.5t-17.5 41.5l-7 14q-8 15 -20 31t-21 25l-8 9q-33 33 -82 53t-82 23l-33 3q-49 1 -92 -7t-69.5 -20.5t-46 -25t-27.5 -21.5l-8 -9q-35 -32 -56.5 -80.5t-25.5 -80.5l-4 -33
q-23 -20 -29.5 -48t-3.5 -45t5 -17q-84 -60 -110 -157l-2 -13q-15 -92 22 -122q3 -3 4 -3q14 -8 32 0.5t28.5 19t10.5 12.5q4 -17 15.5 -33.5t20.5 -24.5l10 -8q-5 1 -13.5 -5t-14.5 -12l-6 -7q-10 -17 -12.5 -32.5t0.5 -27t10.5 -22t15.5 -17t17 -12t12.5 -7t5.5 -2.5
q31 -12 70.5 -14t73.5 4t64.5 14t47.5 14.5t18 6.5l133 -27q37 -5 68.5 -5t53 4t39 10t27.5 13.5t18 16t10 16t5 14t1.5 10t-0.5 3.5q-1 17 -16.5 34t-30.5 25l-15 8q9 6 16 18.5t10 21.5l3 9q15 -17 28.5 -23t20 -5t6.5 2q20 9 31.5 26.5t13.5 36.5t1.5 37t-2.5 30z
M884 175l-29 50q-1 3 -4.5 6t-14 1.5t-19.5 -16.5q-2 -8 -6.5 -20.5t-19.5 -39.5t-31 -39q-33 -21 25 -44l30 -17q32 -24 2 -34q-3 -3 -8.5 -6.5t-27 -10t-48.5 -8.5t-73.5 4.5t-101.5 23.5l-55 8l-4 -4q-2 -2 -11 -8t-19.5 -11t-28.5 -10.5t-38 -8.5t-48 -2t-59 6
q-3 0 -7 1l-17 6q-12 4 -21 8.5t-16.5 11.5t-7.5 15q-1 1 -1 3t2.5 7.5t6.5 10t13.5 8.5t23.5 4q2 1 4.5 2t8.5 5t9.5 8t3 10.5t-6.5 13.5q-2 1 -6 3.5t-15 12.5t-20.5 22t-20 32.5t-16.5 43.5l-5 7q-3 5 -12 11t-16 1l-6 -7q-3 -5 -8 -12q-20 -32 -34 -36q-1 6 -2 16.5
t2.5 40t14 57t37.5 61t67 57.5q-2 2 -4.5 6t-7 16t-4 24.5t9.5 30t27 33.5q0 5 0.5 13.5t4.5 32.5t12 46.5t25.5 50.5t42 48.5t65 36.5t91.5 20q5 0 14.5 0.5t36.5 -2t52.5 -9.5t57.5 -25t57 -44.5t45.5 -72.5t27.5 -105q2 -1 4.5 -4t8.5 -12.5t9 -20t2.5 -28t-6.5 -35.5
q2 -4 6.5 -9.5t15 -23.5t20 -35.5t18.5 -42t13.5 -46t2.5 -45t-13 -42.5z" />
    <glyph glyph-name="uniE62F" unicode="&#xe62f;" 
d="M781 430q80 0 137 57t57 138t-57 138t-137.5 57t-137.5 -57t-57 -138q0 -42 16 -79l-260 -182q-50 56 -126 56q-69 0 -118 -49t-49 -118.5t49 -119t118 -49.5q50 0 91 26.5t61 69.5l237 -64q-1 -6 -1 -13q0 -59 42 -100.5t100.5 -41.5t100.5 41.5t42 100.5t-42 100.5
t-100 41.5q-37 0 -69 -17.5t-51 -47.5l-243 66v6q0 27 -8 52l264 185q58 -59 141 -59zM746.5 181q32.5 0 55 -23t22.5 -55t-22.5 -54.5t-55 -22.5t-55 22.5t-22.5 54.5t22.5 55t55 23zM216.5 161q-38.5 0 -65 26.5t-26.5 64.5t26.5 65t65 27t65 -27t26.5 -65t-26.5 -64.5
t-65 -26.5zM780.5 732q44.5 0 75.5 -31.5t31 -75.5t-31 -75t-75.5 -31t-75.5 31t-31 75t31 75.5t75.5 31.5z" />
    <glyph glyph-name="uniE630" unicode="&#xe630;" 
d="M808 734q-39 12 -76 12.5t-65 -8t-53.5 -24.5t-42 -32.5t-31 -36t-21.5 -31.5t-12 -22q-5 10 -11.5 22t-21 31.5t-31.5 36t-42 32.5t-53 24.5t-65 8t-77 -12.5q-4 -2 -12.5 -5.5t-30 -17t-39.5 -30t-36 -46t-25.5 -63t-1.5 -82t30 -102.5q2 -5 6 -12.5t19.5 -30.5
t34 -45.5t49 -52.5t64.5 -55l243 -221v-1v1l1 -1v1l243 221q54 40 97 89t60 78l16 29q18 42 26 81t6 69.5t-10.5 57t-22 46t-29 35.5t-30.5 26.5t-27.5 17.5t-20 10t-8.5 3z" />
    <glyph glyph-name="uniE631" unicode="&#xe631;" horiz-adv-x="1025" 
d="M511 812q-104 0 -198.5 -41t-163 -109.5t-109 -163.5t-40.5 -199t41 -198.5t109.5 -163t163.5 -109t199 -40.5t198.5 41t163 109.5t109 163.5t40.5 199t-41 198.5t-109.5 163t-163.5 109t-199 40.5zM759 97q8 -8 8 -19t-8 -19t-19 -8t-19 8l-209 209l-209 -209
q-8 -8 -19 -8t-18.5 7.5t-7.5 19t7 18.5l209 210l-209 209q-8 7 -8 18.5t8 19t19 7.5t19 -8l209 -208l209 209q8 8 19 8t18.5 -8t7.5 -19t-7 -19l-209 -209zM759 97z" />
    <glyph glyph-name="uniE632" unicode="&#xe632;" 
d="M604 491v69q1 3 1.5 7t7 11t17.5 8q3 0 6.5 -1t10.5 -6.5t9 -15.5v-72h86q3 0 7.5 -1.5t11.5 -8t7 -16.5q0 -3 -1 -7t-8 -11.5t-17 -7.5h-86v-51h103q3 -1 7.5 -2t12 -7.5t6.5 -16.5q0 -3 -0.5 -7.5t-7 -11.5t-18.5 -7h-155v-69h52v35q0 3 1 7t7.5 11.5t17.5 6.5
q3 0 7 -0.5t11.5 -7t7.5 -17.5v-35h51q3 0 7.5 -1t11.5 -7.5t7 -17.5q0 -3 -1 -7t-6.5 -11t-14.5 -7l-55 -1v-126v-5q0 -4 -2 -13.5t-6 -18t-13 -19t-22 -16.5q-3 -2 -9 -4t-22 -4t-30 -1l-87 -232h10q6 0 26 1t40.5 4t50.5 11t59 19.5t63.5 31t65.5 44.5t63.5 61.5
t59.5 80.5q2 5 7 13t16.5 35t20.5 55t16 69t7 80v23q0 15 -7.5 59t-21.5 86t-47.5 97t-79.5 100q-5 5 -15 14.5t-43.5 33t-71 42t-97 34t-122.5 16.5zM604 491h-68q-3 0 -7 -0.5t-11 -7t-8 -18.5q0 -2 1 -6t7.5 -11t17.5 -9h68v-51h-86q-2 0 -6 -1t-11 -6.5t-8 -15.5
q0 -1 -0.5 -6t5 -12.5t16.5 -10.5h90v-69h-86q-2 0 -6.5 -1t-11.5 -7.5t-8 -17.5q0 -2 0.5 -6t7 -11t18.5 -9h138v-129q3 -16 -13 -23l-38 -4q-2 0 -5.5 -1t-9.5 -7.5t-8 -16.5l-35 52q21 7 23 23v55q0 3 -1 7t-7.5 11.5t-17.5 7.5q-2 0 -6 -1t-11 -7.5t-9 -17.5v-52l-103 1
v114l63 11q2 1 5.5 3t8.5 8t3 12q0 2 -1 6.5t-7.5 12t-17.5 7.5l-54 -8v109h54q14 3 18 10q1 1 2 3t2.5 7t0.5 9q-3 18 -20 22h-57v87q0 2 -1 6.5t-7 11.5t-18 7q-21 0 -25 -20l-1 -92h-34l-1 56q0 3 -2 6.5t-9 10t-18 5.5q-16 -3 -22 -22v-68q0 -3 -0.5 -7.5t-5.5 -12.5
t-14 -9q-1 0 -3 -0.5t-7.5 -2.5t-8.5 -6t-6 -10.5t0 -15.5q1 -1 1.5 -2.5t3.5 -5.5t8 -5.5t13.5 -3t19.5 3.5q3 1 8.5 2.5t16.5 11.5t16 24h44v-117l-109 -17q-2 -1 -5.5 -2.5t-9 -9.5t-4.5 -19q2 -3 4 -7t11.5 -9.5t20.5 -2.5l92 15v-106l-283 -84q-3 5 -7.5 13t-16.5 35
t-21 55.5t-16 72t-7 85.5q2 2 0 11.5t1.5 32t7.5 48t16.5 60t29 68.5t45.5 72.5t65 71.5q6 6 16.5 15t45 32t71.5 40.5t93.5 31.5t113.5 13zM363 113v-77q7 -16 26 -19q3 0 6.5 1t10.5 6.5t9 15.5v73l103 -1q0 -3 1 -7t8 -11t20 -8l35 -52q0 -3 0.5 -6.5t6 -10.5t15.5 -9
l-87 -232q-7 0 -19 0.5t-48.5 5.5t-72 14.5t-83 32.5t-87.5 54q-9 7 -23.5 19t-48.5 50.5t-55 76.5zM363 113z" />
    <glyph glyph-name="uniE633" unicode="&#xe633;" 
d="M500 746q-91 0 -174 -35.5t-143 -95t-95 -142.5t-35 -174t35 -174t95 -143t143 -95.5t174 -35.5t174 35.5t143 95.5t95 143t35 174t-35 174t-95 142.5t-143 95t-174 35.5zM415 -21l34 277h-141l277 362l-34 -277h141z" />
    <glyph glyph-name="uniE634" unicode="&#xe634;" 
d="M511.5 743q-90.5 0 -173 -35t-142 -94.5t-95 -142t-35.5 -173.5t35.5 -173.5t95 -142t142 -95t173 -35.5t173 35.5t142 95t95 142t35.5 173.5t-35.5 173.5t-95 142t-142 94.5t-173 35zM708 386v-69q0 -26 -24 -39v-135h-35l-13 86l-13 -86h-33v122q21 21 21 50v76
q0 21 -11 38q5 1 10 1h54q18 0 31 -13t13 -31zM636 531q19 0 32.5 -13.5t13.5 -32.5t-13.5 -32.5t-32.5 -13.5t-32.5 13.5t-13.5 32.5t13.5 32.5t32.5 13.5zM512 548q21 0 36 -14.5t15 -35.5t-15 -35.5t-36 -14.5t-35.5 14.5t-14.5 35.5t14.5 35.5t35.5 14.5zM434 391
q0 19 14 33t33 14h59q20 0 34 -14t14 -33v-76q0 -29 -26 -42v-147h-35l-15 93l-14 -93h-38v147q-26 13 -26 42v76zM386.5 531q19.5 0 33 -13.5t13.5 -32.5t-13.5 -32.5t-33 -13.5t-33 13.5t-13.5 32.5t13.5 32.5t33 13.5zM314 386q0 18 13 31t31 13h54q5 0 10 -1
q-11 -17 -11 -38v-76q0 -29 21 -50v-122h-32l-13 86l-13 -86h-36v135q-24 13 -24 39v69zM511.5 48q-105.5 0 -180 23t-74.5 55q0 27 54 48q-13 -8 -13 -18q0 -22 62.5 -37.5t151 -15.5t151 15.5t62.5 37.5q0 10 -13 18q54 -21 54 -48q0 -32 -74.5 -55t-180 -23z" />
    <glyph glyph-name="uniE635" unicode="&#xe635;" 
d="M775 403q-7 6 -11 6h-69v-134h150q0 7 -11 22zM512 810q-104 0 -198 -40.5t-162.5 -109t-109 -162.5t-40.5 -198t40.5 -198t109 -162.5t162.5 -109t198 -40.5t198 40.5t162.5 109t109 162.5t40.5 198t-40.5 198t-109 162.5t-162.5 109t-198 40.5zM343.5 32
q-29.5 0 -50 20t-20.5 47.5t20.5 47.5t50 20t50 -20t20.5 -47.5t-20.5 -47.5t-50 -20zM737 32q-29 0 -49.5 20t-20.5 47.5t20.5 47.5t49.5 20t50 -20t21 -47.5t-21 -47.5t-50 -20zM864 113h-28q-5 35 -33 58.5t-65.5 23.5t-65.5 -23.5t-33 -58.5h-197q-5 35 -33 58.5
t-65.5 23.5t-65.5 -23.5t-33 -58.5h-56q-12 0 -20 8t-8 19v404q0 11 8 19t20 8h450q11 0 19.5 -8t8.5 -19v-81h98q10 0 18.5 -4.5t11.5 -8t13 -14.5l62 -107q22 -29 22 -54v-135q0 -11 -8.5 -19t-19.5 -8zM504 518l-71 -66l-71 66h-55l96 -91h-90v-17h97v-57h-97v-17h97
v-104h46v104h97v17h-97v57h97v17h-90l96 91h-55z" />
    <glyph glyph-name="uniE636" unicode="&#xe636;" 
d="M618 460h-211q-6 0 -10.5 -4.5t-4.5 -10.5t4.5 -10.5t10.5 -4.5h211q6 0 10.5 4.5t4.5 10.5t-4.5 10.5t-10.5 4.5zM588 370h-151q-6 0 -10.5 -4.5t-4.5 -11t4.5 -11t10.5 -4.5h151q6 0 10.5 4.5t4.5 11t-4.5 11t-10.5 4.5zM512.5 832q-90.5 0 -173.5 -35.5t-143 -95.5
t-95 -143t-35 -174t35 -174t95 -143t143 -95.5t173.5 -35.5t173.5 35.5t143 95.5t95 143t35 174t-35 174t-95 143t-143 95.5t-173.5 35.5zM512 204q-22 0 -45 4l-105 -64v106q-42 30 -66 73t-24 92q0 87 70.5 148.5t170 61.5t170 -61.5t70.5 -149t-70.5 -149t-170.5 -61.5z
" />
    <glyph glyph-name="uniE637" unicode="&#xe637;" 
d="M512 896q-139 0 -257 -68.5t-186.5 -186.5t-68.5 -257t68.5 -257t186.5 -186.5t257 -68.5t257 68.5t186.5 186.5t68.5 257t-68.5 257t-186.5 186.5t-257 68.5zM512 -110q-182 0 -321 119q4 130 97 221t224 91q-85 0 -145 60t-60 145t60 145t145 60t145 -60t60 -145
t-60 -145t-145 -60q131 0 224 -91t97 -221q-139 -119 -321 -119z" />
    <glyph glyph-name="uniE638" unicode="&#xe638;" 
d="M691 588q-8 8 -16 0l-237 -237q-2 -2 -3 -4q-1 -4 -7 -27q-1 -2 -4 -14h2q37 7 51 9q3 1 5 3l232 232q7 8 0 15zM511.5 832q-91.5 0 -174.5 -35.5t-143 -95.5t-95.5 -143t-35.5 -174t35.5 -174t95.5 -143t143 -95.5t174.5 -35.5t174 35.5t142.5 95.5t95.5 143t35.5 174
t-35.5 174t-95.5 143t-142.5 95.5t-174 35.5zM743 183q0 -14 -7.5 -24t-20.5 -13q-4 -1 -9 -1h-388q-16 0 -26.5 10.5t-10.5 27.5v193v193q0 22 18 34q8 5 20 5h191q10 0 14.5 -6.5t1.5 -13.5q-3 -9 -12 -10h-5h-88h-100h-5q-5 -1 -5 -6v-4v-384q0 -5 2 -7t7 -2h384q5 0 7 2
t2 8v190q0 12 10 15q7 3 13 -0.5t7 -11.5v-3v-192zM737 532q-1 -2 -3 -4q-115 -116 -231 -231q0 -1 -1 -3l-3 -2q-4 -4 -10 -5q-61 -11 -80 -14q-4 -1 -9 0q-6 1 -9.5 6.5t-1.5 12.5q9 33 19 69q1 4 4 7l242 242q13 12 29 12t29 -12q18 -19 25 -26q10 -11 11 -27
q-1 -14 -11 -25z" />
    <glyph glyph-name="uniE63A" unicode="&#xe63a;" 
d="M289 35q0 -31 31 -44.5t54 9.5l350 349q15 15 15 35t-15 35l-350 349q-22 23 -53.5 10t-31.5 -45v-698z" />
    <glyph glyph-name="uniE63B" unicode="&#xe63b;" 
d="M861 161q31 0 44.5 31t-9.5 54l-349 350q-15 15 -35 15t-35 -15l-349 -350q-23 -22 -10 -53.5t45 -31.5h698z" />
    <glyph glyph-name="uniE63C" unicode="&#xe63c;" 
d="M857 -26q43 24 69 43l6 5q7 4 8 5q18 15 18 38q0 22 -17 36l-198 164q-14 10 -31 10q-19 0 -33 -13l-34 -34q-15 -15 -37 -15t-37 15l-203 203q-16 16 -16 38t16 37l33 33q13 14 13 34q0 19 -13 33l-170 206q-15 18 -38 18q-24 0 -38 -20l-3 -4q-86 -115 -86 -204
q0 -50 35 -120.5t91.5 -143t129 -145t145 -129t143 -91.5t119.5 -35q2 0 5.5 0.5t5.5 0.5q63 5 117 35z" />
    <glyph glyph-name="uniE63D" unicode="&#xe63d;" 
d="M512 812q-104 0 -199 -40.5t-163.5 -109t-109 -163.5t-40.5 -199t40.5 -199t109 -163.5t163.5 -109t199 -40.5t199 40.5t163.5 109t109 163.5t40.5 199t-40.5 199t-109 163.5t-163.5 109t-199 40.5zM512.5 -133q-117.5 0 -217 58t-157.5 157.5t-58 217t58 217.5
t157.5 157.5t217 57.5t217 -57.5t157.5 -157.5t58 -217.5t-58 -217t-157.5 -157.5t-217 -58zM540 327v276h-81v-255v-51v-50h314v80h-233z" />
    <glyph glyph-name="uniE63E" unicode="&#xe63e;" 
d="M241 238zM512 840q-98 0 -181.5 -48.5t-132 -131.5t-48.5 -181q0 -137 92 -241l235 -296q14 -17 33.5 -17t33.5 17l234 296q95 104 95 241q0 98 -48 181t-131.5 131.5t-181.5 48.5zM512 342q-57 0 -97 40t-40.5 96.5t40 97t97 40.5t97 -40t40.5 -96.5t-40 -97t-97 -40.5z
" />
    <glyph glyph-name="uniE63F" unicode="&#xe63f;" 
d="M903 -35h-782q-23 0 -39.5 16.5t-16.5 39.5v558q0 23 16.5 39.5t39.5 16.5h782q23 0 39.5 -16.5t16.5 -39.5v-558q0 -23 -16.5 -39.5t-39.5 -16.5zM840 517q-8 8 -19.5 8t-19.5 -8l-97 -96l-136 -136q-25 -23 -58 -23q-29 0 -54 21v-2l-183 183l2 1l-52 52q-8 8 -19.5 8
t-19.5 -8.5t-8 -20t8 -19.5l176 -177l-176 -177q-8 -8 -8 -19.5t8 -20t19.5 -8.5t19.5 8l177 177l46 -46q3 -4 7 -8l3 -3v1q24 -19 53 -19q34 0 59 25v-2l54 53l177 -178q8 -8 19.5 -8t20 8.5t8.5 20t-8 19.5l-178 177l179 177q8 8 8 19.5t-8 20.5zM840 517z" />
    <glyph glyph-name="uniE640" unicode="&#xe640;" 
d="M512 -103h10q97 2 185.5 40.5t156 109t102.5 160t33 187.5q-2 97 -41.5 185t-104.5 152t-154.5 102t-186.5 38h-10q-97 -2 -185.5 -40.5t-156 -109t-102.5 -160t-33 -187.5q2 -97 41.5 -185t104.5 -152t154.5 -102t186.5 -38zM512 -126q-102 0 -195.5 39t-162 106
t-109.5 159.5t-43 195.5q-2 104 36.5 199t105.5 165t160.5 112t197.5 44h10q102 0 195.5 -39t162 -106t109.5 -159.5t43 -195.5q2 -104 -36.5 -199t-105.5 -165t-160.5 -112t-197.5 -44h-10v0zM820 562l-53 74q-6 8 -16 9.5t-18 -3.5q-43 -29 -108 -101.5t-104.5 -124.5
t-75.5 -101l-155 104q-8 5 -17.5 3.5t-15.5 -8.5l-52 -67q-7 -7 -5.5 -17t8.5 -16l231 -187q7 -5 16 -5h1l57 2q16 1 22 15q29 69 69 135t73 108t69 80t49 50t20.5 18t9 15t-4.5 17z" />
    <glyph glyph-name="uniE641" unicode="&#xe641;" 
d="M398 316q-1 8 6 11q19 10 59 30q101 52 131 67q18 9 27 -1q1 -1 3 -1.5t3 -1.5q49 -29 102 -2q56 28 59 92q-1 17 -1 18q-5 36 -32 62t-62 30q-29 4 -58.5 -9.5t-45.5 -38.5q-18 -29 -18 -64q0 -6 -4 -8l-40 -20q-46 -24 -63 -32q-85 -43 -99 -50q-5 -3 -11 1
q-31 23 -65.5 23t-64.5 -23q-52 -40 -40 -107q7 -39 40 -65q27 -21 60.5 -22t62.5 18q7 4 13 1l25 -12q17 -9 26 -14q5 -2 59 -30t82 -42q10 -5 15 -11t6 -17q2 -49 51 -81q16 -11 45 -14q59 -7 96 40q38 50 13 110q-13 33 -46 50.5t-67 12.5q-33 -5 -53 -22q-6 -6 -11 -3
q-9 5 -25 13t-22 10q-24 13 -72 37.5t-73 36.5q-9 5 -10.5 8t-0.5 13v7z" />
    <glyph glyph-name="uniE642" unicode="&#xe642;" 
d="M30 524l345 17l127 353l178 -359l314 -11l-294 -303l147 -325l-325 191l-350 -213l162 364z" />
    <glyph glyph-name="uniE643" unicode="&#xe643;" 
d="M953 706h-880q-29 0 -49.5 -21t-20.5 -50v-616q0 -29 20.5 -49.5t49.5 -20.5h880q29 0 49.5 20.5t20.5 49.5v616q0 29 -20.5 50t-49.5 21zM910 647l-382 -328q-10 -10 -13 -10t-13 10l-382 328h790zM965 40l-246 263q-10 11 -24.5 11t-24.5 -10.5t-10 -25t10 -24.5
l222 -247h-750l223 247q10 10 10 24.5t-10.5 25t-24.5 10.5t-25 -11l-254 -268v562l392 -327q17 -18 31 -26.5t33 -8.5q13 0 24.5 5.5t16.5 10t20 19.5l387 327v-557z" />
    <glyph glyph-name="uniE644" unicode="&#xe644;" 
d="M568 332h-96q-7 0 -11.5 -5t-4.5 -11v-32q0 -7 4.5 -11.5t11.5 -4.5h96q7 0 11.5 4.5t4.5 11.5v32q0 6 -4.5 11t-11.5 5zM568 284h-96v32h96v-32zM680 268h96q7 0 11.5 4.5t4.5 11.5v32q0 6 -4.5 11t-11.5 5h-96q-7 0 -11.5 -5t-4.5 -11v-32q0 -7 4.5 -11.5t11.5 -4.5z
M680 316h96v-32h-96v32zM829 492l-181 -96v64q0 13 -9 22.5t-21 9.5l-178 -96v176q0 13 -8 22.5t-19 9.5h-170q-11 0 -19 -9.5t-8 -22.5v-416q0 -14 8 -23t19 -9h586q11 0 19 9t8 23v304q0 13 -8 22.5t-19 9.5zM408 508h-160v16h160v-16zM408 572v-32h-160v32h160zM824 156
h-576v336h160v-96q0 -18 16 -28q7 -4 16 -4q8 0 15 4l161 86v-58q0 -18 16 -28q7 -4 16 -4q8 0 15 3l161 86v-297zM904 684h-736q-27 0 -45.5 -19t-18.5 -45v-512q0 -27 18.5 -45.5t45.5 -18.5h736q27 0 45.5 18.5t18.5 45.5v512q0 26 -18.5 45t-45.5 19zM936 108
q0 -14 -9.5 -23t-22.5 -9h-736q-13 0 -22.5 9t-9.5 23v512q0 13 9.5 22.5t22.5 9.5h736q13 0 22.5 -9.5t9.5 -22.5v-512z" />
    <glyph glyph-name="uniE645" unicode="&#xe645;" 
d="M212 -40q-9 0 -15 6.5t-6 14.5v300q0 9 6 15.5t15 6.5t15.5 -6.5t6.5 -15.5v-300q0 -8 -6.5 -14.5t-15.5 -6.5zM812 -40q-9 0 -15 6.5t-6 14.5v300q0 9 6 15.5t15 6.5t15 -6.5t6 -15.5v-300q0 -8 -6 -14.5t-15 -6.5zM962 -40h-900q-9 0 -15 6.5t-6 15t6 15t15 6.5h900
q9 0 15 -6.5t6 -15t-6 -15t-15 -6.5zM1005 474q0 -35 -25 -60.5t-61 -25.5h-43q-39 0 -64 30q-26 -30 -64 -30h-22q-39 0 -64 30q-26 -30 -64 -30h-22q-38 0 -64 30q-26 -30 -64 -30h-22q-38 0 -64 30q-26 -30 -64 -30h-22q-38 0 -64 30q-25 -30 -64 -30h-43q-36 0 -61 25.5
t-25 60.5l5 22h-5l22 150q0 53 37.5 90.5t90.5 37.5h686q53 0 90.5 -37.5t37.5 -90.5l22 -150h-4zM940 646q0 35 -25 60t-60 25h-686q-35 0 -60 -25t-25 -60l-22 -150h4l-4 -22q0 -18 12.5 -30.5t30.5 -12.5h43q18 0 30.5 12.5t12.5 30.5v22v64q0 9 6 15t15 6t15.5 -6
t6.5 -15v-64v-22q0 -18 12.5 -30.5t29.5 -12.5h22q17 0 30 12.5t13 30.5v22v64q0 9 6 15t15 6t15 -6t6 -15v-64v-22q0 -18 13 -30.5t30 -12.5h22q17 0 29.5 12.5t12.5 30.5v22v64q0 9 6.5 15t15.5 6t15 -6t6 -15v-64v-22q0 -18 12.5 -30.5t30.5 -12.5h22q17 0 29.5 12.5
t12.5 30.5v22v64q0 9 6.5 15t15.5 6t15 -6t6 -15v-64v-22q0 -18 12.5 -30.5t30.5 -12.5h22q17 0 29.5 12.5t12.5 30.5v22v64q0 9 6.5 15t15.5 6t15 -6t6 -15v-64v-22q0 -18 12.5 -30.5t30.5 -12.5h43q18 0 30.5 12.5t12.5 30.5l-4 22h4zM683 3v171q0 9 -6 15.5t-15 6.5h-64
q-9 0 -15.5 -6.5t-6.5 -15.5v-171h-43v193q0 17 13 30t30 13h107q18 0 30.5 -13t12.5 -30v-193h-43zM641 46q-9 0 -15.5 6t-6.5 15t6.5 15.5t15.5 6.5t15 -6.5t6 -15.5t-6.5 -15t-14.5 -6z" />
    <glyph glyph-name="uniE646" unicode="&#xe646;" 
d="M560 0h-304q-20 0 -34 14t-14 34v704q0 20 14 34t34 14h512q20 0 34 -14t14 -34v-480q0 -29 -19 -49l-187 -201q-20 -22 -50 -22zM272 64h288l4 2l186 200q2 3 2 6v464h-480v-672zM576 24q-10 0 -17 7t-7 17v192q0 23 16.5 39.5t39.5 16.5h183q10 0 17 -7t7 -17t-7 -17
t-17 -7h-183q-3 0 -5.5 -2.5t-2.5 -5.5v-192q0 -10 -7 -17t-17 -7zM431 610h21q16 -1 18 -20q-2 -19 -20 -20h-19v-10q5 -7 13 -17q36 -45 33 -52q0 -21 -19 -21q-9 0 -20 13q-4 6 -7 9v-132q-2 -16 -20 -18q-19 2 -21 18v125q-19 -48 -39 -44q-31 6 -9 42q0 2 2 3
q24 32 42 84h-32q-15 2 -15 21q2 18 17 20h34v34q-11 0 -24 -1q-21 0 -22 19q0 20 21 21q55 3 84 9q21 3 25 -14q3 -19 -16 -25q-13 -5 -27 -5v-39zM526 624q-7 0 -14 20h-1q0 1 -1 3q-4 8 -12 21q-6 12 -6 16q0 9 9 14q12 4 21 1q12 -6 26 -30q19 -36 3 -45h49q-7 3 -3 17
q2 1 5 6q9 13 27 43q9 15 27 8q13 -9 8 -26q-14 -33 -30 -48h8q28 0 28 -27v-78q1 -32 -28 -30h-22v-87q1 -9 8 -10h8q12 -4 14 46q1 16 21 16q16 -3 16 -19q-1 -49 -11.5 -67.5t-37.5 -18.5h-21q-36 2 -38 35v105h-18q2 -105 -76 -141q-23 -12 -36 4q-9 20 12 32
q61 24 60 105h-12q-27 0 -27 27v81q0 27 30 27h14zM628 578q0 7 -8 7h-88q-8 0 -8 -7v-42q0 -8 8 -8h88q9 0 8 6v44z" />
    <glyph glyph-name="uniE647" unicode="&#xe647;" 
d="M503 528q17 0 29 12t12 29.5t-12 29.5t-29.5 12t-29.5 -12t-12 -29.5t12 -29.5t30 -12zM503 494q31 0 53 22t22 53.5t-22 53.5t-53 22t-53 -22t-22 -53.5t22 -53.5t53 -22zM503 628q24 0 41 -17t17 -41.5t-17 -41.5t-41 -17t-41.5 17t-17.5 41.5t17.5 41.5t41.5 17z
M845 411h-667q-7 0 -12 -5t-5 -11.5t5 -11.5t12 -5h667q6 0 11 5t5 11.5t-5 11.5t-11 5zM853 311h-684q-8 0 -8 -8.5t8 -8.5h684q8 0 8 8.5t-8 8.5zM311 211h-133q-7 0 -12 -5t-5 -12t5 -11.5t12 -4.5h133q7 0 12 4.5t5 11.5t-5 12t-12 5zM845 211h-167q-7 0 -12 -5t-5 -12
t5 -11.5t12 -4.5h167q6 0 11 4.5t5 11.5t-5 12t-11 5zM895 728h-767q-28 0 -47.5 -19.5t-19.5 -47.5v-533q0 -28 19.5 -47.5t47.5 -19.5h767q27 0 46.5 19.5t19.5 47.5v533q0 28 -19.5 47.5t-46.5 19.5zM928 128q0 -14 -10 -24t-23 -10h-767q-14 0 -24 10t-10 24v533
q0 14 10 24t24 10h767q13 0 23 -10t10 -24v-533zM928 128z" />
    <glyph glyph-name="uniE648" unicode="&#xe648;" 
d="M1017 375q-7 -9 -17 -21.5t-39 -44t-60 -60t-77 -62.5t-92.5 -58.5t-105 -41t-114.5 -16.5t-114.5 16.5t-105 41t-92.5 58.5t-77 62.5t-60 60t-39 44t-17 21.5l-7 9l7 9q7 9 17 21.5t39 44t60 60t77 62.5t92.5 58.5t105 41t114.5 16.5t114.5 -16.5t105 -41t92.5 -58.5
t77 -62.5t60 -60t39 -44t17 -21.5l7 -9zM512 666q-66 0 -135.5 -25.5t-120.5 -59t-101 -78t-73.5 -70.5t-42.5 -49q19 -23 42.5 -49t73.5 -70.5t101 -78t120.5 -59t135.5 -25.5t135.5 25.5t120.5 59t101 78t73.5 70.5t42.5 49q-19 23 -42.5 49t-73.5 70.5t-101 78t-120.5 59
t-135.5 25.5zM512 151q-96 0 -164 68.5t-68 164.5t68 164.5t164 68.5t164 -68.5t68 -164.5t-68 -164.5t-164 -68.5zM512 586q-83 0 -142 -59t-59 -143t59 -143t142 -59t142 59t59 143t-59 143t-142 59z" />
    <glyph glyph-name="uniE649" unicode="&#xe649;" 
d="M941 471l-397 137q-19 6 -22.5 6.5t-22.5 -6.5l-399 -136q-18 -6 -18 -15.5t18 -16.5l95 -32q-28 -28 -36 -57.5t-9 -74.5q-12 -5 -20 -16t-8 -25q0 -26 24 -38q-12 -91 -82 -175q33 -26 64 -36q35 15 51.5 48t15.5 72t-3 84q-1 7 -1 10q18 13 18 35q0 24 -20 37
q2 84 47 119q1 1 3 2l273 110q8 3 15.5 0t10.5 -11t0 -15.5t-11 -10.5l-231 -92l207 -70q18 -7 22 -7t22 7l394 135q18 7 18 16.5t-18 15.5zM502 251l-250 85v-64q21 -18 21 -48q0 -26 -16 -44q6 -19 17 -23q108 -61 247.5 -59t260.5 67q21 18 21 34v141l-256 -89
q-19 -7 -22.5 -6.5t-22.5 6.5zM502 251z" />
    <glyph glyph-name="uniE64A" unicode="&#xe64a;" 
d="M641 596v76h-259v-76h-171v-74h602v74h-172zM239 472l44 -537h458l44 537h-546zM426 37h-70v342h70v-342zM546 37h-69v342h69v-342zM670 37h-72v342h72v-342z" />
    <glyph glyph-name="uniE64B" unicode="&#xe64b;" 
d="M877 716q-6 4 -14 4q-7 0 -13 -4l-753 -502q-13 -9 -11.5 -24t16.5 -20l196 -79l92 -161q7 -13 22 -13q14 0 21 12l53 87l243 -97q4 -2 9 -2q7 0 12 3q11 6 13 18l125 753q3 16 -11 25zM164 199l582 387l-423 -452l-3 2l-4 2zM341 116l475 509l-405 -631zM718 -23
l-214 86q-6 2 -16 3l330 511z" />
    <glyph glyph-name="uniE64C" unicode="&#xe64c;" 
d="M716 -62q-68 0 -179 69q-105 65 -206 163l-21 21q-98 100 -163 206q-68 111 -68 179q0 66 61 147q11 16 24.5 31t38.5 33t44 18q25 0 61 -37q27 -28 57 -71q28 -41 48 -78q23 -43 23 -64q0 -27 -29 -47q-12 -9 -42 -21q-25 -11 -31 -16q5 -21 36 -66q36 -53 79 -97
q43 -42 96 -79q45 -30 66 -35q5 6 16 31q13 30 21 42q20 28 47 28q22 0 65 -22q37 -20 78 -48q43 -31 70 -57q37 -36 37 -61q0 -20 -17.5 -44.5t-33 -38t-30.5 -24.5q-82 -62 -148 -62zM367 206q96 -94 197 -155q99 -61 152 -61q48 0 115 49q28 21 46 42q14 16 17 25
q-4 9 -27 30.5t-63 49.5q-37 25 -69 42q-28 14 -39 16q-3 -2 -8 -10t-14 -29q-11 -26 -18 -37q-17 -26 -42 -26h-1q-31 1 -96 45q-58 39 -104 85h-1q-46 47 -85 104q-44 65 -44 97q-1 25 25 42q11 7 37 19q21 9 29 13.5t10 8.5q-1 11 -16 39q-17 32 -42 68
q-28 41 -49.5 63.5t-30.5 27.5q-9 -3 -25 -17q-21 -18 -42 -47q-49 -66 -49 -114q0 -54 61 -152q62 -101 156 -197z" />
    <glyph glyph-name="uniE64D" unicode="&#xe64d;" 
d="M522 39l-14 -15l-13 15q-14 15 -35 39t-69.5 89.5t-85.5 129t-67 148t-30 156.5q0 117 88 200t212 83t212 -83t88 -200q0 -71 -29.5 -155.5t-66.5 -148t-85.5 -129t-69.5 -90t-35 -39.5zM508 850q-109 0 -186.5 -73t-77.5 -176q0 -60 23 -130.5t53.5 -127.5t71.5 -117
t66.5 -91.5t49.5 -58.5q24 27 49.5 59t67 92t72 117t53.5 127t23 130q0 103 -77.5 176t-187.5 73zM512 488q-48 0 -82 32t-34 77t34 77.5t82 32.5t82 -32.5t34 -77.5t-34 -77t-82 -32zM512 673q-33 0 -56.5 -22t-23.5 -53.5t23.5 -54t56.5 -22.5t56.5 22.5t23.5 54
t-23.5 53.5t-56.5 22zM131 -116l122 335h70v-34h-45l-97 -267h662l-97 267h-45v34h70l122 -335h-762z" />
    <glyph glyph-name="uniE64E" unicode="&#xe64e;" 
d="M512 -55q-27 0 -46 16.5t-19 39t19 39t46 16.5t46 -16.5t19 -39t-19 -39t-46 -16.5zM512 25q-12 0 -20.5 -7.5t-8.5 -17.5t8.5 -17t20.5 -7t20.5 7t8.5 17t-8.5 17.5t-20.5 7.5zM280 79v638h464v-638h-464zM708 686h-392v-576h392v576zM720 -97h-417q-38 0 -66 23.5
t-28 56.5v802q0 33 28 56.5t66 23.5h417q39 0 67 -23.5t28 -56.5v-802q0 -33 -28 -56.5t-67 -23.5zM778 785q0 20 -17 34.5t-41 14.5h-417q-23 0 -40 -14.5t-17 -34.5v-802q0 -20 17 -34.5t40 -14.5h417q24 0 41 14.5t17 34.5v802zM555 760h-86q-6 0 -9.5 4t-3.5 9.5t4 9.5
t9 4h86q5 0 9 -4t4 -9.5t-4 -9.5t-9 -4z" />
    <glyph glyph-name="uniE64F" unicode="&#xe64f;" 
d="M1014 -64q-6 -6 -13 -6h-978q-7 0 -12.5 5.5t-5.5 12.5q0 5 0.5 15.5t5.5 37.5t13.5 54.5t26.5 63.5t42.5 67.5t64 63t88.5 53.5q15 8 24 -7q37 -65 102 -103t140 -38t140 38t102 103q9 14 24 7q49 -22 88.5 -53.5t64 -63t42.5 -67.5t26.5 -63.5t13.5 -54.5t5.5 -37.5
t0.5 -15.5q0 -7 -5 -12zM777 263q-43 -67 -113.5 -106t-151.5 -39t-151.5 39t-113.5 106q-49 -24 -86.5 -58.5t-58 -66.5t-34.5 -68.5t-18.5 -59t-6.5 -43.5h938q-2 21 -6.5 43.5t-18.5 59t-34.5 68.5t-58 66.5t-86.5 58.5zM512 221q-88 0 -151 62t-63 149v194q0 88 63 150
t151.5 62t151 -62t62.5 -150v-194q0 -87 -62.5 -149t-151.5 -62zM689 626q0 73 -52 124t-125 51t-125 -51t-52 -124v-194q0 -72 52 -123.5t125 -51.5t125 51.5t52 123.5v194z" />
    <glyph glyph-name="uniE650" unicode="&#xe650;" 
d="M0 -67h1024v902zM616 3l-59 59l-159 150l60 58l159 -151l302 286l60 -58z" />
    <glyph glyph-name="uniE651" unicode="&#xe651;" 
d="M509 -117q-101 0 -193.5 39.5t-159.5 106.5t-106.5 159.5t-39.5 193.5t39.5 193.5t106.5 159t159.5 106.5t193.5 40t193.5 -40t159.5 -106.5t106.5 -159t39.5 -193.5t-39.5 -193.5t-106.5 -159.5t-159.5 -106.5t-193.5 -39.5zM509 854q-96 0 -183.5 -37.5t-150.5 -100.5
t-100.5 -150.5t-37.5 -183.5t37.5 -183.5t100.5 -151t150.5 -100.5t183.5 -37t183.5 37t150.5 100.5t100.5 151t37.5 183.5t-37.5 183.5t-100.5 150.5t-150.5 100.5t-183.5 37.5zM388 111l-19 18l254 255l-256 257l18 19l276 -276z" />
    <glyph glyph-name="uniE652" unicode="&#xe652;" horiz-adv-x="1025" 
d="M871 455q-11 0 -19 -8t-8 -19v-253q0 -11 8 -19v0q8 -8 19 -8h73q11 0 19 8v0q8 8 8 19v253q0 11 -7 18l-1 1q-8 8 -19 8h-73zM583 69q-2 0 -3 1q-15 8 -31 4q-18 -5 -27 -21q-5 -9 -6 -20v-2q0 -6 2 -11q4 -16 18 -25l4 -2q15 -8 31 -4q17 5 26 20l2 2q7 15 3 32
q-4 16 -19 26zM609 116q35 -20 45 -59t-10 -74v0q-20 -35 -59 -45.5t-74 9.5v1q-34 19 -45 57h-173h-3q-50 1 -106 16t-99 42q-85 55 -85 140v225q0 34 24 57.5t57 23.5h11q14 153 123 263q59 58 136.5 91t164 33t164.5 -33t136 -91q110 -109 123 -263h5q33 0 57 -24
q1 0 2 -2q22 -23 22 -55v-253q0 -33 -24 -57t-57 -24h-73q-33 0 -57 24t-24 57v253q0 34 23.5 57.5t57.5 23.5h14q-13 131 -107 225q-51 51 -119 79.5t-143.5 28.5t-143 -28.5t-119.5 -79.5q-93 -94 -107 -225h8q34 0 57 -24l2 -2q22 -23 22 -55v-228q0 -12 -8 -19.5
t-19 -7.5t-19 7.5t-8 19.5v228q0 10 -7 18l-1 1q-8 8 -19 8h-73q-11 0 -19 -8t-8 -19v-225q0 -56 60 -94q36 -24 85 -36.5t93 -14.5h1h173q4 12 10 22v0q20 35 59 45.5t74 -9.5v0z" />
    <glyph glyph-name="uniE653" unicode="&#xe653;" 
d="M828 -109l-316 233l-316 -233l120 377l-316 232h391l121 377l121 -377h391l-316 -232zM108 465l250 -184l-96 -297l250 184l250 -184l-96 297l250 184h-309l-95 297l-95 -297h-309z" />
    <glyph glyph-name="uniE654" unicode="&#xe654;" 
d="M423 195l-147 -84q-39 -22 -57 10l-77 133l37 21l21 -36l127 73l-21 37q-11 19 -31 7l-150 -87l-18 31l171 98q37 22 60 -17l44 -78l-164 -95l31 -53q8 -15 26 -4l153 88l8 -12q10 -18 -13 -32zM543 371q15 -80 -76 -149l-20 34q53 40 55 93l-82 -48l-17 30l92 54l-25 43
l-49 -28q-2 -32 -22 -53l-24 41q8 25 -1 54l34 20l8 -26l37 22l-18 31l37 21l18 -31l75 44l17 -30l-75 -44l25 -43l85 49l17 -30l-91 -52v-2zM589 384l93 -39l-48 -27l-89 40zM881 460l-39 29l6 -40q-1 -8 -14 -15l-21 -13l-12 92l-27 21q-9 7 -16 4l-8 -6l-14 26l21 12
q16 8 23 0l15 -9l-10 58l-26 -16l1 -10q2 -10 -8 -16l-24 -14l-20 84l34 19l7 -30l40 23q19 9 32 -16l20 -109l76 -53zM605 529l-17 29l36 21l-9 14l35 20l8 -14l38 21l17 -29zM666 507q2 -9 0 -15l14 8l23 -15v28l8 4l-39 38l33 19l41 -41l-7 -4l2 -68l70 -41l-37 -21
l-32 18v-37l-38 -22l-1 84l-55 33l-11 -6l-13 58l33 19zM512 -95q128 0 239 64q85 49 142.5 126t81 165t12 183.5t-59.5 179.5q-64 111 -175.5 175.5t-239.5 64.5t-239 -64q-85 -49 -142.5 -126t-81 -165t-12 -183.5t59.5 -179.5q64 -111 175.5 -175.5t239.5 -64.5z
M512 -125q-134 0 -252.5 67t-187.5 188q-52 89 -64.5 191t12.5 195t86.5 175t151.5 133q118 69 254 69q134 0 252.5 -67t187.5 -188q52 -89 64.5 -191t-12.5 -195t-86.5 -175t-151.5 -133q-118 -69 -254 -69v0z" />
    <glyph glyph-name="uniE655" unicode="&#xe655;" 
d="M744 -151h-464q-25 0 -43.5 18.5t-18.5 44.5v776q0 26 18.5 44.5t43.5 18.5h464q25 0 43.5 -18.5t18.5 -44.5v-776q0 -26 -18.5 -44.5t-43.5 -18.5zM280 720q-13 0 -22 -9.5t-9 -22.5v-776q0 -13 9 -22.5t22 -9.5h464q13 0 22 9.5t9 22.5v776q0 13 -9 22.5t-22 9.5h-464z
M512 -83q-17 0 -29 12t-12 28.5t12 28.5t29 12t29 -12t12 -28.5t-12 -28.5t-29 -12zM512 -32q-10 0 -10 -10q0 -6 5 -8t10 0t5 8q0 10 -10 10zM732 28h-443q-6 0 -10.5 4.5t-4.5 10.5v622q0 6 4.5 10.5t10.5 4.5h443q6 0 10.5 -4.5t4.5 -10.5v-622q0 -6 -4.5 -10.5
t-10.5 -4.5zM305 59h412v590h-412v-590z" />
    <glyph glyph-name="uniE656" unicode="&#xe656;" 
d="M824 -124h-624q-38 0 -65.5 28t-27.5 67v445q0 39 27.5 67t65.5 28h31v95q0 119 82.5 202.5t199.5 83.5q108 0 188 -73t91 -181h-63q-11 81 -72.5 135.5t-143.5 54.5q-91 0 -155 -65t-64 -157v-95h530q38 0 65.5 -28t27.5 -67v-445q0 -39 -27.5 -67t-65.5 -28zM855 384
q0 26 -18.5 44.5t-43.5 18.5h-562q-25 0 -43.5 -18.5t-18.5 -44.5v-381q0 -26 18.5 -44.5t43.5 -18.5h562q25 0 43.5 18.5t18.5 44.5v381zM512 67q-52 0 -88.5 37t-36.5 89.5t36.5 90t88.5 37.5t88.5 -37.5t36.5 -90t-36.5 -89.5t-88.5 -37zM512 257q-26 0 -44 -18.5
t-18 -45t18 -45t44 -18.5t44 18.5t18 45t-18 45t-44 18.5z" />
    <glyph glyph-name="uniE657" unicode="&#xe657;" 
d="M154 822l796 -796l-80 -80l-796 796zM870 822l80 -80l-796 -796l-80 80z" />
    <glyph glyph-name="uniE658" unicode="&#xe658;" 
d="M350 152l-72 72l159 161l-160 159l72 73l160 -159l160 160l73 -72l-160 -161l161 -159l-73 -73l-160 159z" />
  </font>
</defs>
</svg>
