<?xml version="1.0" standalone="no"?>
<!DOCTYPE svg PUBLIC "-//W3C//DTD SVG 1.1//EN" "http://www.w3.org/Graphics/SVG/1.1/DTD/svg11.dtd" >
<svg xmlns="http://www.w3.org/2000/svg">
<metadata>
Created by FontForge 20120731 at Wed Apr 13 08:48:03 2016
 By admin
</metadata>
<defs>
<font id="iconfont" horiz-adv-x="1024" >
  <font-face 
    font-family="iconfont"
    font-weight="500"
    font-stretch="normal"
    units-per-em="1024"
    panose-1="2 0 6 3 0 0 0 0 0 0"
    ascent="896"
    descent="-128"
    x-height="792"
    bbox="0 -128 2579 896"
    underline-thickness="50"
    underline-position="-100"
    unicode-range="U+0078-E649"
  />
<missing-glyph horiz-adv-x="374" 
d="M34 0v682h272v-682h-272zM68 34h204v614h-204v-614z" />
    <glyph glyph-name=".notdef" horiz-adv-x="374" 
d="M34 0v682h272v-682h-272zM68 34h204v614h-204v-614z" />
    <glyph glyph-name=".null" horiz-adv-x="0" 
 />
    <glyph glyph-name="nonmarkingreturn" horiz-adv-x="341" 
 />
    <glyph glyph-name="x" unicode="x" horiz-adv-x="1001" 
d="M281 543q-27 -1 -53 -1h-83q-18 0 -36.5 -6t-32.5 -18.5t-23 -32t-9 -45.5v-76h912v41q0 16 -0.5 30t-0.5 18q0 13 -5 29t-17 29.5t-31.5 22.5t-49.5 9h-133v-97h-438v97zM955 310v-52q0 -23 0.5 -52t0.5 -58t-10.5 -47.5t-26 -30t-33 -16t-31.5 -4.5q-14 -1 -29.5 -0.5
t-29.5 0.5h-32l-45 128h-439l-44 -128h-29h-34q-20 0 -45 1q-25 0 -41 9.5t-25.5 23t-13.5 29.5t-4 30v167h911zM163 247q-12 0 -21 -8.5t-9 -21.5t9 -21.5t21 -8.5q13 0 22 8.5t9 21.5t-9 21.5t-22 8.5zM316 123q-8 -26 -14 -48q-5 -19 -10.5 -37t-7.5 -25t-3 -15t1 -14.5
t9.5 -10.5t21.5 -4h37h67h81h80h64h36q23 0 34 12t2 38q-5 13 -9.5 30.5t-9.5 34.5q-5 19 -11 39h-368zM336 498v228q0 11 2.5 23t10 21.5t20.5 15.5t34 6h188q31 0 51.5 -14.5t20.5 -52.5v-227h-327z" />
    <glyph glyph-name="uniE600" unicode="&#xe600;" 
d="M112 676l496 -489l-96 -95l-495 489zM912 676l95 -95l-478 -471l-95 94z" />
    <glyph glyph-name="uniE601" unicode="&#xe601;" 
d="M953 790h-880q-29 0 -49.5 -21t-20.5 -50v-616q0 -29 20.5 -49.5t49.5 -20.5h880q29 0 49.5 20.5t20.5 49.5v616q0 29 -20.5 50t-49.5 21zM910 731l-382 -328q-10 -10 -13 -10t-13 10l-382 328h790zM965 124l-246 263q-10 11 -24.5 11t-24.5 -10.5t-10 -25t10 -24.5
l222 -247h-750l223 247q10 10 10 24.5t-10.5 25t-24.5 10.5t-25 -11l-254 -268v562l392 -327q17 -18 31 -26.5t33 -8.5q13 0 24.5 5.5t16.5 10t20 19.5l387 327v-557z" />
    <glyph glyph-name="uniE602" unicode="&#xe602;" 
d="M512 896q-139 0 -257 -68.5t-186.5 -186.5t-68.5 -257t68.5 -257t186.5 -186.5t257 -68.5t257 68.5t186.5 186.5t68.5 257t-68.5 257t-186.5 186.5t-257 68.5zM512 70q-30 0 -51 21t-21 51t21 51t51 21t51 -21t21 -51t-21 -51t-51 -21zM552 303q-5 -15 -16 -23.5
t-24 -8.5t-24 9.5t-16 22.5q-9 29 -27 132.5t-18 174.5q0 27 23 57t61 30t62 -30t24 -57q0 -72 -18 -174.5t-27 -132.5zM552 303z" />
    <glyph glyph-name="uniE603" unicode="&#xe603;" 
d="M350 152l-72 72l159 161l-160 159l72 73l160 -159l160 160l73 -72l-160 -161l161 -159l-73 -73l-160 159z" />
    <glyph glyph-name="uniE604" unicode="&#xe604;" 
d="M512 -103h10q97 2 185.5 40.5t156 109t102.5 160t33 187.5q-2 97 -41.5 185t-104.5 152t-154.5 102t-186.5 38h-10q-97 -2 -185.5 -40.5t-156 -109t-102.5 -160t-33 -187.5q2 -97 41.5 -185t104.5 -152t154.5 -102t186.5 -38zM512 -126q-102 0 -195.5 39t-162 106
t-109.5 159.5t-43 195.5q-2 104 36.5 199t105.5 165t160.5 112t197.5 44h10q102 0 195.5 -39t162 -106t109.5 -159.5t43 -195.5q2 -104 -36.5 -199t-105.5 -165t-160.5 -112t-197.5 -44h-10v0zM820 562l-53 74q-6 8 -16 9.5t-18 -3.5q-43 -29 -108 -101.5t-104.5 -124.5
t-75.5 -101l-155 104q-8 5 -17.5 3.5t-15.5 -8.5l-52 -67q-7 -7 -5.5 -17t8.5 -16l231 -187q7 -5 16 -5h1l57 2q16 1 22 15q29 69 69 135t73 108t69 80t49 50t20.5 18t9 15t-4.5 17z" />
    <glyph glyph-name="uniE605" unicode="&#xe605;" 
d="M71 336v1q0 3 -1 6q-2 21 -2 41q0 90 35.5 172t95 141.5t141.5 95t172 35.5q109 0 203 -49.5t155 -134.5h-149h-5q-14 0 -24 -10t-10 -24t10 -24.5t24 -10.5q2 0 5 1h191v-1l74 1h1q-11 29 -28 58.5t-29 44.5l-12 15q-71 94 -177.5 148t-228.5 54q-104 0 -199 -40.5
t-163.5 -109t-109 -163.5t-40.5 -199q0 -22 2 -45v-3q0 -14 10 -24t25 -10q14 0 24 10t10 24zM1023 403h-1q0 14 -10 23.5t-24 9.5t-24 -10t-10 -24q0 -6 1 -11q1 -3 1 -7q0 -90 -35.5 -172t-95 -141.5t-141.5 -95t-172 -35.5q-102 0 -191 43.5t-152 119.5h145h4h4h2v1
q12 2 20 11.5t8 22t-8 22.5t-20 12h-2h-4h-4h-195h-69q1 -5 4.5 -14t20.5 -39t44 -61q73 -87 175 -136.5t218 -49.5q104 0 199 40.5t163.5 109t109 163.5t40.5 199q0 4 -0.5 10.5t-0.5 8.5z" />
    <glyph glyph-name="uniE606" unicode="&#xe606;" 
d="M423 195l-147 -84q-39 -22 -57 10l-77 133l37 21l21 -36l127 73l-21 37q-11 19 -31 7l-150 -87l-18 31l171 98q37 22 60 -17l44 -78l-164 -95l31 -53q8 -15 26 -4l153 88l8 -12q10 -18 -13 -32zM543 371q15 -80 -76 -149l-20 34q53 40 55 93l-82 -48l-17 30l92 54l-25 43
l-49 -28q-2 -32 -22 -53l-24 41q8 25 -1 54l34 20l8 -26l37 22l-18 31l37 21l18 -31l75 44l17 -30l-75 -44l25 -43l85 49l17 -30l-91 -52v-2zM589 384l93 -39l-48 -27l-89 40zM881 460l-39 29l6 -40q-1 -8 -14 -15l-21 -13l-12 92l-27 21q-9 7 -16 4l-8 -6l-14 26l21 12
q16 8 23 0l15 -9l-10 58l-26 -16l1 -10q2 -10 -8 -16l-24 -14l-20 84l34 19l7 -30l40 23q19 9 32 -16l20 -109l76 -53zM605 529l-17 29l36 21l-9 14l35 20l8 -14l38 21l17 -29zM666 507q2 -9 0 -15l14 8l23 -15v28l8 4l-39 38l33 19l41 -41l-7 -4l2 -68l70 -41l-37 -21
l-32 18v-37l-38 -22l-1 84l-55 33l-11 -6l-13 58l33 19zM512 -95q128 0 239 64q85 49 142.5 126t81 165t12 183.5t-59.5 179.5q-64 111 -175.5 175.5t-239.5 64.5t-239 -64q-85 -49 -142.5 -126t-81 -165t-12 -183.5t59.5 -179.5q64 -111 175.5 -175.5t239.5 -64.5z
M512 -125q-134 0 -252.5 67t-187.5 188q-52 89 -64.5 191t12.5 195t86.5 175t151.5 133q118 69 254 69q134 0 252.5 -67t187.5 -188q52 -89 64.5 -191t-12.5 -195t-86.5 -175t-151.5 -133q-118 -69 -254 -69v0z" />
    <glyph glyph-name="uniE607" unicode="&#xe607;" 
d="M512 -55q-27 0 -46 16.5t-19 39t19 39t46 16.5t46 -16.5t19 -39t-19 -39t-46 -16.5zM512 25q-12 0 -20.5 -7.5t-8.5 -17.5t8.5 -17t20.5 -7t20.5 7t8.5 17t-8.5 17.5t-20.5 7.5zM280 79v638h464v-638h-464zM708 686h-392v-576h392v576zM720 -97h-417q-38 0 -66 23.5
t-28 56.5v802q0 33 28 56.5t66 23.5h417q39 0 67 -23.5t28 -56.5v-802q0 -33 -28 -56.5t-67 -23.5zM778 785q0 20 -17 34.5t-41 14.5h-417q-23 0 -40 -14.5t-17 -34.5v-802q0 -20 17 -34.5t40 -14.5h417q24 0 41 14.5t17 34.5v802zM555 760h-86q-6 0 -9.5 4t-3.5 9.5t4 9.5
t9 4h86q5 0 9 -4t4 -9.5t-4 -9.5t-9 -4z" />
    <glyph glyph-name="uniE608" unicode="&#xe608;" 
d="M0 -67h1024v902zM616 3l-59 59l-159 150l60 58l159 -151l302 286l60 -58z" />
    <glyph glyph-name="uniE609" unicode="&#xe609;" 
d="M522 39l-14 -15l-13 15q-14 15 -35 39t-69.5 89.5t-85.5 129t-67 148t-30 156.5q0 117 88 200t212 83t212 -83t88 -200q0 -71 -29.5 -155.5t-66.5 -148t-85.5 -129t-69.5 -90t-35 -39.5zM508 850q-109 0 -186.5 -73t-77.5 -176q0 -60 23 -130.5t53.5 -127.5t71.5 -117
t66.5 -91.5t49.5 -58.5q24 27 49.5 59t67 92t72 117t53.5 127t23 130q0 103 -77.5 176t-187.5 73zM512 488q-48 0 -82 32t-34 77t34 77.5t82 32.5t82 -32.5t34 -77.5t-34 -77t-82 -32zM512 673q-33 0 -56.5 -22t-23.5 -53.5t23.5 -54t56.5 -22.5t56.5 22.5t23.5 54
t-23.5 53.5t-56.5 22zM131 -116l122 335h70v-34h-45l-97 -267h662l-97 267h-45v34h70l122 -335h-762z" />
    <glyph glyph-name="uniE60A" unicode="&#xe60a;" 
d="M1014 -64q-6 -6 -13 -6h-978q-7 0 -12.5 5.5t-5.5 12.5q0 5 0.5 15.5t5.5 37.5t13.5 54.5t26.5 63.5t42.5 67.5t64 63t88.5 53.5q15 8 24 -7q37 -65 102 -103t140 -38t140 38t102 103q9 14 24 7q49 -22 88.5 -53.5t64 -63t42.5 -67.5t26.5 -63.5t13.5 -54.5t5.5 -37.5
t0.5 -15.5q0 -7 -5 -12zM777 263q-43 -67 -113.5 -106t-151.5 -39t-151.5 39t-113.5 106q-49 -24 -86.5 -58.5t-58 -66.5t-34.5 -68.5t-18.5 -59t-6.5 -43.5h938q-2 21 -6.5 43.5t-18.5 59t-34.5 68.5t-58 66.5t-86.5 58.5zM512 221q-88 0 -151 62t-63 149v194q0 88 63 150
t151.5 62t151 -62t62.5 -150v-194q0 -87 -62.5 -149t-151.5 -62zM689 626q0 73 -52 124t-125 51t-125 -51t-52 -124v-194q0 -72 52 -123.5t125 -51.5t125 51.5t52 123.5v194z" />
    <glyph glyph-name="uniE60B" unicode="&#xe60b;" 
d="M512 896q-139 0 -257 -68.5t-186.5 -186.5t-68.5 -257t68.5 -257t186.5 -186.5t257 -68.5t257 68.5t186.5 186.5t68.5 257t-68.5 257t-186.5 186.5t-257 68.5zM512 36q-110 0 -188 65.5t-78 158.5q0 57 50 161.5t111 195.5t105 136q43 -44 104 -135t111.5 -196t50.5 -162
q0 -93 -78 -158.5t-188 -65.5zM299 256q0 -73 62.5 -124t150.5 -51t150.5 51t62.5 124q0 67 -79 209.5t-134 197.5q-56 -55 -134.5 -197.5t-78.5 -209.5zM639 335h33q13 -81 -39.5 -146.5t-140.5 -70.5v47q69 5 111.5 55.5t35.5 114.5z" />
    <glyph glyph-name="uniE60C" unicode="&#xe60c;" 
d="M479.5 756q-110.5 0 -204 -54.5t-147.5 -148t-54 -203.5t54 -203.5t147.5 -148t204 -54.5t203.5 54.5t147.5 148t54.5 203.5t-54.5 203.5t-147.5 148t-203.5 54.5zM484 161q-7 0 -51 37.5t-44 45.5q0 5 17.5 56t35.5 100l17 49q-39 49 -46 58q-6 6 -3 14.5t17 8.5h57h57
q13 0 16.5 -8.5t-2.5 -14.5l-46 -58q70 -194 70 -205q0 -8 -44 -45.5t-51 -37.5z" />
    <glyph glyph-name="uniE60D" unicode="&#xe60d;" 
d="M512 896q-104 0 -198.5 -40.5t-163 -109t-109 -163.5t-40.5 -199t40.5 -199t109 -163.5t163 -109t198.5 -40.5t198.5 40.5t163 109t109 163.5t40.5 199t-40.5 199t-109 163.5t-163 109t-198.5 40.5zM820 443l-138 -141l32 -198q4 -20 -6 -27.5t-27 2.5l-170 92l-171 -94
q-17 -10 -27 -2.5t-7 27.5l34 198l-138 140q-14 14 -10 26.5t23 15.5l190 30l86 180q9 18 21 18.5t21 -18.5l84 -179l191 -28q19 -3 22.5 -15t-10.5 -27z" />
    <glyph glyph-name="uniE60E" unicode="&#xe60e;" 
d="M269 602q3 -9 11 -22t14 -21l7 -9l-250 -121l-38 83q-2 3 -4.5 8t-5.5 19.5t-0.5 28t16.5 30.5t39 29l70 39q6 2 17 6.5t48.5 15.5t77 19.5t100.5 15.5t122 7h45q77 0 143.5 -7t106.5 -16t69 -18.5t40 -16.5l12 -6l64 -39q23 -12 35.5 -28.5t14 -31t-1 -27.5t-6.5 -20
l-4 -8l-45 -77l-230 115q19 26 26 52v6q-29 23 -83.5 35.5t-94.5 14.5l-40 1h-51q-49 0 -105 -11t-87 -22l-32 -12q-2 -1 -4 -3q-1 0 0 -3zM800 429q-50 66 -134 102v26q0 18 -7 31t-16 19t-18.5 9.5t-16.5 3.5l-6 1h-173q-20 0 -34 -6t-19.5 -14.5t-8.5 -17t-2 -14.5v-6
v-32q-97 -32 -141 -102q-4 -15 -11.5 -38.5t-23 -72.5t-25.5 -78t-10 -22v-109q1 -1 -0.5 -7t2.5 -15.5t10 -19t21 -16t37 -6.5h576q3 0 7.5 0.5t17 3.5t21.5 9.5t16.5 19.5t7.5 31v109zM544 499q6 0 12.5 -5t6.5 -14q0 -6 -5 -12.5t-14 -6.5q-13 0 -13 19t13 19zM480 499
q19 0 19 -19t-19 -19t-19 19t19 19zM512 467q35 0 59 -18t24 -46q0 -24 -25 -44t-58 -20t-58 20t-25 44q0 26 23 45t60 19zM378 365q-9 0 -14.5 6.5t-5.5 12.5t5.5 12.5t14.5 6.5q6 0 12.5 -5t6.5 -14q0 -5 -7.5 -12t-11.5 -7zM409.5 429q-8.5 0 -14 6.5t-5.5 12.5t5.5 12.5
t14.5 6.5q19 0 19 -19q0 -6 -5.5 -12.5t-14 -6.5zM442 301q-6 0 -13 5t-7 14q0 19 19.5 19t19.5 -19t-19 -19zM512 269q-6 0 -12.5 5t-6.5 14q0 6 5 12.5t14 6.5q6 0 12.5 -5t6.5 -14q0 -19 -19 -19zM582 301q-19 0 -19 19t19 19q6 0 13 -5t7 -14t-7 -14t-13 -5zM614 429
q-8 0 -13.5 6.5t-5.5 12.5t5.5 12.5t13.5 6.5q20 0 20 -19q0 -5 -7.5 -12t-12.5 -7zM646 365q-12 0 -12 19q0 6 5 12.5t14 6.5q19 0 19 -19q-10 -19 -26 -19z" />
    <glyph glyph-name="uniE60F" unicode="&#xe60f;" 
d="M511 763q70 -59 156.5 -112t160.5 -77v-75q-4 -147 -95 -288t-222 -210q-131 69 -222 210t-95 288v75q74 24 160.5 77t156.5 112zM511 835q-14 0 -25 -10q-133 -125 -308 -176q-17 -5 -28.5 -20t-11.5 -34v-97q5 -184 106 -336.5t267 -225.5q166 73 267 225.5t106 336.5
v97q0 19 -11.5 34t-28.5 20q-175 51 -308 176q-11 10 -25 10zM384 408q-39 27 -75 41l15 35q46 -18 82 -36zM361 199q-20 16 -46 32q16 29 37 82q14 36 19 70q13 -12 37 -21q-42 -122 -47 -163zM400 511q-24 33 -62 59l26 30q38 -27 68 -55zM578 430q89 0 138 5v-42
q-51 5 -146 5t-146 -5v42q44 -4 116 -5v82q-57 0 -89 -4v40q32 -4 89 -4q0 52 -5 75q25 -3 49 -3q15 0 4 -9q-10 -8 -10 -26v-37q74 0 111 4v-40q-37 4 -111 4v-82zM586 329l32 17q41 -53 83 -118l-42 -24q-8 19 -19 37l-125 -17q-43 -7 -63 -15q-5 18 -18 39q38 20 97 147
q18 -13 38 -21q15 -7 1 -12q-6 -2 -20 -19t-63 -86q69 3 137 14q-19 33 -38 58z" />
    <glyph glyph-name="uniE610" unicode="&#xe610;" 
d="M918 131h-78l-1 79q0 16 -11 27.5t-27 11.5t-27.5 -11.5t-11.5 -27.5v-79h-80q-16 0 -27.5 -11t-11.5 -27t11.5 -27.5t27.5 -11.5h80l-1 -80q0 -16 11.5 -27.5t28 -11.5t28 11.5t11.5 27.5v80h78q17 0 28.5 11.5t11.5 27.5t-11.5 27t-28.5 11zM680 223v-1h1q7 -2 14 -2
q16 0 28 11t12 27l-1 4q0 13 -8 23l1 1q-1 0 -2 1q-6 7 -15 11q-33 22 -69 37q55 38 87.5 97t32.5 128q0 112 -81 191.5t-195 79.5t-195 -79.5t-81 -191.5q0 -69 32.5 -128t87.5 -97q-94 -39 -157 -120t-78 -182q-2 -6 -2 -13l1 -3h-1h1q0 -16 11.5 -27.5t27.5 -11.5
t27.5 11.5t11.5 27.5h1q14 111 97.5 188.5t198.5 83.5q9 -1 17 -1t17 1q89 -5 163 -55q6 -8 15 -11zM485 366q-82 0 -139.5 56.5t-57.5 137t57.5 137t139.5 56.5t139.5 -56.5t57.5 -137t-57.5 -137t-139.5 -56.5z" />
    <glyph glyph-name="uniE611" unicode="&#xe611;" 
d="M862 309l-220 219q-2 2 -5.5 5t-15 8t-22.5 7t-27.5 -2.5t-31.5 -17.5l-72 -72q-51 -51 -59 -58l-32 30q-18 18 -43.5 18t-44.5 -18l-115 -110v-1q-16 -10 -15 -28q1 -12 9.5 -20t20.5 -8.5t21 6.5v-1q0 1 1 1.5t1 1.5q2 2 3 4l96 93q9 8 22 8t22 -8l97 -93q1 -2 3 -4
q0 -1 1 -1l1 -2v1q10 -8 22 -8q12 1 20 9.5t9 19.5q1 18 -13 28l-41 39l107 107q1 1 3 2.5t8 4.5t12.5 4.5t16 -1t18.5 -8.5q13 -14 62 -63.5t91 -92.5l42 -42l1 1q10 -9 24 -8q11 1 19 9.5t9 19.5t-6 20zM845 833h-664q-48 0 -81.5 -34t-33.5 -82v-663q0 -48 33.5 -82
t81.5 -34h664q48 0 82 34t34 82v663q0 48 -34 82t-82 34zM895 103q0 -41 -29 -70t-70 -29h-566q-41 0 -69.5 29t-28.5 70v566q0 40 28.5 69t69.5 29h566q41 0 70 -29t29 -69v-566zM426 529q20 0 34 14t14 34q-1 19 -14 32t-31 13q-21 1 -35 -13.5t-13 -34.5q0 -18 13 -31
t32 -14z" />
    <glyph glyph-name="uniE612" unicode="&#xe612;" 
d="M405 10h-253q-25 0 -43 18.5t-18 45.5v685q0 26 18 45t43 19h644q26 0 44 -19t18 -45v-260h-62v260l-644 2v-687l253 -2v-62zM241 673h436v-62h-436v62zM241 522h351v-61h-351v61zM241 372h236v-62h-236v62zM241 222h236v-62h-236v62zM957 42l-93 175q15 34 15 71
q0 73 -51.5 125t-124.5 52t-125 -51.5t-52 -124.5q0 -37 15 -72l-95 -173q-5 -9 1 -17t17 -6l80 18l28 -77q3 -9 14 -11v1l1 -1q9 0 14 9l83 154q17 -2 18 -2l16 1l84 -154q4 -8 14 -8h1q10 0 14 10l28 77l80 -19q11 -2 17 6t1 17zM586 64l-10 28q-2 7 -9 5l-30 -7l42 77
q15 -16 46 -33zM701.5 176q-46.5 0 -79.5 33.5t-32.5 80t33.5 79.5t79.5 33t79.5 -33.5t33 -80t-33.5 -79.5t-80 -33zM840 85q-8 2 -11 -6l-12 -34l-45 84q35 19 54 38l49 -90z" />
    <glyph glyph-name="uniE613" unicode="&#xe613;" 
d="M571 719h305q6 0 10.5 4.5t4.5 11t-4.5 11t-10.5 4.5h-305q-6 0 -10.5 -4.5t-4.5 -11t4.5 -11t10.5 -4.5zM876 612h-305q-6 0 -10.5 -4.5t-4.5 -10.5t4.5 -10.5t10.5 -4.5h305q6 0 10.5 4.5t4.5 10.5t-4.5 10.5t-10.5 4.5zM876 475h-305q-6 0 -10.5 -4.5t-4.5 -10.5
t4.5 -10.5t10.5 -4.5h305q6 0 10.5 4.5t4.5 10.5t-4.5 10.5t-10.5 4.5zM434 765h-275q-12 0 -21 -9t-9 -22v-274q0 -13 9 -22t21 -9h275q12 0 21 9t9 22v274q0 13 -9 22t-21 9zM434 460h-275v274h275v-274zM434 338h-275q-12 0 -21 -9t-9 -22v-274q0 -13 9 -22t21 -9h275
q12 0 21 9t9 22v274q0 13 -9 22t-21 9zM434 33h-275v274h275v-274zM861 338h-275q-12 0 -21 -9t-9 -22v-274q0 -13 9 -22t21 -9h275q13 0 21.5 9t8.5 22v274q0 13 -8.5 22t-21.5 9zM861 33h-275v274h275v-274z" />
    <glyph glyph-name="uniE614" unicode="&#xe614;" 
d="M102.5 99q-8.5 0 -14.5 6t-6 15v697q0 9 6 15t14.5 6t14.5 -6t6 -15v-697q0 -9 -6 -15t-14.5 -6zM530 -36q-3 0 -6 1l-428 135q-8 3 -12 10.5t-1.5 15.5t10 12t16.5 1l427 -135q8 -3 12 -10.5t1 -15.5q-4 -14 -19 -14zM529.5 -36q-8.5 0 -14.5 6t-6 14v698q0 8 6 14
t14.5 6t14.5 -6t6 -14v-698q0 -8 -6 -14t-14.5 -6zM530 661q-3 0 -6 1l-428 136q-8 2 -12 9.5t-1.5 16t10 12t16.5 1.5l427 -136q8 -2 12 -9.5t1 -15.5q-4 -15 -19 -15zM953.5 102q-8.5 0 -14.5 6t-6 14v698q0 9 6 15t14.5 6t14.5 -6t6 -15v-698q0 -8 -6 -14t-14.5 -6z
M538 -34q-15 0 -19 15q-3 8 1 15.5t12 9.5l416 136q8 2 15.5 -1.5t10 -11.5t-1.5 -15.5t-12 -10.5l-415 -136q-4 -1 -7 -1zM538 664q-15 0 -19 14q-3 8 1 16t12 10l416 136q8 2 15.5 -1.5t10 -12t-1.5 -16t-12 -9.5l-415 -136q-4 -1 -7 -1zM418 497q-3 0 -6 1l-201 62
q-8 2 -12 9.5t-1.5 15.5t10 12t15.5 2l201 -62q8 -2 12 -9.5t2 -15.5q-5 -15 -20 -15zM418 348q-3 0 -6 1l-201 61q-8 3 -12 10.5t-1.5 15.5t10 12t15.5 2l201 -62q8 -2 12 -9.5t2 -16.5q-5 -14 -20 -14zM418 204q-3 0 -6 1l-201 61q-8 3 -12 10.5t-1.5 15.5t10 12t15.5 1
l201 -61q8 -3 12 -10.5t2 -15.5q-5 -14 -20 -14zM645 489q-14 0 -19 13q-3 8 1 16t12 10l180 62q8 3 16 -1t10.5 -12t-1 -15.5t-11.5 -10.5l-181 -61q-3 -1 -7 -1zM645 339q-14 0 -19 14q-3 8 1 15.5t12 10.5l180 62q8 2 16 -1.5t10.5 -11.5t-1 -15.5t-11.5 -10.5l-181 -62
q-3 -1 -7 -1zM645 195q-14 0 -19 14q-3 8 1 15.5t12 10.5l180 61q8 3 16 -0.5t10.5 -11.5t-1 -16t-11.5 -10l-181 -62q-3 -1 -7 -1z" />
    <glyph glyph-name="uniE615" unicode="&#xe615;" 
d="M263 726v-31h498v31h-498zM169 570v-31h686v31h-686zM543 446v-31h312v31h-312zM543 321v-31h312v31h-312zM543 196v-31h312v31h-312zM543 72v-31h312v31h-312zM169 446v-405h281v405h-281zM200 415h219v-343h-219v343zM138 882q-51 0 -87.5 -36.5t-36.5 -88.5v-747
q0 -52 36.5 -88.5t87.5 -36.5h748q51 0 87.5 36.5t36.5 88.5v747q0 52 -36.5 88.5t-87.5 36.5h-748zM138 851h748q39 0 66 -27.5t27 -66.5v-747q0 -39 -27 -66.5t-66 -27.5h-748q-39 0 -66 27.5t-27 66.5v747q0 39 27 66.5t66 27.5zM138 851z" />
    <glyph glyph-name="uniE616" unicode="&#xe616;" 
d="M291 276q-12 -9 -12 -17q0 -16 41 -31t102 -15h2h1v2v36h-1h-2q-81 0 -131 25zM291 276zM291 445q6 -5 16 -9q10 -5 21 -8q41 -13 94 -13t94 13q11 3 20.5 7.5t16.5 9.5q12 8 12 16t-12 17q-20 -11 -49 -17q-24 -5 -52 -7q-15 -1 -30 -1t-30 1q-28 2 -52 7q-29 6 -49 17
q-12 -9 -12 -17t12 -16zM291 445zM392 319q-28 2 -52 8q-29 6 -49 16q-12 -9 -12 -16.5t12 -16.5q6 -5 16 -9q10 -5 21 -8q41 -13 94 -13h2h1v2q0 12 7 23q5 7 12 14q-11 -1 -22 -1q-15 0 -30 1zM392 319zM291 377q6 -4 16 -9q10 -4 21 -8q41 -12 94 -12t94 12q11 4 21 8
q9 5 16 9q12 9 12 17t-12 16q-20 -10 -49 -16q-24 -6 -52 -8q-15 -1 -30 -1t-30 1q-28 2 -52 8q-29 6 -49 16q-12 -8 -12 -16t12 -17zM291 377zM729 164q-51 -25 -131.5 -25t-130.5 25q-12 -9 -12 -17q0 -16 41 -31t102 -15t102 15t41 31q0 8 -12 17zM729 164zM729 231
q-21 -10 -49 -16q-25 -6 -52 -8q-15 -1 -30.5 -1t-30.5 1l-14 2q-14 1 -29 4q-5 1 -9 2q-10 2 -20 5q-16 5 -28 11q-12 -9 -12 -16v-1q0 -6 9 -14q1 0 3 -2q6 -5 16 -9l1 -1q9 -4 20 -7q40 -13 93.5 -13t94.5 13q11 4 21 8q9 4 16 9q12 9 12 16.5t-12 16.5zM729 231z
M510 896q-104 0 -198.5 -40.5t-162.5 -108.5t-108.5 -162.5t-40.5 -198t40.5 -198t108.5 -163t162.5 -108.5t198 -40t198 40t163 108.5t108.5 163t40 198t-40 198t-108.5 162.5t-163 108.5t-197.5 40.5zM770 282v-67v-68q0 -35 -51.5 -55t-121 -20t-121 20t-51.5 55v36h-1
h-2q-70 0 -121.5 20.5t-51.5 55.5v68v67v67v67q0 36 51.5 56t121 20t121 -20t51.5 -56v-67v-67v-36h2h2q65 0 115 -18t56 -50h1v-8zM770 282z" />
    <glyph glyph-name="uniE617" unicode="&#xe617;" 
d="M504 880q-102 0 -195 -40t-160.5 -107.5t-107.5 -160.5t-40 -195.5t40 -196t107.5 -160.5t160.5 -107t195.5 -40t195.5 40t160.5 107t107.5 160.5t40 196t-40 195.5t-107.5 160.5t-160.5 107.5t-196 40zM421 326q-17 -17 -56 -39v-177q0 -22 -23 -22q-19 2 -19 24v153
q-30 -13 -81 -30q-25 -2 -32 20q-3 22 19 29q57 17 94 37v177h-42q-2 -42 -22 -103q-7 -20 -27 -15q-20 7 -15 27q32 83 27 218q3 20 25 20q19 0 19 -22q0 -4 -2 -83h37v103q0 19 22 19q20 -2 20 -22v-100h34q17 0 20 -20q-3 -22 -20 -22h-34v-155q7 5 29 22q17 10 29 -7
q13 -15 -2 -32zM477 267q-12 15 3 32q15 12 29 0q30 -25 74 -81l3 -3q12 -19 -3 -34q-20 -12 -34 5q-3 5 -10 12q-29 37 -62 69zM779 331h-58v-182q-3 -83 -165 -42q-22 5 -17 27q7 20 29 15q108 -27 106 15v167h-219q-19 0 -22 22q3 22 22 22h219v66h-255q-25 0 -25 22.5
t25 22.5h142v76h-111q-19 0 -22 22q3 22 22 22h111v34q0 22 25 25q22 -3 22 -25v-34h140q22 0 24 -22q-2 -22 -24 -22h-140v-76h169q20 0 20 -23q0 -11 -5 -16.5t-15 -5.5h-56v-66h58q20 0 20 -22q0 -11 -5 -16.5t-15 -5.5zM779 331z" />
    <glyph glyph-name="uniE618" unicode="&#xe618;" horiz-adv-x="1025" 
d="M564 594q0 18 -30 18h-57q-18 0 -18 -18v-55h105v55zM564 594zM564 312q0 -13 -9.5 -23t-23.5 -10h-39q-14 0 -23.5 10t-9.5 23v16h-105q-8 0 -8 8t8 8h105v8q0 13 9.5 23t23.5 10h39q14 0 23.5 -10t9.5 -23v-8h178v139q0 9 -7 16t-17 7h-138v0h-138v0h-138q-10 0 -17 -7
t-7 -16v-139h26q8 0 8 -8t-8 -8h-26v-146q0 -10 7 -17t17 -7h414q10 0 17 7t7 17v146h-178v-16zM564 312zM511 896q-104 0 -198.5 -40.5t-163 -109t-109 -163t-40.5 -198.5t40.5 -199t109 -163t163 -108.5t198.5 -40.5t199 40.5t163 108.5t108.5 163t40.5 199t-40.5 198.5
t-108.5 163t-163 109t-199 40.5zM775 182q0 -24 -16.5 -40t-40.5 -16h-414q-23 0 -39.5 16t-16.5 40v301q0 23 16.5 39.5t39.5 16.5h122v55q0 22 13 36t38 14h68q24 0 37.5 -14t13.5 -36v-55h122q24 0 40.5 -16.5t16.5 -39.5v-301zM775 182zM492 369q-7 0 -12 -5t-5 -12v-40
q0 -6 5 -11t12 -5h39q7 0 12 5t5 11v40q0 7 -5 12t-12 5h-39zM492 369z" />
    <glyph glyph-name="uniE619" unicode="&#xe619;" 
d="M774 486q-6 6 -11 6h-69v-135h151q0 8 -11 23zM774 486zM511 894q-104 0 -198.5 -40.5t-163 -109t-109 -163t-40.5 -198.5t40.5 -198.5t109 -163t163 -109t198.5 -40.5t198.5 40.5t163 109t109 163t40.5 198.5t-40.5 198.5t-109 163t-163 109t-198.5 40.5zM342 115
q-29 0 -50 19.5t-21 47.5t21 48t50 20t49.5 -20t20.5 -48t-20.5 -47.5t-49.5 -19.5zM737 115q-30 0 -50.5 19.5t-20.5 47.5t20.5 48t50 20t50 -20t20.5 -48t-20.5 -47.5t-49.5 -19.5zM864 196h-28q-6 35 -34 58.5t-65.5 23.5t-65.5 -23.5t-33 -58.5h-197q-5 35 -33 58.5
t-66 23.5t-66 -23.5t-33 -58.5h-56q-12 0 -20 7.5t-8 19.5v404q0 12 8 19.5t20 7.5h451q12 0 20 -7.5t8 -19.5v-81h99q10 0 18 -4.5t11 -7.5t13 -15l63 -107q22 -29 22 -55v-134q0 -12 -8.5 -19.5t-19.5 -7.5zM864 196zM503 602l-71 -67l-71 67h-55l96 -91h-90v-18h96v-57
h-96v-17h96v-104h47v104h97v17h-97v57h97v18h-90l96 91h-55zM503 602z" />
    <glyph glyph-name="uniE61A" unicode="&#xe61a;" 
d="M512 519q-56 0 -95.5 -39.5t-39.5 -95.5t39.5 -95.5t95.5 -39.5t95.5 39.5t39.5 95.5t-39.5 95.5t-95.5 39.5zM512 864q-98 0 -186.5 -38t-153 -102.5t-102.5 -153t-38 -186.5t38 -186.5t102.5 -153t153 -102.5t186.5 -38t186.5 38t153 102.5t102.5 153t38 186.5
t-38 186.5t-102.5 153t-153 102.5t-186.5 38zM837 330h-33q-11 0 -21 -7.5t-14 -18.5l-18 -45q-6 -10 -4 -23t10 -20l23 -23q8 -8 8 -19.5t-8 -19.5l-38 -38q-8 -8 -19.5 -8t-19.5 8l-23 23q-7 8 -20 10t-23 -4l-45 -18q-11 -4 -18.5 -14t-7.5 -21v-33q0 -11 -8 -19t-19 -8
h-54q-11 0 -19 8t-8 19v33q0 11 -7.5 21t-18.5 14l-45 18q-10 6 -22.5 4t-20.5 -10l-23 -23q-8 -8 -19.5 -8t-19.5 8l-38 38q-8 8 -8 19.5t8 19.5l23 23q8 7 10 20t-4 23l-18 45q-4 11 -14 18.5t-21 7.5h-33q-11 0 -19 8t-8 19v54q0 11 8 19t19 8h33q11 0 21 7.5t14 18.5
l18 45q6 10 4 22.5t-10 20.5l-23 23q-8 8 -8 19.5t8 19.5l38 38q8 8 19.5 8t19.5 -8l23 -23q8 -8 20.5 -10t22.5 4l45 18q11 4 18.5 14t7.5 21v33q0 11 8 19t19 8h54q11 0 19 -8t8 -19v-33q0 -11 7.5 -21t18.5 -14l45 -18q10 -6 22.5 -4t20.5 10l23 23q8 8 19.5 8t19.5 -8
l38 -38q8 -8 8 -19.5t-8 -19.5l-23 -23q-8 -7 -10 -20t4 -23l18 -45q4 -11 14 -18.5t21 -7.5h33q11 0 19 -8t8 -19v-54q0 -11 -8 -19t-19 -8z" />
    <glyph glyph-name="uniE61B" unicode="&#xe61b;" 
d="M631 472h-240q-7 0 -12 -5t-5 -12t5 -12t12 -5h240q7 0 12 5t5 12t-5 12t-12 5zM631 472zM597 369h-172q-7 0 -12 -5t-5 -12t5 -12t12 -5h172q7 0 12 5t5 12t-5 12t-12 5zM597 369zM511 896q-104 0 -198.5 -40.5t-162.5 -109t-108.5 -163t-40.5 -198.5t40.5 -198.5
t108.5 -163t162.5 -109t198.5 -40.5t198.5 40.5t162.5 109t108.5 163t40.5 198.5t-40.5 198.5t-108.5 163t-162.5 109t-198.5 40.5zM511 180q-25 0 -51 5l-121 -73v121q-48 34 -75.5 83t-27.5 104q0 100 80.5 170.5t194.5 70.5t194.5 -70.5t80.5 -170t-80.5 -170
t-194.5 -70.5zM511 180z" />
    <glyph glyph-name="uniE61C" unicode="&#xe61c;" 
d="M774 457zM755 361l18 -10zM755 414l18 -9zM511 831.5q-91 0.5 -173.5 -34.5t-142.5 -95t-95.5 -142.5t-35.5 -173.5t35.5 -173.5t95.5 -142.5t142.5 -95.5t173.5 -35.5t173.5 35.5t142.5 95t95 142t35 173.5t-35 173.5t-95 142t-142.5 95t-173.5 36zM530 653l302 -154
l-302 -153l-304 154zM528 118l-303 154l39 19l1 1l263 -133l264 132l39 -20zM528 233l-303 154l39 19l1 1l263 -133l264 132l39 -20z" />
    <glyph glyph-name="uniE61D" unicode="&#xe61d;" 
d="M504 880q-102 0 -195.5 -40t-161 -107.5t-107 -161t-39.5 -196t39.5 -195.5t107 -160.5t161 -107.5t196 -40t195.5 40t160.5 107.5t107.5 160.5t40 195.5t-40 196t-107.5 161t-160.5 107.5t-196 40zM504 -110q-179 0 -315 117q3 128 95 217.5t220 89.5q-83 0 -142.5 59
t-59.5 142.5t59.5 143t143 59.5t142.5 -59.5t59 -143t-59 -142.5t-143 -59q129 0 220.5 -89.5t95.5 -217.5q-137 -117 -316 -117zM504 -110z" />
    <glyph glyph-name="uniE61E" unicode="&#xe61e;" 
d="M641 680v76h-259v-76h-171v-74h602v74h-172zM239 556l44 -537h458l44 537h-546zM426 121h-70v342h70v-342zM546 121h-69v342h69v-342zM670 121h-72v342h72v-342z" />
    <glyph glyph-name="uniE61F" unicode="&#xe61f;" horiz-adv-x="1025" 
d="M992 256h-192q-13 0 -22.5 9.5t-9.5 22.5t9.5 22.5t22.5 9.5h192q13 0 22.5 -9.5t9.5 -22.5t-9.5 -22.5t-22.5 -9.5zM992 448h-256q-13 0 -22.5 9.5t-9.5 22.5t9.5 22.5t22.5 9.5h256q13 0 22.5 -9.5t9.5 -22.5t-9.5 -22.5t-22.5 -9.5zM992 640h-256q-13 0 -22.5 9.5
t-9.5 22.5t9.5 22.5t22.5 9.5h256q13 0 22.5 -9.5t9.5 -22.5t-9.5 -22.5t-22.5 -9.5zM704 192v-128q0 -80 -56 -136t-136 -56h-320q-80 0 -136 56t-56 136v128q0 62 36 111.5t94 69.5q-66 88 -66 203q0 87 38.5 160.5t105 116.5t144.5 43t144.5 -43t105 -116.5t38.5 -160.5
q0 -115 -66 -203q58 -20 94 -69.5t36 -111.5zM576 576q0 106 -65.5 181t-158.5 75t-158.5 -75t-65.5 -181t65.5 -181t158.5 -75t158.5 75t65.5 181zM640 176q0 50 -34 89t-87 51q-75 -60 -167 -60t-167 60q-53 -12 -87 -51t-34 -89v-96q0 -60 46 -102t111 -42h262
q65 0 111 42t46 102v96zM800 128h192q13 0 22.5 -9.5t9.5 -22.5t-9.5 -22.5t-22.5 -9.5h-192q-13 0 -22.5 9.5t-9.5 22.5t9.5 22.5t22.5 9.5z" />
    <glyph glyph-name="uniE620" unicode="&#xe620;" 
d="M298.5 235q-61.5 0 -105.5 -43.5t-44 -105.5t44 -105.5t105.5 -43.5t105 43.5t43.5 105.5t-43.5 105.5t-105 43.5zM391 67l-30 -52q-11 -19 -33 -19h-60q-22 0 -32 19l-30 52q-11 19 0 38l30 52q10 19 32 19h60q22 0 33 -19l30 -52q11 -19 0 -38zM718 595l-112 205
q-17 32 -53 32h-239q-34 0 -51 -29l-127 -207q-18 -30 0 -61l119 -206q17 -30 51 -30h240q34 0 51 30l120 207q17 30 1 59zM426.5 360q-80.5 0 -138 57t-57.5 138t57.5 138t138 57t138 -57t57.5 -138t-57.5 -138t-138 -57zM682 133.5q0 28.5 18 50.5t45 27v55
q-50 -5 -84.5 -43t-34.5 -89.5t34.5 -89t84.5 -43.5v56q-27 5 -45 26.5t-18 50zM775 267v-56q28 -5 46 -27t18 -50.5t-18 -50t-46 -26.5v-56q51 6 85.5 43.5t34.5 89t-34.5 89.5t-85.5 44z" />
    <glyph glyph-name="uniE621" unicode="&#xe621;" 
d="M289 35q0 -31 31 -44.5t54 9.5l350 349q15 15 15 35t-15 35l-350 349q-22 23 -53.5 10t-31.5 -45v-698z" />
    <glyph glyph-name="uniE622" unicode="&#xe622;" horiz-adv-x="1025" 
d="M512 896q-104 0 -199 -40.5t-163.5 -109t-109 -163.5t-40.5 -199t40.5 -199t109 -163.5t163.5 -109t199 -40.5t199 40.5t163.5 109t109 163.5t40.5 199t-40.5 199t-109 163.5t-163.5 109t-199 40.5zM512.5 -48q-117.5 0 -217 57.5t-157.5 157.5t-58 217t58 217
t157.5 157.5t217 57.5t217 -57.5t157 -157.5t57.5 -217t-57.5 -217t-157 -157.5t-217 -57.5zM540 411v276h-81v-254v-51v-51h314v80h-233z" />
    <glyph glyph-name="uniE623" unicode="&#xe623;" 
d="M961 -20l-272 272q86 100 86 231q0 97 -47.5 178.5t-129.5 129.5t-178.5 48t-178.5 -48t-129.5 -129.5t-47.5 -178t47.5 -178.5t129.5 -129.5t178 -47.5q115 0 208 67l275 -274zM106 483.5q0 129.5 92 221.5t221.5 92t221.5 -92t92 -221.5t-92 -221.5t-221.5 -92
t-221.5 92t-92 221.5z" />
    <glyph glyph-name="uniE624" unicode="&#xe624;" 
d="M163 607q-31 0 -44.5 -31t9.5 -54l349 -350q15 -15 35 -15t35 15l349 350q23 22 10 53.5t-45 31.5h-698zM960 37z" />
    <glyph glyph-name="uniE625" unicode="&#xe625;" 
d="M861 161q31 0 44.5 31t-9.5 54l-349 350q-15 15 -35 15t-35 -15l-349 -350q-23 -22 -10 -53.5t45 -31.5h698z" />
    <glyph glyph-name="uniE626" unicode="&#xe626;" 
d="M828 -109l-316 233l-316 -233l120 377l-316 232h391l121 377l121 -377h391l-316 -232zM108 465l250 -184l-96 -297l250 184l250 -184l-96 297l250 184h-309l-95 297l-95 -297h-309z" />
    <glyph glyph-name="uniE627" unicode="&#xe627;" 
d="M936 272q-9 35 -27 74t-32 60l-13 21q10 33 5.5 57.5t-15.5 38.5l-10 15l-4 29q-5 27 -14.5 54.5t-17.5 41.5l-7 14q-8 15 -20 31t-21 25l-8 9q-33 33 -82 53t-82 23l-33 3q-49 1 -92 -7t-69.5 -20.5t-46 -25t-27.5 -21.5l-8 -9q-22 -20 -39 -47.5t-25.5 -52t-14 -46.5
t-6.5 -35l-1 -13q-23 -20 -29.5 -48t-3.5 -45t5 -17q-84 -60 -109 -157l-3 -13q-7 -50 -1 -78t16 -37l11 -10q14 -8 32 0.5t28.5 19t10.5 12.5q4 -17 15.5 -33.5t20.5 -24.5l10 -8q-5 1 -13.5 -5t-14.5 -12t-6 -7q-14 -24 -14 -43.5t10 -34t21.5 -24t21.5 -13.5l10 -5
q59 -20 120 -12.5t107.5 21.5t46.5 16l133 -27q68 -14 112 -2.5t66.5 19t32.5 28.5t10.5 26t0.5 11q0 8 -3.5 16t-9 14.5t-12.5 12.5t-13.5 10t-11.5 7.5t-9 4.5l-3 2q9 6 16 18.5t10 21.5l3 9q15 -17 28.5 -23t20 -5t6.5 2q20 9 31.5 26.5t13.5 36.5t1.5 37t-2.5 30z
M884 175l-29 50q-1 3 -4.5 6t-14 1.5t-19.5 -16.5q-2 -8 -6.5 -20.5t-19.5 -39.5t-31 -39q-33 -21 25 -44l30 -17q32 -24 2 -34q-3 -3 -8.5 -6.5t-27 -10t-48.5 -8.5t-73.5 4.5t-101.5 23.5l-55 8l-4 -4q-2 -2 -11 -8t-19.5 -11t-28.5 -10.5t-38 -8.5t-48 -2t-59 6
q-3 0 -7 1l-17 6q-12 4 -21 8.5t-16.5 11.5t-7.5 15q-1 1 -1 3t2.5 7.5t6.5 10t13.5 8.5t23.5 4q2 1 4.5 2t8.5 5t9.5 8t3 10.5t-6.5 13.5q-2 1 -6 3.5t-15 12.5t-20.5 22t-20 32.5t-16.5 43.5l-5 7q-3 5 -12 11t-16 1l-6 -7q-3 -5 -8 -12q-20 -32 -34 -36q-1 6 -2 16.5
t2.5 40t14 57t37.5 61t67 57.5q-2 2 -4.5 6t-7 16t-4 24.5t9.5 30t27 33.5q0 5 0.5 13.5t4.5 32.5t12 46.5t25.5 50.5t42 48.5t65 36.5t91.5 20q5 0 14.5 0.5t36.5 -2t52.5 -9.5t57.5 -25t57 -44.5t45.5 -72.5t27.5 -105q2 -1 4.5 -4t8.5 -12.5t9 -20t2.5 -28t-6.5 -35.5
q2 -4 6.5 -9.5t15 -23.5t20 -35.5t18.5 -42t13.5 -46t2.5 -45t-13 -42.5z" />
    <glyph glyph-name="uniE628" unicode="&#xe628;" 
d="M398 400q-1 8 6 11q19 10 59 30q101 52 131 67q18 9 27 -1q1 -1 3 -1.5t3 -1.5q49 -29 102 -2q56 28 59 92q-1 17 -1 18q-5 36 -32 62t-62 30q-29 4 -58.5 -9.5t-45.5 -38.5q-18 -29 -18 -64q0 -6 -4 -8l-40 -20q-46 -24 -63 -32q-85 -43 -99 -50q-5 -3 -11 1
q-31 23 -65.5 23t-64.5 -23q-52 -40 -40 -107q7 -39 40 -65q27 -21 60.5 -22t62.5 18q7 4 13 1l25 -12q17 -9 26 -14q5 -2 59 -30t82 -42q10 -5 15 -11t6 -17q2 -49 51 -81q16 -11 45 -14q59 -7 96 40q38 50 13 110q-13 33 -46 50.5t-67 12.5q-33 -5 -53 -22q-6 -6 -11 -3
q-9 5 -25 13t-22 10q-24 13 -72 37.5t-73 36.5q-9 5 -10.5 8t-0.5 13v7z" />
    <glyph glyph-name="uniE629" unicode="&#xe629;" 
d="M1017 375q-7 -9 -17 -21.5t-39 -44t-60 -60t-77 -62.5t-92.5 -58.5t-105 -41t-114.5 -16.5t-114.5 16.5t-105 41t-92.5 58.5t-77 62.5t-60 60t-39 44t-17 21.5l-7 9l7 9q7 9 17 21.5t39 44t60 60t77 62.5t92.5 58.5t105 41t114.5 16.5t114.5 -16.5t105 -41t92.5 -58.5
t77 -62.5t60 -60t39 -44t17 -21.5l7 -9zM512 666q-66 0 -135.5 -25.5t-120.5 -59t-101 -78t-73.5 -70.5t-42.5 -49q19 -23 42.5 -49t73.5 -70.5t101 -78t120.5 -59t135.5 -25.5t135.5 25.5t120.5 59t101 78t73.5 70.5t42.5 49q-19 23 -42.5 49t-73.5 70.5t-101 78t-120.5 59
t-135.5 25.5zM512 151q-96 0 -164 68.5t-68 164.5t68 164.5t164 68.5t164 -68.5t68 -164.5t-68 -164.5t-164 -68.5zM512 586q-83 0 -142 -59t-59 -143t59 -143t142 -59t142 59t59 143t-59 143t-142 59z" />
    <glyph glyph-name="uniE62A" unicode="&#xe62a;" 
d="M836 519h-832v-245l37 -25v25h795l184 122z" />
    <glyph glyph-name="uniE62B" unicode="&#xe62b;" 
d="M30 524l345 17l127 353l178 -359l314 -11l-294 -303l147 -325l-325 191l-350 -213l162 364z" />
    <glyph glyph-name="uniE62C" unicode="&#xe62c;" 
d="M241 238zM512 840q-98 0 -181.5 -48.5t-132 -131.5t-48.5 -181q0 -137 92 -241l235 -296q14 -17 33.5 -17t33.5 17l234 296q95 104 95 241q0 98 -48 181t-131.5 131.5t-181.5 48.5zM512 342q-57 0 -97 40t-40.5 96.5t40 97t97 40.5t97 -40t40.5 -96.5t-40 -97t-97 -40.5z
" />
    <glyph glyph-name="uniE62D" unicode="&#xe62d;" 
d="M856 268q-6 81 -83 167q3 7 4.5 21.5t-5 37.5t-22.5 40v2q0 107 -67 177t-164 71q-97 -1 -163.5 -71t-66.5 -177v-2q-17 -17 -23 -40t-5 -37.5t4 -21.5q-77 -86 -83 -167q-2 -41 12 -59q7 -7 17 -4.5t23.5 17.5t24.5 38q13 -46 54 -100q-26 -6 -42 -24t-17 -36.5t7 -35.5
q23 -38 93 -38q106 0 150 42q5 5 15 5t16 -5q43 -42 149 -42q70 0 94 38q7 17 6.5 35.5t-16.5 36.5t-42 24q40 54 53 100q11 -23 24.5 -38t24 -17.5t16.5 4.5q14 18 12 59z" />
    <glyph glyph-name="uniE62E" unicode="&#xe62e;" 
d="M903 49h-782q-23 0 -39.5 16.5t-16.5 39.5v558q0 23 16.5 39.5t39.5 16.5h782q23 0 39.5 -16.5t16.5 -39.5v-558q0 -23 -16.5 -39.5t-39.5 -16.5zM840 601q-8 8 -19.5 8t-19.5 -8l-97 -96l-136 -136q-25 -23 -58 -23q-29 0 -54 21v-2l-183 183l2 1l-52 52q-8 8 -19.5 8
t-19.5 -8.5t-8 -20t8 -19.5l176 -177l-176 -177q-8 -8 -8 -19.5t8 -20t19.5 -8.5t19.5 8l177 177l46 -46q3 -4 7 -8l3 -3v1q24 -19 53 -19q34 0 59 25v-2l54 53l177 -178q8 -8 19.5 -8t20 8.5t8.5 20t-8 19.5l-178 177l179 177q8 8 8 19.5t-8 20.5zM840 601z" />
    <glyph glyph-name="uniE62F" unicode="&#xe62f;" 
d="M857 -26q43 24 69 43l6 5q7 4 8 5q18 15 18 38q0 22 -17 36l-198 164q-14 10 -31 10q-19 0 -33 -13l-34 -34q-15 -15 -37 -15t-37 15l-203 203q-16 16 -16 38t16 37l33 33q13 14 13 34q0 19 -13 33l-170 206q-15 18 -38 18q-24 0 -38 -20l-3 -4q-86 -115 -86 -204
q0 -50 35 -120.5t91.5 -143t129 -145t145 -129t143 -91.5t119.5 -35q2 0 5.5 0.5t5.5 0.5q63 5 117 35z" />
    <glyph glyph-name="uniE630" unicode="&#xe630;" 
d="M877 800q-6 4 -14 4q-7 0 -13 -4l-753 -502q-13 -9 -11.5 -24t16.5 -20l196 -79l92 -161q7 -13 22 -13q14 0 21 12l53 87l243 -97q4 -2 9 -2q7 0 12 3q11 6 13 18l125 753q3 16 -11 25zM164 283l582 387l-423 -452l-3 2l-4 2zM341 200l475 509l-405 -631zM718 61l-214 86
q-6 2 -16 3l330 511z" />
    <glyph glyph-name="uniE631" unicode="&#xe631;" 
d="M448 840h-364q-12 0 -20.5 -8.5t-8.5 -20.5v-364q0 -12 8.5 -20.5t20.5 -8.5h364q12 0 20.5 8.5t8.5 20.5v364q0 12 -8.5 20.5t-20.5 8.5zM399 497h-266v263h266v-263zM268 631zM214 630.5q0 22.5 15.5 38.5t38 16t38.5 -16t16 -38.5t-16 -38t-38.5 -15.5t-38 15.5
t-15.5 38zM940 840h-363q-12 0 -20.5 -8.5t-8.5 -20.5v-364q0 -12 8.5 -20.5t20.5 -8.5h363q12 0 20.5 8.5t8.5 20.5v364q0 12 -8.5 20.5t-20.5 8.5zM892 497h-266v263h266v-263zM761 631zM706 630.5q0 22.5 16 38.5t38.5 16t38.5 -16t16 -38.5t-16 -38t-38.5 -15.5
t-38.5 15.5t-16 38zM450 348h-364q-12 0 -20.5 -8.5t-8.5 -20.5v-363q0 -12 8.5 -20.5t20.5 -8.5h364q12 0 20.5 8.5t8.5 20.5v363q0 12 -8.5 20.5t-20.5 8.5zM401 6h-266v263h266v-263zM270 139zM216 139.5q0 22.5 15.5 38.5t38 16t38.5 -16t16 -38.5t-16 -38.5t-38.5 -16
t-38 16t-15.5 38.5zM706 19h89v-92h-89v92zM880 -73h60q12 0 20.5 8.5t8.5 20.5v63h-89v-92zM940 348h-48v-161h-85v161h-232q-12 0 -20.5 -8.5t-8.5 -20.5v-363q0 -12 8.5 -20.5t20.5 -8.5h50v92v85v60h81v-60h263v215q0 12 -8.5 20.5t-20.5 8.5z" />
    <glyph glyph-name="uniE632" unicode="&#xe632;" 
d="M744 798q-45 0 -98 -22t-85.5 -44t-62.5 -47l-22 21q-21 22 -28 27.5t-30 22t-39.5 23t-43.5 13t-55 6.5q-109 0 -186.5 -78t-77.5 -187q0 -32 5.5 -59t18.5 -51t23 -38t29 -38l330 -334q43 -43 90 -43t90 43l328 332q78 85 78 188q0 109 -77.5 187t-186.5 78zM882 391
l-327 -331q-24 -24 -43 -24q-20 1 -43 24l-326 329q-34 43 -47.5 71.5t-13.5 72.5q0 82 58 140.5t140 58.5q33 0 67 -16t55.5 -34t46 -40.5t31.5 -27.5q22 -16 46 5q15 13 31.5 26t49.5 35.5t69.5 37t67.5 14.5q82 0 140 -58.5t58 -140.5q0 -77 -60 -142z" />
    <glyph glyph-name="uniE633" unicode="&#xe633;" 
d="M781 430q80 0 137 57t57 138t-57 138t-137.5 57t-137.5 -57t-57 -138q0 -42 16 -79l-260 -182q-50 56 -126 56q-69 0 -118 -49t-49 -118.5t49 -119t118 -49.5q50 0 91 26.5t61 69.5l237 -64q-1 -6 -1 -13q0 -59 42 -100.5t100.5 -41.5t100.5 41.5t42 100.5t-42 100.5
t-100 41.5q-37 0 -69 -17.5t-51 -47.5l-243 66v6q0 27 -8 52l264 185q58 -59 141 -59zM746.5 181q32.5 0 55 -23t22.5 -55t-22.5 -54.5t-55 -22.5t-55 22.5t-22.5 54.5t22.5 55t55 23zM216.5 161q-38.5 0 -65 26.5t-26.5 64.5t26.5 65t65 27t65 -27t26.5 -65t-26.5 -64.5
t-65 -26.5zM780.5 732q44.5 0 75.5 -31.5t31 -75.5t-31 -75t-75.5 -31t-75.5 31t-31 75t31 75.5t75.5 31.5z" />
    <glyph glyph-name="uniE634" unicode="&#xe634;" 
d="M387 42l-376 355l102 101l376 -356zM387 37l-103 101l627 593l102 -101z" />
    <glyph glyph-name="uniE635" unicode="&#xe635;" 
d="M653 454v-563h-282v563h282zM512 877l422 -423h-844z" />
    <glyph glyph-name="uniE636" unicode="&#xe636;" 
d="M371 314v563h282v-563h-282zM512 -109l-422 423h844z" />
    <glyph glyph-name="uniE637" unicode="&#xe637;" 
d="M716 -62q-68 0 -179 69q-105 65 -206 163l-21 21q-98 100 -163 206q-68 111 -68 179q0 66 61 147q11 16 24.5 31t38.5 33t44 18q25 0 61 -37q27 -28 57 -71q28 -41 48 -78q23 -43 23 -64q0 -27 -29 -47q-12 -9 -42 -21q-25 -11 -31 -16q5 -21 36 -66q36 -53 79 -97
q43 -42 96 -79q45 -30 66 -35q5 6 16 31q13 30 21 42q20 28 47 28q22 0 65 -22q37 -20 78 -48q43 -31 70 -57q37 -36 37 -61q0 -20 -17.5 -44.5t-33 -38t-30.5 -24.5q-82 -62 -148 -62zM367 206q96 -94 197 -155q99 -61 152 -61q48 0 115 49q28 21 46 42q14 16 17 25
q-4 9 -27 30.5t-63 49.5q-37 25 -69 42q-28 14 -39 16q-3 -2 -8 -10t-14 -29q-11 -26 -18 -37q-17 -26 -42 -26h-1q-31 1 -96 45q-58 39 -104 85h-1q-46 47 -85 104q-44 65 -44 97q-1 25 25 42q11 7 37 19q21 9 29 13.5t10 8.5q-1 11 -16 39q-17 32 -42 68
q-28 41 -49.5 63.5t-30.5 27.5q-9 -3 -25 -17q-21 -18 -42 -47q-49 -66 -49 -114q0 -54 61 -152q62 -101 156 -197z" />
    <glyph glyph-name="uniE638" unicode="&#xe638;" 
d="M912 92l-496 489l96 95l495 -489zM112 92l-95 95l478 471l95 -94z" />
    <glyph glyph-name="uniE639" unicode="&#xe639;" 
d="M294 890l-60 -62l435 -443l-432 -445l60 -62l433 445l60 62z" />
    <glyph glyph-name="uniE63A" unicode="&#xe63a;" 
d="M730 -122l60 62l-435 443l432 445l-60 62l-433 -445l-60 -62z" />
    <glyph glyph-name="uniE63B" unicode="&#xe63b;" 
d="M220 -16l489 496l95 -96l-489 -495zM220 784l95 95l471 -478l-94 -95z" />
    <glyph glyph-name="uniE63C" unicode="&#xe63c;" 
d="M804 784l-489 -496l-95 96l489 495zM804 -16l-95 -95l-471 478l94 95z" />
    <glyph glyph-name="uniE63D" unicode="&#xe63d;" horiz-adv-x="2579" 
d="M255 330l-255 452h2579v-910h-2579zM2465 896l114 -114h-114v114z" />
    <glyph glyph-name="uniE63E" unicode="&#xe63e;" 
d="M120 -1l263 74l27 27l-185 186l-27 -28zM256 317l185 -186l363 362l-186 186zM887 688l-74 74q-32 32 -55.5 32t-55.5 -32l-53 -52l186 -186l52 53q32 32 32 55.5t-32 55.5v0zM380 757q-32 32 -55.5 32t-55.5 -32l-176 -176l-31 31l186 185q31 32 76.5 32t77.5 -32
l102 -102l-31 -31l-93 93v0zM170 565l62 62l31 -31l-62 -61l-3 3l34 -34l93 92l31 -31l-93 -92l9 -10l-31 -31l-148 149l31 31zM603 133l92 -93l47 -46l145 145q32 32 32 55.5t-32 55.5l-97 98l31 31l106 -107q32 -32 32 -77t-32 -77l-154 -155l-31 -31l-31 31l-153 153
l31 31l14 -14v0zM726 195l-92 -93l-31 31l92 93zM742 148l31 -30l-78 -78l-30 31zM742 148z" />
    <glyph glyph-name="uniE63F" unicode="&#xe63f;" 
d="M413 562v-189q-1 -2 -1.5 -6.5t0.5 -16t5 -20t15.5 -15.5t28.5 -7h263v-282q-433 -1 -529 0q-87 1 -87 119v89v328h305zM57 804h404v-168h-404v168zM798 367h169v-403h-169v403z" />
    <glyph glyph-name="uniE640" unicode="&#xe640;" 
d="M704 641h63v63v192h-63v-192h-384v192h-63v-192v-63h63h384zM471 171l169 151v63h-160l118 106l-45 45l-169 -151v0v-63h160l-118 -106zM831 704v-63q53 0 90.5 -37.5t37.5 -90.5v-191q-2 -6 -5.5 -15t-19.5 -36t-37 -51t-60 -54t-86 -51t-118 -36t-153 -15
q-275 0 -375 151q-37 56 -40 107v191q0 53 37.5 90.5t90.5 37.5v63q-79 0 -135.5 -56t-56.5 -135v-191q0 -40 13.5 -81t48.5 -85t87.5 -77.5t138.5 -55.5t193 -22h12q19 -34 19 -64q0 -16 -18 -32t-29 -21.5t-18 -8.5h64q7 3 17.5 8.5t28.5 21.5t18 32q0 31 -20 67
q93 7 172 31t132 57.5t91 74t55 79.5t17 76v191q0 79 -56 135t-136 56z" />
    <glyph glyph-name="uniE641" unicode="&#xe641;" 
d="M927 681q-5 10 -16 13.5t-22 -2.5q-3 -1 -5 -3l-4 -4l-143 -143l-66 67l143 143q3 3 5 6q1 2 1 3q6 11 2.5 22t-13.5 16q-61 31 -129 31q-116 0 -198 -81.5t-82 -197.5q0 -39 11 -77l-146 -146h-4q-81 0 -138.5 -57.5t-57.5 -138.5t57.5 -138t138.5 -57t138 57t57 138v5
l146 146q38 -11 78 -11q115 0 197 82t82 197q0 69 -32 130zM416 172l-19 -5q6 -21 6 -37q0 -60 -42.5 -102.5t-102.5 -42.5t-102.5 42.5t-42.5 102.5t42.5 102t102.5 42q16 0 37 -5l5 18l133 133q41 -75 115 -116zM680 321q-96 0 -163.5 67.5t-67.5 163t67.5 163t163.5 67.5
q35 0 69 -11l-140 -140q-8 -9 -8 -20.5t8 -20.5l109 -109q9 -9 21 -9t20 9l140 140q11 -34 11 -70q0 -95 -67.5 -162.5t-162.5 -67.5zM261 216q-35 0 -59.5 -24.5t-24.5 -59t24.5 -59t59 -24.5t59 24.5t24.5 59t-24.5 59t-58.5 24.5zM261 94q-16 0 -27 11.5t-11 27t11 26.5
t26.5 11t27 -11t11.5 -26.5t-11.5 -27t-26.5 -11.5zM261 104z" />
    <glyph glyph-name="uniE642" unicode="&#xe642;" 
d="M764 156q-9 0 -17 -1v-1q0 -77 -68 -131q-38 -30 -88 -43q15 -47 63 -77.5t110 -30.5q74 0 126.5 41.5t52.5 100.5t-52.5 100.5t-126.5 41.5zM764 156zM857 588q-4 23 -30 38.5t-63 15.5q-50 0 -77 -27l83 -436q70 -1 123.5 -38t66.5 -92zM857 588zM277 154v1q-8 1 -17 1
q-74 0 -126.5 -41.5t-52.5 -100.5t52.5 -100.5t126.5 -41.5q62 0 110 30.5t63 77.5q-50 13 -88 43q-68 54 -68 131zM277 154zM254 179l83 436q-27 27 -77 27q-37 0 -63 -15.5t-30 -38.5l-103 -539q13 55 66.5 92t123.5 38zM254 179zM720 162q0 12 -2 22q-7 41 -36.5 74
t-74.5 52q-45 18 -96 18q-62 0 -114 -26q-39 -20 -63.5 -51.5t-30.5 -68.5q-1 -10 -1 -20v-4q2 -49 36 -88.5t88 -58.5q40 -14 85 -14q34 0 67 8q62 17 101.5 60t40.5 97zM720 162zM282 204q10 39 39 71.5t71 52.5q56 28 121 28q52 0 100 -19t82 -54.5t45 -78.5l-76 398
l-45 231q-4 27 -34.5 45t-73.5 18t-73 -18t-35 -45l-54 -279l-67 -350v0zM282 204z" />
    <glyph glyph-name="uniE643" unicode="&#xe643;" 
d="M677 437l-105 14l-46 85q-5 9 -16 9q-10 0 -15 -9l-46 -87l-102 -15q-11 -2 -14.5 -12.5t4.5 -18.5l74 -66l-16 -93q-2 -11 7 -18q4 -3 10 -3q4 0 8 2l92 46l94 -45q10 -5 18.5 2t6.5 18l-19 93l75 67q8 8 4.5 19t-14.5 12zM581 359q-8 -7 -6 -17l14 -68l-69 33
q-8 4 -16 0l-68 -34l12 68q1 9 -6 16l-52 47l73 11q9 1 13 9l35 65l34 -64q4 -8 13 -9l76 -9zM949 83v2l-1 1q-6 12 -14.5 32.5t-22.5 82t-19 130.5t6 176t43 219v1v1q23 50 7 76q-13 20 -54 20q-25 0 -59 -7l-2 -1h-1q-22 -8 -56.5 -18.5t-129.5 -27.5t-182 -17
q-152 0 -273 48h-1q-43 21 -80 21q-26 0 -38 -15q-18 -21 -8 -77l1 -3l1 -3q8 -14 18 -39t28 -95.5t25 -143.5t-4 -178t-47 -205v-1q-2 -3 -3.5 -7.5t-5 -16.5t-5 -23t0.5 -24t8 -22q16 -25 64 -25q26 0 60 7h2q16 5 44.5 11t115.5 15.5t178 9.5q160 0 321 -28h1
q17 -4 35 -4q37 0 52 21q22 31 -5 107zM908 13q-8 -10 -22 -10q-5 0 -10 1h1h-2q-165 29 -329 29q-92 0 -179.5 -9.5t-119 -16t-52.5 -12.5q-17 -3 -30 -3q-27 0 -37 15t-1 37l1 1q36 101 48 207.5t6 182t-23 150t-28.5 104.5t-21.5 51v2l-1 1q-1 13 6 20t19 7q16 0 38 -10
l1 -1q129 -51 291 -51q89 0 184.5 16t134 27.5t64.5 20.5v1h1q15 3 26 3q19 0 26 -11q6 -9 0 -20l-1 -2l-1 -2q-32 -113 -43.5 -222t-7 -181t18.5 -137.5t23.5 -90.5t17.5 -42l1 -1q13 -38 1 -54z" />
    <glyph glyph-name="uniE644" unicode="&#xe644;" 
d="M793 54q-15 0 -25 10.5t-10 24.5v35h35q25 0 42.5 5t22.5 9l5 5v-54q0 -14 -10.5 -24.5t-24.5 -10.5h-35zM196 54q-14 0 -24.5 10.5t-10.5 24.5v54q2 -2 6 -5t21.5 -8.5t42.5 -5.5h35v-35q0 -14 -10 -24.5t-25 -10.5h-35zM962 422q0 34 -24 58t-58 24q-25 0 -46 -15
t-29 -38l-39 -87q-4 3 -35.5 11.5t-94.5 18t-122 9.5t-123 -9.5t-97 -18t-36 -11.5l-37 81q-7 26 -28.5 42.5t-48.5 16.5q-34 0 -58 -24t-24 -58q0 -27 17 -48.5t43 -29.5l15 -129q4 -15 16 -26.5t24 -17t26 -8.5t20 -3.5t8 -0.5h562q3 0 8.5 0.5t19.5 3.5t26 8.5t24 17
t16 26.5l15 129q26 8 43 29.5t17 48.5zM144 546q-3 0 -6.5 -0.5t-4.5 -0.5v0q0 70 49 119.5t119 49.5h422q70 0 119 -49.5t49 -119.5v0q-1 0 -4.5 0.5t-6.5 0.5q-37 0 -69 -22t-45 -57l-20 -45q-25 8 -99 15.5t-133 7.5q-60 0 -135 -7.5t-101 -16.5l-17 39q-13 38 -45.5 62
t-71.5 24z" />
    <glyph glyph-name="uniE645" unicode="&#xe645;" 
d="M973 458l-371 371q-20 21 -52.5 19.5t-54.5 -23.5l-81 -81h-1v2l-34 33q-7 7 -17 7t-17 -7l-120 -120q-7 -7 -7 -17t7 -17l231 -232l-10 -10l-12 12q-22 22 -56 22t-56 -22q-2 -3 -4 -5q-14 -22 -20 -40l-244 -208q-24 -23 -24 -56t24 -56l77 -77q23 -24 56 -24t59 26
l199 245q19 4 43 19q3 2 5 4q24 24 24 57t-24 56l-13 13l27 27q7 7 7 17t-7 17l-231 232l86 86l17 -16h1l1 -1l-12 -12q-23 -23 -24 -54.5t20 -52.5l371 -371q20 -21 50 -21q33 0 57 25l126 126q23 22 25 52q2 33 -21 55zM450 271q-7 -4 -18 -9q-17 2 -29 -12l-205 -252
q-11 -11 -22 0l-77 77q-5 5 -5 11t3 9l252 213q12 10 11 24q1 5 9 19q11 8 20 -2l59 -59q5 -4 5 -11q0 -4 -3 -8zM924 396l-126 -126q-6 -6 -12 -6l-376 373q-6 6 4 17l126 126q5 4 12 4h5l371 -371q6 -7 -4 -17z" />
    <glyph glyph-name="uniE646" unicode="&#xe646;" horiz-adv-x="1366" 
d="M444 -94v103h921v-103h-921zM444 418h921v-102h-921v102zM444 828h921v-103h-921v103zM102.5 -128q-42.5 0 -72.5 30t-30 72.5t30 72.5t72.5 30t72.5 -30t30 -72.5t-30 -72.5t-72.5 -30zM102.5 282q-42.5 0 -72.5 30t-30 72t30 72t72.5 30t72.5 -30t30 -72t-30 -72
t-72.5 -30zM102.5 691q-42.5 0 -72.5 30t-30 72.5t30 72.5t72.5 30t72.5 -30t30 -72.5t-30 -72.5t-72.5 -30z" />
    <glyph glyph-name="uniE647" unicode="&#xe647;" 
d="M711 -57h-489q-58 0 -95.5 28.5t-37.5 83.5v527q0 57 39 96.5t94 39.5h34h168h83q26 0 26 -23t-22 -23h-89h-155h-45q-42 0 -65.5 -26t-23.5 -65v-524q0 -29 26 -49t63 -20l499 -4q29 0 54 22.5t25 50.5v68v251v46q0 22 22 22q18 0 18 -29v-29v-265l4 -64
q0 -56 -37.5 -85t-95.5 -29zM911 650l-79 -91l-393 -434h-8l-2 1l-166 -62l-38 36l51 184l1 2v10l411 415l67 75q61 64 112 23l44 -45q24 -26 24 -57.5t-24 -56.5zM267 102l133 46l-89 91zM333 285l89 -91l378 387l-89 91zM884 722l-41 44q-8 8 -19.5 8t-19.5 -8l-54 -58
l79 -84l55 57q8 9 8 21t-8 20z" />
    <glyph glyph-name="uniE648" unicode="&#xe648;" 
d="M225 528l271 -273l271 273l-49 49l-222 -224l-222 224zM225 528z" />
    <glyph glyph-name="uniE649" unicode="&#xe649;" 
d="M154 822l796 -796l-80 -80l-796 796zM870 822l80 -80l-796 -796l-80 80z" />
  </font>
</defs>
</svg>
